<svg width="248" height="33" viewBox="0 0 248 33" fill="none" xmlns="http://www.w3.org/2000/svg">
<path d="M0.164062 32V-0.015625H6.98438V32H0.164062ZM13.3359 32V-0.015625H25.9688C31 -0.015625 35.0859 1.45313 38.2266 4.39062C41.3828 7.32812 42.9609 11.1875 42.9609 15.9688C42.9609 19.1562 42.2422 21.9688 40.8047 24.4062C39.3828 26.8438 37.3906 28.7188 34.8281 30.0312C32.2656 31.3438 29.3281 32 26.0156 32H13.3359ZM20.1562 26H25.9688C28.0156 26 29.8125 25.5391 31.3594 24.6172C32.9062 23.6953 34.0625 22.4844 34.8281 20.9844C35.6094 19.4844 36 17.8125 36 15.9688C36 13.0469 35.125 10.6562 33.375 8.79688C31.625 6.92188 29.1719 5.98438 26.0156 5.98438H20.1562V26ZM47.5078 32V-0.015625H54.375V26H67.8984V32H47.5078Z" fill="white"/>
<path d="M83.1719 10V-0.00488281H84.417V10H83.1719ZM86.6268 10V2.75635H87.7474V3.80371C88.0306 3.4668 88.4066 3.17871 88.8753 2.93945C89.3441 2.69531 89.8348 2.57324 90.3475 2.57324C91.8758 2.57324 92.64 3.35449 92.64 4.91699V10H91.5267V5.26123C91.5267 4.65088 91.3851 4.21875 91.1019 3.96484C90.8187 3.70605 90.4159 3.57666 89.8934 3.57666C89.4735 3.57666 89.0682 3.68652 88.6776 3.90625C88.2918 4.12598 87.9818 4.39209 87.7474 4.70459V10H86.6268ZM93.8317 3.74512V2.75635H95.0329V0.771484H96.1755V2.75635H97.6476V3.74512H96.1755V8.24219C96.1755 8.52539 96.2365 8.75244 96.3586 8.92334C96.4806 9.08936 96.6589 9.17236 96.8932 9.17236C97.2253 9.17236 97.4816 9.06738 97.6623 8.85742L97.9919 9.71436C97.6647 10.0269 97.2204 10.1831 96.6589 10.1831C96.1266 10.1831 95.7214 10.0366 95.443 9.74365C95.1696 9.4458 95.0329 9.02588 95.0329 8.48389V3.74512H93.8317ZM98.7075 6.36719C98.7075 5.67383 98.8589 5.03906 99.1616 4.46289C99.4693 3.88184 99.8965 3.42285 100.443 3.08594C100.99 2.74414 101.603 2.57324 102.282 2.57324C102.995 2.57324 103.617 2.74658 104.149 3.09326C104.682 3.43994 105.082 3.90625 105.351 4.49219C105.624 5.07324 105.761 5.72998 105.761 6.4624V6.74805H99.9087C99.9527 7.46094 100.207 8.05664 100.67 8.53516C101.139 9.01367 101.75 9.25293 102.501 9.25293C102.926 9.25293 103.334 9.17236 103.725 9.01123C104.12 8.8501 104.464 8.62061 104.757 8.32275L105.292 9.05518C104.525 9.80713 103.566 10.1831 102.414 10.1831C101.33 10.1831 100.441 9.8291 99.7476 9.12109C99.0542 8.41309 98.7075 7.49512 98.7075 6.36719ZM99.8941 5.90576H104.647C104.643 5.62744 104.591 5.35156 104.494 5.07812C104.401 4.80469 104.262 4.54834 104.076 4.30908C103.891 4.06982 103.642 3.87695 103.329 3.73047C103.017 3.5791 102.663 3.50342 102.267 3.50342C101.896 3.50342 101.559 3.57666 101.256 3.72314C100.954 3.86963 100.707 4.0625 100.517 4.30176C100.331 4.53613 100.185 4.79248 100.077 5.0708C99.9697 5.34424 99.9087 5.62256 99.8941 5.90576ZM107.494 10V2.75635H108.615V3.91357C108.928 3.51318 109.291 3.19336 109.706 2.9541C110.121 2.70996 110.563 2.58789 111.032 2.58789V3.74512C110.856 3.72559 110.712 3.71582 110.6 3.71582C110.253 3.71582 109.877 3.83545 109.472 4.07471C109.067 4.30908 108.781 4.5752 108.615 4.87305V10H107.494ZM111.96 7.78076C111.96 7.39014 112.033 7.03857 112.18 6.72607C112.326 6.40869 112.519 6.15723 112.758 5.97168C113.003 5.78125 113.271 5.63721 113.564 5.53955C113.857 5.44189 114.162 5.39307 114.48 5.39307C115.505 5.39307 116.306 5.71777 116.882 6.36719V5.06348C116.882 4.59473 116.711 4.22607 116.369 3.95752C116.028 3.68408 115.588 3.54736 115.051 3.54736C114.192 3.54736 113.452 3.88428 112.832 4.55811L112.304 3.77441C113.071 2.97363 114.038 2.57324 115.205 2.57324C115.605 2.57324 115.969 2.61963 116.296 2.7124C116.628 2.80518 116.924 2.94678 117.182 3.13721C117.441 3.32275 117.644 3.57666 117.79 3.89893C117.937 4.22119 118.01 4.59473 118.01 5.01953V10H116.882V9.17236C116.281 9.84619 115.481 10.1831 114.48 10.1831C114.172 10.1831 113.869 10.1294 113.571 10.022C113.279 9.91943 113.01 9.77051 112.766 9.5752C112.522 9.37988 112.326 9.12842 112.18 8.8208C112.033 8.5083 111.96 8.16162 111.96 7.78076ZM113.103 7.78076C113.103 8.24463 113.269 8.62549 113.601 8.92334C113.938 9.22119 114.372 9.37012 114.904 9.37012C115.305 9.37012 115.681 9.29443 116.032 9.14307C116.389 8.98682 116.672 8.76221 116.882 8.46924V7.09229C116.672 6.80908 116.389 6.5918 116.032 6.44043C115.681 6.28418 115.305 6.20605 114.904 6.20605C114.377 6.20605 113.945 6.35498 113.608 6.65283C113.271 6.9458 113.103 7.32178 113.103 7.78076ZM119.766 6.36719C119.766 5.6543 119.915 5.01221 120.212 4.44092C120.515 3.86475 120.942 3.41064 121.494 3.07861C122.046 2.7417 122.676 2.57324 123.384 2.57324C124.502 2.57324 125.386 2.99316 126.035 3.83301L125.288 4.50684C124.834 3.88672 124.219 3.57666 123.442 3.57666C122.686 3.57666 122.078 3.83789 121.619 4.36035C121.165 4.88281 120.938 5.55176 120.938 6.36719C120.938 7.18262 121.167 7.854 121.626 8.38135C122.085 8.90869 122.69 9.17236 123.442 9.17236C124.199 9.17236 124.814 8.85742 125.288 8.22754L126.035 8.92334C125.386 9.76318 124.502 10.1831 123.384 10.1831C122.319 10.1831 121.45 9.81934 120.776 9.0918C120.103 8.36426 119.766 7.45605 119.766 6.36719ZM126.56 3.74512V2.75635H127.762V0.771484H128.904V2.75635H130.376V3.74512H128.904V8.24219C128.904 8.52539 128.965 8.75244 129.087 8.92334C129.209 9.08936 129.388 9.17236 129.622 9.17236C129.954 9.17236 130.21 9.06738 130.391 8.85742L130.721 9.71436C130.393 10.0269 129.949 10.1831 129.388 10.1831C128.855 10.1831 128.45 10.0366 128.172 9.74365C127.898 9.4458 127.762 9.02588 127.762 8.48389V3.74512H126.56ZM131.883 1.50391C131.737 1.35742 131.663 1.1792 131.663 0.969238C131.663 0.759277 131.737 0.581055 131.883 0.43457C132.034 0.283203 132.215 0.20752 132.425 0.20752C132.635 0.20752 132.813 0.283203 132.96 0.43457C133.106 0.581055 133.179 0.759277 133.179 0.969238C133.179 1.1792 133.106 1.35742 132.96 1.50391C132.813 1.65039 132.635 1.72363 132.425 1.72363C132.215 1.72363 132.034 1.65039 131.883 1.50391ZM131.861 10V2.75635H132.982V10H131.861ZM135.148 8.28613C134.859 7.70996 134.715 7.07031 134.715 6.36719C134.715 5.66406 134.859 5.02686 135.148 4.45557C135.436 3.88428 135.853 3.42773 136.4 3.08594C136.952 2.74414 137.586 2.57324 138.304 2.57324C139.022 2.57324 139.654 2.74414 140.201 3.08594C140.753 3.42773 141.17 3.88428 141.454 4.45557C141.742 5.02686 141.886 5.66406 141.886 6.36719C141.886 7.07031 141.742 7.70996 141.454 8.28613C141.17 8.8623 140.753 9.32373 140.201 9.67041C139.654 10.0122 139.022 10.1831 138.304 10.1831C137.586 10.1831 136.952 10.0122 136.4 9.67041C135.853 9.32373 135.436 8.8623 135.148 8.28613ZM135.902 6.36719C135.902 7.14844 136.117 7.8125 136.546 8.35938C136.976 8.90137 137.562 9.17236 138.304 9.17236C138.802 9.17236 139.234 9.04053 139.601 8.77686C139.972 8.51318 140.248 8.17383 140.428 7.75879C140.609 7.33887 140.699 6.875 140.699 6.36719C140.699 5.86426 140.609 5.40527 140.428 4.99023C140.248 4.5752 139.972 4.23584 139.601 3.97217C139.234 3.7085 138.802 3.57666 138.304 3.57666C137.806 3.57666 137.372 3.7085 137.001 3.97217C136.629 4.23584 136.354 4.57764 136.173 4.99756C135.992 5.4126 135.902 5.86914 135.902 6.36719ZM143.634 10V2.75635H144.755V3.80371C145.038 3.4668 145.414 3.17871 145.883 2.93945C146.351 2.69531 146.842 2.57324 147.355 2.57324C148.883 2.57324 149.647 3.35449 149.647 4.91699V10H148.534V5.26123C148.534 4.65088 148.392 4.21875 148.109 3.96484C147.826 3.70605 147.423 3.57666 146.901 3.57666C146.481 3.57666 146.076 3.68652 145.685 3.90625C145.299 4.12598 144.989 4.39209 144.755 4.70459V10H143.634ZM155.656 10V-0.00488281H159.077C160.092 -0.00488281 160.993 0.217285 161.779 0.661621C162.566 1.10107 163.166 1.69922 163.581 2.45605C163.996 3.21289 164.204 4.0625 164.204 5.00488C164.204 5.71289 164.082 6.37451 163.837 6.98975C163.593 7.6001 163.252 8.12744 162.812 8.57178C162.373 9.01611 161.831 9.36523 161.186 9.61914C160.546 9.87305 159.843 10 159.077 10H155.656ZM156.901 8.88672H159.077C159.863 8.88672 160.551 8.71094 161.142 8.35938C161.733 8.00781 162.175 7.5415 162.468 6.96045C162.766 6.37939 162.915 5.72754 162.915 5.00488C162.915 4.27246 162.768 3.61572 162.475 3.03467C162.187 2.45361 161.748 1.9873 161.157 1.63574C160.571 1.28418 159.878 1.1084 159.077 1.1084H156.901V8.88672ZM165.601 6.36719C165.601 5.67383 165.752 5.03906 166.055 4.46289C166.362 3.88184 166.789 3.42285 167.336 3.08594C167.883 2.74414 168.496 2.57324 169.175 2.57324C169.888 2.57324 170.51 2.74658 171.042 3.09326C171.575 3.43994 171.975 3.90625 172.244 4.49219C172.517 5.07324 172.654 5.72998 172.654 6.4624V6.74805H166.802C166.846 7.46094 167.1 8.05664 167.563 8.53516C168.032 9.01367 168.643 9.25293 169.394 9.25293C169.819 9.25293 170.227 9.17236 170.618 9.01123C171.013 8.8501 171.357 8.62061 171.65 8.32275L172.185 9.05518C171.418 9.80713 170.459 10.1831 169.307 10.1831C168.223 10.1831 167.334 9.8291 166.641 9.12109C165.947 8.41309 165.601 7.49512 165.601 6.36719ZM166.787 5.90576H171.54C171.536 5.62744 171.484 5.35156 171.387 5.07812C171.294 4.80469 171.155 4.54834 170.969 4.30908C170.784 4.06982 170.535 3.87695 170.222 3.73047C169.91 3.5791 169.556 3.50342 169.16 3.50342C168.789 3.50342 168.452 3.57666 168.149 3.72314C167.847 3.86963 167.6 4.0625 167.41 4.30176C167.224 4.53613 167.078 4.79248 166.97 5.0708C166.863 5.34424 166.802 5.62256 166.787 5.90576ZM173.772 9.04053L174.336 8.22754C174.595 8.52051 174.939 8.76709 175.369 8.96729C175.799 9.16748 176.25 9.26758 176.724 9.26758C177.266 9.26758 177.688 9.15283 177.991 8.92334C178.299 8.69385 178.452 8.39355 178.452 8.02246C178.452 7.78809 178.369 7.59033 178.203 7.4292C178.037 7.26807 177.823 7.14355 177.559 7.05566C177.295 6.96777 177.005 6.88721 176.687 6.81396C176.37 6.74072 176.05 6.65527 175.728 6.55762C175.41 6.45996 175.12 6.34033 174.856 6.19873C174.593 6.05713 174.378 5.85693 174.212 5.59814C174.046 5.33447 173.963 5.02197 173.963 4.66064C173.963 4.06494 174.202 3.56934 174.68 3.17383C175.159 2.77344 175.816 2.57324 176.651 2.57324C177.754 2.57324 178.648 2.9248 179.331 3.62793L178.811 4.4043C178.587 4.13086 178.284 3.91113 177.903 3.74512C177.527 3.57422 177.11 3.48877 176.651 3.48877C176.167 3.48877 175.779 3.59863 175.486 3.81836C175.193 4.0332 175.047 4.3042 175.047 4.63135C175.047 4.84131 175.13 5.01953 175.296 5.16602C175.462 5.30762 175.674 5.41992 175.933 5.50293C176.197 5.58105 176.487 5.65674 176.804 5.72998C177.127 5.79834 177.447 5.88379 177.764 5.98633C178.086 6.08887 178.377 6.21582 178.636 6.36719C178.899 6.51367 179.114 6.72607 179.28 7.00439C179.446 7.28271 179.529 7.6123 179.529 7.99316C179.529 8.62793 179.28 9.15283 178.782 9.56787C178.289 9.97803 177.593 10.1831 176.695 10.1831C175.479 10.1831 174.505 9.80225 173.772 9.04053ZM181.292 1.50391C181.146 1.35742 181.072 1.1792 181.072 0.969238C181.072 0.759277 181.146 0.581055 181.292 0.43457C181.443 0.283203 181.624 0.20752 181.834 0.20752C182.044 0.20752 182.222 0.283203 182.369 0.43457C182.515 0.581055 182.588 0.759277 182.588 0.969238C182.588 1.1792 182.515 1.35742 182.369 1.50391C182.222 1.65039 182.044 1.72363 181.834 1.72363C181.624 1.72363 181.443 1.65039 181.292 1.50391ZM181.27 10V2.75635H182.391V10H181.27ZM184.124 6.33789C184.124 5.19043 184.422 4.27734 185.018 3.59863C185.614 2.91504 186.393 2.57324 187.354 2.57324C187.838 2.57324 188.289 2.68555 188.709 2.91016C189.134 3.13477 189.496 3.44727 189.793 3.84766V2.75635H190.921V9.89746C190.921 10.4492 190.826 10.9277 190.636 11.333C190.445 11.7383 190.182 12.0532 189.845 12.2778C189.513 12.5073 189.149 12.6733 188.753 12.7759C188.358 12.8833 187.926 12.937 187.457 12.937C186.822 12.937 186.28 12.8589 185.831 12.7026C185.387 12.5464 184.955 12.2607 184.535 11.8457L185.099 11.0327C185.396 11.3794 185.731 11.6284 186.102 11.7798C186.478 11.9312 186.93 12.0068 187.457 12.0068C188.121 12.0068 188.675 11.8335 189.12 11.4868C189.569 11.1401 189.793 10.6104 189.793 9.89746V8.79883C189.51 9.18457 189.154 9.49707 188.724 9.73633C188.299 9.9707 187.843 10.0879 187.354 10.0879C186.393 10.0879 185.614 9.75098 185.018 9.07715C184.422 8.40332 184.124 7.49023 184.124 6.33789ZM185.296 6.33789C185.296 7.14844 185.504 7.81006 185.919 8.32275C186.339 8.83057 186.91 9.08447 187.633 9.08447C188.062 9.08447 188.477 8.97217 188.878 8.74756C189.278 8.51807 189.583 8.23975 189.793 7.9126V4.73389C189.583 4.41162 189.276 4.13818 188.871 3.91357C188.47 3.68896 188.058 3.57666 187.633 3.57666C186.91 3.57666 186.339 3.83301 185.919 4.3457C185.504 4.85352 185.296 5.51758 185.296 6.33789ZM193.087 10V2.75635H194.208V3.80371C194.491 3.4668 194.867 3.17871 195.336 2.93945C195.804 2.69531 196.295 2.57324 196.808 2.57324C198.336 2.57324 199.1 3.35449 199.1 4.91699V10H197.987V5.26123C197.987 4.65088 197.845 4.21875 197.562 3.96484C197.279 3.70605 196.876 3.57666 196.354 3.57666C195.934 3.57666 195.529 3.68652 195.138 3.90625C194.752 4.12598 194.442 4.39209 194.208 4.70459V10H193.087ZM204.941 10V-0.00488281H206.186V8.88672H210.837V10H204.941ZM211.977 7.78076C211.977 7.39014 212.051 7.03857 212.197 6.72607C212.344 6.40869 212.536 6.15723 212.776 5.97168C213.02 5.78125 213.288 5.63721 213.581 5.53955C213.874 5.44189 214.179 5.39307 214.497 5.39307C215.522 5.39307 216.323 5.71777 216.899 6.36719V5.06348C216.899 4.59473 216.728 4.22607 216.387 3.95752C216.045 3.68408 215.605 3.54736 215.068 3.54736C214.209 3.54736 213.469 3.88428 212.849 4.55811L212.322 3.77441C213.088 2.97363 214.055 2.57324 215.222 2.57324C215.622 2.57324 215.986 2.61963 216.313 2.7124C216.645 2.80518 216.941 2.94678 217.2 3.13721C217.458 3.32275 217.661 3.57666 217.807 3.89893C217.954 4.22119 218.027 4.59473 218.027 5.01953V10H216.899V9.17236C216.299 9.84619 215.498 10.1831 214.497 10.1831C214.189 10.1831 213.887 10.1294 213.589 10.022C213.296 9.91943 213.027 9.77051 212.783 9.5752C212.539 9.37988 212.344 9.12842 212.197 8.8208C212.051 8.5083 211.977 8.16162 211.977 7.78076ZM213.12 7.78076C213.12 8.24463 213.286 8.62549 213.618 8.92334C213.955 9.22119 214.389 9.37012 214.922 9.37012C215.322 9.37012 215.698 9.29443 216.05 9.14307C216.406 8.98682 216.689 8.76221 216.899 8.46924V7.09229C216.689 6.80908 216.406 6.5918 216.05 6.44043C215.698 6.28418 215.322 6.20605 214.922 6.20605C214.394 6.20605 213.962 6.35498 213.625 6.65283C213.288 6.9458 213.12 7.32178 213.12 7.78076ZM220.208 10V-0.00488281H221.328V3.84766C221.621 3.44727 221.98 3.13477 222.405 2.91016C222.835 2.68555 223.291 2.57324 223.775 2.57324C224.732 2.57324 225.508 2.91992 226.104 3.61328C226.699 4.30664 226.997 5.22949 226.997 6.38184C226.997 7.54395 226.699 8.46924 226.104 9.15771C225.508 9.84131 224.732 10.1831 223.775 10.1831C223.281 10.1831 222.82 10.0684 222.39 9.83887C221.965 9.60938 221.611 9.3042 221.328 8.92334V10H220.208ZM221.328 8.03711C221.528 8.35938 221.831 8.63037 222.236 8.8501C222.642 9.06494 223.064 9.17236 223.504 9.17236C224.216 9.17236 224.783 8.91357 225.203 8.396C225.623 7.87354 225.833 7.20215 225.833 6.38184C225.833 5.56152 225.623 4.89014 225.203 4.36768C224.783 3.84033 224.216 3.57666 223.504 3.57666C223.069 3.57666 222.647 3.69141 222.236 3.9209C221.831 4.14551 221.528 4.42139 221.328 4.74854V8.03711ZM83.1719 32V21.9951H89.7271V23.1084H84.417V26.3311H89.6172V27.437H84.417V32H83.1719ZM90.9041 29.7808C90.9041 29.3901 90.9774 29.0386 91.1239 28.7261C91.2704 28.4087 91.4632 28.1572 91.7025 27.9717C91.9466 27.7812 92.2152 27.6372 92.5081 27.5396C92.8011 27.4419 93.1063 27.3931 93.4237 27.3931C94.4491 27.3931 95.2498 27.7178 95.826 28.3672V27.0635C95.826 26.5947 95.6551 26.2261 95.3133 25.9575C94.9715 25.6841 94.5321 25.5474 93.995 25.5474C93.1356 25.5474 92.3958 25.8843 91.7757 26.5581L91.2484 25.7744C92.015 24.9736 92.9818 24.5732 94.1488 24.5732C94.5492 24.5732 94.9129 24.6196 95.2401 24.7124C95.5721 24.8052 95.8675 24.9468 96.1263 25.1372C96.3851 25.3228 96.5877 25.5767 96.7342 25.8989C96.8807 26.2212 96.9539 26.5947 96.9539 27.0195V32H95.826V31.1724C95.2254 31.8462 94.4246 32.1831 93.4237 32.1831C93.1161 32.1831 92.8133 32.1294 92.5155 32.022C92.2225 31.9194 91.9539 31.7705 91.7098 31.5752C91.4657 31.3799 91.2704 31.1284 91.1239 30.8208C90.9774 30.5083 90.9041 30.1616 90.9041 29.7808ZM92.0467 29.7808C92.0467 30.2446 92.2127 30.6255 92.5448 30.9233C92.8817 31.2212 93.3162 31.3701 93.8485 31.3701C94.2489 31.3701 94.6248 31.2944 94.9764 31.1431C95.3329 30.9868 95.6161 30.7622 95.826 30.4692V29.0923C95.6161 28.8091 95.3329 28.5918 94.9764 28.4404C94.6248 28.2842 94.2489 28.2061 93.8485 28.2061C93.3211 28.2061 92.889 28.355 92.5521 28.6528C92.2152 28.9458 92.0467 29.3218 92.0467 29.7808ZM98.7096 28.3672C98.7096 27.6543 98.8586 27.0122 99.1564 26.4409C99.4592 25.8647 99.8864 25.4106 100.438 25.0786C100.99 24.7417 101.62 24.5732 102.328 24.5732C103.446 24.5732 104.33 24.9932 104.979 25.833L104.232 26.5068C103.778 25.8867 103.163 25.5767 102.386 25.5767C101.63 25.5767 101.022 25.8379 100.563 26.3604C100.109 26.8828 99.8815 27.5518 99.8815 28.3672C99.8815 29.1826 100.111 29.854 100.57 30.3813C101.029 30.9087 101.634 31.1724 102.386 31.1724C103.143 31.1724 103.758 30.8574 104.232 30.2275L104.979 30.9233C104.33 31.7632 103.446 32.1831 102.328 32.1831C101.263 32.1831 100.394 31.8193 99.7204 31.0918C99.0466 30.3643 98.7096 29.4561 98.7096 28.3672ZM106.501 32V21.9951H107.621V25.8037C107.895 25.4668 108.263 25.1787 108.727 24.9395C109.196 24.6953 109.689 24.5732 110.207 24.5732C111.745 24.5732 112.514 25.3447 112.514 26.8877V32H111.386V27.2319C111.386 26.6216 111.247 26.1943 110.968 25.9502C110.69 25.7012 110.285 25.5767 109.752 25.5767C109.337 25.5767 108.935 25.6865 108.544 25.9062C108.153 26.126 107.846 26.3921 107.621 26.7046V32H106.501ZM114.687 32V21.9951H115.807V25.8037C116.081 25.4668 116.45 25.1787 116.913 24.9395C117.382 24.6953 117.875 24.5732 118.393 24.5732C119.931 24.5732 120.7 25.3447 120.7 26.8877V32H119.572V27.2319C119.572 26.6216 119.433 26.1943 119.155 25.9502C118.876 25.7012 118.471 25.5767 117.939 25.5767C117.524 25.5767 117.121 25.6865 116.73 25.9062C116.34 26.126 116.032 26.3921 115.807 26.7046V32H114.687ZM122.866 30.2861C122.578 29.71 122.434 29.0703 122.434 28.3672C122.434 27.6641 122.578 27.0269 122.866 26.4556C123.154 25.8843 123.571 25.4277 124.118 25.0859C124.67 24.7441 125.305 24.5732 126.023 24.5732C126.74 24.5732 127.373 24.7441 127.92 25.0859C128.471 25.4277 128.889 25.8843 129.172 26.4556C129.46 27.0269 129.604 27.6641 129.604 28.3672C129.604 29.0703 129.46 29.71 129.172 30.2861C128.889 30.8623 128.471 31.3237 127.92 31.6704C127.373 32.0122 126.74 32.1831 126.023 32.1831C125.305 32.1831 124.67 32.0122 124.118 31.6704C123.571 31.3237 123.154 30.8623 122.866 30.2861ZM123.62 28.3672C123.62 29.1484 123.835 29.8125 124.265 30.3594C124.695 30.9014 125.28 31.1724 126.023 31.1724C126.521 31.1724 126.953 31.0405 127.319 30.7769C127.69 30.5132 127.966 30.1738 128.147 29.7588C128.327 29.3389 128.418 28.875 128.418 28.3672C128.418 27.8643 128.327 27.4053 128.147 26.9902C127.966 26.5752 127.69 26.2358 127.319 25.9722C126.953 25.7085 126.521 25.5767 126.023 25.5767C125.525 25.5767 125.09 25.7085 124.719 25.9722C124.348 26.2358 124.072 26.5776 123.891 26.9976C123.711 27.4126 123.62 27.8691 123.62 28.3672ZM130.928 28.3672C130.928 27.6543 131.077 27.0122 131.375 26.4409C131.677 25.8647 132.105 25.4106 132.656 25.0786C133.208 24.7417 133.838 24.5732 134.546 24.5732C135.664 24.5732 136.548 24.9932 137.197 25.833L136.45 26.5068C135.996 25.8867 135.381 25.5767 134.605 25.5767C133.848 25.5767 133.24 25.8379 132.781 26.3604C132.327 26.8828 132.1 27.5518 132.1 28.3672C132.1 29.1826 132.329 29.854 132.788 30.3813C133.247 30.9087 133.853 31.1724 134.605 31.1724C135.361 31.1724 135.977 30.8574 136.45 30.2275L137.197 30.9233C136.548 31.7632 135.664 32.1831 134.546 32.1831C133.481 32.1831 132.612 31.8193 131.939 31.0918C131.265 30.3643 130.928 29.4561 130.928 28.3672ZM138.719 32V21.9951H139.839V25.8037C140.113 25.4668 140.481 25.1787 140.945 24.9395C141.414 24.6953 141.907 24.5732 142.425 24.5732C143.963 24.5732 144.732 25.3447 144.732 26.8877V32H143.604V27.2319C143.604 26.6216 143.465 26.1943 143.186 25.9502C142.908 25.7012 142.503 25.5767 141.971 25.5767C141.556 25.5767 141.153 25.6865 140.762 25.9062C140.371 26.126 140.064 26.3921 139.839 26.7046V32H138.719ZM146.275 31.0405L146.839 30.2275C147.098 30.5205 147.442 30.7671 147.872 30.9673C148.301 31.1675 148.753 31.2676 149.227 31.2676C149.769 31.2676 150.191 31.1528 150.494 30.9233C150.801 30.6938 150.955 30.3936 150.955 30.0225C150.955 29.7881 150.872 29.5903 150.706 29.4292C150.54 29.2681 150.325 29.1436 150.062 29.0557C149.798 28.9678 149.508 28.8872 149.19 28.814C148.873 28.7407 148.553 28.6553 148.231 28.5576C147.913 28.46 147.623 28.3403 147.359 28.1987C147.095 28.0571 146.881 27.8569 146.715 27.5981C146.549 27.3345 146.466 27.022 146.466 26.6606C146.466 26.0649 146.705 25.5693 147.183 25.1738C147.662 24.7734 148.319 24.5732 149.154 24.5732C150.257 24.5732 151.151 24.9248 151.834 25.6279L151.314 26.4043C151.09 26.1309 150.787 25.9111 150.406 25.7451C150.03 25.5742 149.613 25.4888 149.154 25.4888C148.67 25.4888 148.282 25.5986 147.989 25.8184C147.696 26.0332 147.55 26.3042 147.55 26.6313C147.55 26.8413 147.633 27.0195 147.799 27.166C147.965 27.3076 148.177 27.4199 148.436 27.5029C148.699 27.5811 148.99 27.6567 149.307 27.73C149.63 27.7983 149.949 27.8838 150.267 27.9863C150.589 28.0889 150.88 28.2158 151.138 28.3672C151.402 28.5137 151.617 28.7261 151.783 29.0044C151.949 29.2827 152.032 29.6123 152.032 29.9932C152.032 30.6279 151.783 31.1528 151.285 31.5679C150.792 31.978 150.096 32.1831 149.197 32.1831C147.982 32.1831 147.008 31.8022 146.275 31.0405ZM153.348 28.3672C153.348 27.6543 153.497 27.0122 153.795 26.4409C154.098 25.8647 154.525 25.4106 155.077 25.0786C155.628 24.7417 156.258 24.5732 156.966 24.5732C158.085 24.5732 158.968 24.9932 159.618 25.833L158.871 26.5068C158.417 25.8867 157.801 25.5767 157.025 25.5767C156.268 25.5767 155.66 25.8379 155.201 26.3604C154.747 26.8828 154.52 27.5518 154.52 28.3672C154.52 29.1826 154.75 29.854 155.209 30.3813C155.668 30.9087 156.273 31.1724 157.025 31.1724C157.782 31.1724 158.397 30.8574 158.871 30.2275L159.618 30.9233C158.968 31.7632 158.085 32.1831 156.966 32.1831C155.902 32.1831 155.033 31.8193 154.359 31.0918C153.685 30.3643 153.348 29.4561 153.348 28.3672ZM161.139 32V21.9951H162.26V25.8037C162.533 25.4668 162.902 25.1787 163.366 24.9395C163.834 24.6953 164.328 24.5732 164.845 24.5732C166.383 24.5732 167.152 25.3447 167.152 26.8877V32H166.024V27.2319C166.024 26.6216 165.885 26.1943 165.607 25.9502C165.329 25.7012 164.923 25.5767 164.391 25.5767C163.976 25.5767 163.573 25.6865 163.183 25.9062C162.792 26.126 162.484 26.3921 162.26 26.7046V32H161.139ZM169.311 29.8687V24.7563H170.431V29.5244C170.431 30.1299 170.571 30.5571 170.849 30.8062C171.127 31.0503 171.532 31.1724 172.065 31.1724C172.485 31.1724 172.89 31.0674 173.281 30.8574C173.671 30.6475 173.976 30.3887 174.196 30.0811V24.7563H175.324V32H174.196V30.9819C173.893 31.3237 173.515 31.6094 173.061 31.8389C172.607 32.0684 172.126 32.1831 171.618 32.1831C170.08 32.1831 169.311 31.4116 169.311 29.8687ZM177.482 32V21.9951H178.603V32H177.482ZM180.337 28.3672C180.337 27.6738 180.488 27.0391 180.791 26.4629C181.099 25.8818 181.526 25.4229 182.073 25.0859C182.62 24.7441 183.232 24.5732 183.911 24.5732C184.624 24.5732 185.247 24.7466 185.779 25.0933C186.311 25.4399 186.711 25.9062 186.98 26.4922C187.253 27.0732 187.39 27.73 187.39 28.4624V28.748H181.538C181.582 29.4609 181.836 30.0566 182.3 30.5352C182.768 31.0137 183.379 31.2529 184.131 31.2529C184.556 31.2529 184.963 31.1724 185.354 31.0112C185.749 30.8501 186.094 30.6206 186.387 30.3228L186.921 31.0552C186.155 31.8071 185.195 32.1831 184.043 32.1831C182.959 32.1831 182.07 31.8291 181.377 31.1211C180.684 30.4131 180.337 29.4951 180.337 28.3672ZM181.523 27.9058H186.277C186.272 27.6274 186.221 27.3516 186.123 27.0781C186.03 26.8047 185.891 26.5483 185.705 26.3091C185.52 26.0698 185.271 25.877 184.958 25.7305C184.646 25.5791 184.292 25.5034 183.896 25.5034C183.525 25.5034 183.188 25.5767 182.886 25.7231C182.583 25.8696 182.336 26.0625 182.146 26.3018C181.96 26.5361 181.814 26.7925 181.706 27.0708C181.599 27.3442 181.538 27.6226 181.523 27.9058ZM192.96 32V21.9951H196.981C197.947 21.9951 198.712 22.2856 199.273 22.8667C199.835 23.4429 200.115 24.1582 200.115 25.0127C200.115 25.8623 199.832 26.5776 199.266 27.1587C198.704 27.7349 197.942 28.0229 196.981 28.0229H194.205V32H192.96ZM194.205 26.917H196.827C197.418 26.917 197.899 26.7412 198.27 26.3896C198.641 26.0381 198.826 25.5791 198.826 25.0127C198.826 24.4463 198.641 23.9873 198.27 23.6357C197.899 23.2842 197.418 23.1084 196.827 23.1084H194.205V26.917ZM201.637 30.2861C201.349 29.71 201.205 29.0703 201.205 28.3672C201.205 27.6641 201.349 27.0269 201.637 26.4556C201.925 25.8843 202.342 25.4277 202.889 25.0859C203.441 24.7441 204.076 24.5732 204.793 24.5732C205.511 24.5732 206.143 24.7441 206.69 25.0859C207.242 25.4277 207.66 25.8843 207.943 26.4556C208.231 27.0269 208.375 27.6641 208.375 28.3672C208.375 29.0703 208.231 29.71 207.943 30.2861C207.66 30.8623 207.242 31.3237 206.69 31.6704C206.143 32.0122 205.511 32.1831 204.793 32.1831C204.076 32.1831 203.441 32.0122 202.889 31.6704C202.342 31.3237 201.925 30.8623 201.637 30.2861ZM202.391 28.3672C202.391 29.1484 202.606 29.8125 203.036 30.3594C203.465 30.9014 204.051 31.1724 204.793 31.1724C205.291 31.1724 205.724 31.0405 206.09 30.7769C206.461 30.5132 206.737 30.1738 206.917 29.7588C207.098 29.3389 207.188 28.875 207.188 28.3672C207.188 27.8643 207.098 27.4053 206.917 26.9902C206.737 26.5752 206.461 26.2358 206.09 25.9722C205.724 25.7085 205.291 25.5767 204.793 25.5767C204.295 25.5767 203.861 25.7085 203.49 25.9722C203.119 26.2358 202.843 26.5776 202.662 26.9976C202.481 27.4126 202.391 27.8691 202.391 28.3672ZM209.142 25.7451V24.7563H210.343V22.7715H211.486V24.7563H212.958V25.7451H211.486V30.2422C211.486 30.5254 211.547 30.7524 211.669 30.9233C211.791 31.0894 211.969 31.1724 212.203 31.1724C212.535 31.1724 212.792 31.0674 212.972 30.8574L213.302 31.7144C212.975 32.0269 212.531 32.1831 211.969 32.1831C211.437 32.1831 211.032 32.0366 210.753 31.7437C210.48 31.4458 210.343 31.0259 210.343 30.4839V25.7451H209.142ZM213.827 31.0405L214.391 30.2275C214.65 30.5205 214.994 30.7671 215.424 30.9673C215.854 31.1675 216.305 31.2676 216.779 31.2676C217.321 31.2676 217.743 31.1528 218.046 30.9233C218.354 30.6938 218.507 30.3936 218.507 30.0225C218.507 29.7881 218.424 29.5903 218.258 29.4292C218.092 29.2681 217.878 29.1436 217.614 29.0557C217.35 28.9678 217.06 28.8872 216.742 28.814C216.425 28.7407 216.105 28.6553 215.783 28.5576C215.465 28.46 215.175 28.3403 214.911 28.1987C214.648 28.0571 214.433 27.8569 214.267 27.5981C214.101 27.3345 214.018 27.022 214.018 26.6606C214.018 26.0649 214.257 25.5693 214.735 25.1738C215.214 24.7734 215.871 24.5732 216.706 24.5732C217.809 24.5732 218.703 24.9248 219.386 25.6279L218.866 26.4043C218.642 26.1309 218.339 25.9111 217.958 25.7451C217.582 25.5742 217.165 25.4888 216.706 25.4888C216.222 25.4888 215.834 25.5986 215.541 25.8184C215.248 26.0332 215.102 26.3042 215.102 26.6313C215.102 26.8413 215.185 27.0195 215.351 27.166C215.517 27.3076 215.729 27.4199 215.988 27.5029C216.252 27.5811 216.542 27.6567 216.859 27.73C217.182 27.7983 217.502 27.8838 217.819 27.9863C218.141 28.0889 218.432 28.2158 218.691 28.3672C218.954 28.5137 219.169 28.7261 219.335 29.0044C219.501 29.2827 219.584 29.6123 219.584 29.9932C219.584 30.6279 219.335 31.1528 218.837 31.5679C218.344 31.978 217.648 32.1831 216.75 32.1831C215.534 32.1831 214.56 31.8022 213.827 31.0405ZM220.9 28.3818C220.9 27.2344 221.201 26.314 221.801 25.6206C222.402 24.9224 223.178 24.5732 224.13 24.5732C224.614 24.5732 225.065 24.6855 225.485 24.9102C225.91 25.1348 226.271 25.4473 226.569 25.8477V21.9951H227.697V32H226.569V30.9233C226.286 31.3042 225.932 31.6094 225.507 31.8389C225.082 32.0684 224.623 32.1831 224.13 32.1831C223.173 32.1831 222.394 31.8413 221.794 31.1577C221.198 30.4692 220.9 29.5439 220.9 28.3818ZM222.702 26.3677C222.282 26.8901 222.072 27.5615 222.072 28.3818C222.072 29.2021 222.28 29.8735 222.695 30.396C223.115 30.9136 223.686 31.1724 224.409 31.1724C224.843 31.1724 225.261 31.0625 225.661 30.8428C226.066 30.6182 226.369 30.3447 226.569 30.0225V26.7485C226.369 26.4214 226.066 26.1455 225.661 25.9209C225.256 25.6914 224.838 25.5767 224.409 25.5767C223.691 25.5767 223.122 25.8403 222.702 26.3677ZM229.468 29.7808C229.468 29.3901 229.541 29.0386 229.687 28.7261C229.834 28.4087 230.027 28.1572 230.266 27.9717C230.51 27.7812 230.779 27.6372 231.072 27.5396C231.365 27.4419 231.67 27.3931 231.987 27.3931C233.012 27.3931 233.813 27.7178 234.389 28.3672V27.0635C234.389 26.5947 234.219 26.2261 233.877 25.9575C233.535 25.6841 233.096 25.5474 232.558 25.5474C231.699 25.5474 230.959 25.8843 230.339 26.5581L229.812 25.7744C230.578 24.9736 231.545 24.5732 232.712 24.5732C233.113 24.5732 233.476 24.6196 233.804 24.7124C234.136 24.8052 234.431 24.9468 234.69 25.1372C234.949 25.3228 235.151 25.5767 235.298 25.8989C235.444 26.2212 235.517 26.5947 235.517 27.0195V32H234.389V31.1724C233.789 31.8462 232.988 32.1831 231.987 32.1831C231.679 32.1831 231.377 32.1294 231.079 32.022C230.786 31.9194 230.517 31.7705 230.273 31.5752C230.029 31.3799 229.834 31.1284 229.687 30.8208C229.541 30.5083 229.468 30.1616 229.468 29.7808ZM230.61 29.7808C230.61 30.2446 230.776 30.6255 231.108 30.9233C231.445 31.2212 231.88 31.3701 232.412 31.3701C232.812 31.3701 233.188 31.2944 233.54 31.1431C233.896 30.9868 234.179 30.7622 234.389 30.4692V29.0923C234.179 28.8091 233.896 28.5918 233.54 28.4404C233.188 28.2842 232.812 28.2061 232.412 28.2061C231.885 28.2061 231.452 28.355 231.116 28.6528C230.779 28.9458 230.61 29.3218 230.61 29.7808ZM237.698 32V24.7563H238.818V25.8037C239.014 25.5205 239.334 25.2446 239.778 24.9761C240.222 24.7075 240.689 24.5732 241.177 24.5732C241.699 24.5732 242.124 24.7002 242.451 24.9541C242.778 25.2031 242.998 25.5278 243.11 25.9282C243.33 25.5718 243.667 25.2568 244.121 24.9834C244.575 24.71 245.049 24.5732 245.542 24.5732C246.206 24.5732 246.709 24.7563 247.051 25.1226C247.393 25.4888 247.564 26.0356 247.564 26.7632V32H246.443V27.0781C246.443 26.0771 245.996 25.5767 245.103 25.5767C244.741 25.5767 244.38 25.6865 244.019 25.9062C243.657 26.1211 243.379 26.3823 243.184 26.6899V32H242.063V27.0781C242.063 26.0771 241.616 25.5767 240.723 25.5767C240.371 25.5767 240.017 25.689 239.661 25.9136C239.304 26.1333 239.024 26.397 238.818 26.7046V32H237.698Z" fill="white"/>
</svg>
