<svg width="218" height="40" viewBox="0 0 218 40" fill="none" xmlns="http://www.w3.org/2000/svg">
<path d="M65.1642 29.1196C65.1642 33.1966 64.2322 36.2446 60.5452 39.1326L56.5462 35.7476C58.6452 33.7796 59.3122 32.2566 59.3652 29.8466L56.1652 29.8486V20.7586H65.1642V29.1196Z" fill="white"/>
<path d="M65.1549 14.709H56.2219V5.61899H65.1549V14.709Z" fill="white"/>
<path d="M0.571655 29.8502V1.10216H22.1937V7.94216H9.24466V12.9892H21.2167V19.8312H9.24466V29.8502H0.571655Z" fill="white"/>
<path d="M42.3447 29.8487V18.6107H33.9567V29.8487H25.0797V1.10169H33.9567V11.1997H42.3447V1.10169H51.2617V29.8487H42.3447Z" fill="white"/>
<path d="M82.4062 14.1317C84.1162 14.1317 85.3782 13.8867 86.0702 13.3177C86.7212 12.7877 86.9662 11.9737 86.9662 11.0367C86.9662 10.1407 86.7212 9.32669 86.0702 8.75669C85.4192 8.14569 84.3602 7.94269 82.5272 7.94269H78.9852V14.1317H82.4062ZM70.2312 29.8487V1.10169H82.5272C88.1882 1.10169 90.6302 1.71169 92.3402 2.85269C94.8652 4.52169 96.0872 7.24969 96.0872 10.8327C96.0872 14.1317 94.7842 17.0227 92.4632 18.7327C90.4682 20.1577 87.8622 20.8507 83.3832 20.8507H79.0252V29.8487H70.2312Z" fill="white"/>
<path d="M111.502 2.12706V3.98606H113.391V4.99506H111.502V7.84406H110.152V1.09805H113.601V2.12706H111.502Z" fill="white"/>
<path d="M117.062 5.5851H116.682C115.712 5.5851 115.432 5.9051 115.432 6.3751C115.432 6.7841 115.663 7.0341 116.102 7.0341C116.412 7.0341 116.751 6.8751 117.062 6.6051V5.5851ZM117.341 7.8441L117.251 7.3341C116.822 7.7041 116.362 7.9541 115.722 7.9541C114.712 7.9541 114.173 7.4541 114.173 6.5241C114.173 5.4851 115.002 4.7961 116.751 4.7961H117.062V4.4161C117.062 3.9061 116.772 3.6561 116.132 3.6561C115.613 3.6561 115.063 3.7961 114.613 3.9561L114.443 3.1771C115.033 2.9171 115.703 2.7271 116.452 2.7271C117.731 2.7271 118.33 3.3371 118.33 4.2861V7.8441H117.341Z" fill="white"/>
<path d="M121.502 7.9444C120.183 7.9444 119.503 7.1044 119.503 5.4054C119.503 3.8264 120.313 2.7264 121.592 2.7264C122.232 2.7264 122.741 2.9574 123.091 3.3564L122.641 4.0154C122.411 3.8064 122.131 3.6864 121.791 3.6864C121.212 3.6864 120.842 4.2254 120.842 5.2754C120.842 6.4954 121.172 6.9744 121.751 6.9744C122.151 6.9744 122.482 6.8444 122.811 6.5544L123.2 7.2144C122.811 7.6144 122.261 7.9444 121.502 7.9444Z" fill="white"/>
<path d="M128.21 7.84387H126.931C126.931 6.82387 126.96 5.78487 126.96 5.22587C126.96 4.02687 126.721 3.75587 126.261 3.75587C126.011 3.75587 125.681 3.90587 125.341 4.16587V7.84387H124.052V0.757872H125.341V3.26687C125.692 2.96687 126.161 2.72687 126.711 2.72687C127.71 2.72687 128.25 3.34687 128.25 4.99487C128.25 5.59587 128.21 6.73487 128.21 7.84387Z" fill="white"/>
<path d="M133.819 7.84387H132.54C132.54 6.82387 132.569 5.78487 132.569 5.22587C132.569 4.02687 132.33 3.75587 131.87 3.75587C131.62 3.75587 131.29 3.90587 130.95 4.16587V7.84387H129.661V0.757872H130.95V3.26687C131.3 2.96687 131.77 2.72687 132.32 2.72687C133.319 2.72687 133.859 3.34687 133.859 4.99487C133.859 5.59587 133.819 6.73487 133.819 7.84387Z" fill="white"/>
<path d="M137.31 3.67686C136.72 3.67686 136.311 4.08586 136.311 5.22586C136.311 6.63486 136.68 7.00486 137.32 7.00486C137.9 7.00486 138.309 6.59486 138.309 5.45486C138.309 4.04586 137.94 3.67686 137.31 3.67686ZM137.21 7.95386C135.79 7.95386 134.992 7.23486 134.992 5.43586C134.992 3.58586 135.92 2.72686 137.41 2.72686C138.83 2.72686 139.628 3.44686 139.628 5.24486C139.628 7.08386 138.7 7.95386 137.21 7.95386Z" fill="white"/>
<path d="M142.521 7.9444C141.202 7.9444 140.522 7.1044 140.522 5.4054C140.522 3.8264 141.332 2.7264 142.611 2.7264C143.251 2.7264 143.76 2.9574 144.11 3.3564L143.66 4.0154C143.43 3.8064 143.15 3.6864 142.81 3.6864C142.231 3.6864 141.861 4.2254 141.861 5.2754C141.861 6.4954 142.191 6.9744 142.77 6.9744C143.171 6.9744 143.501 6.8444 143.83 6.5544L144.219 7.2144C143.83 7.6144 143.28 7.9444 142.521 7.9444Z" fill="white"/>
<path d="M149.229 7.84387H147.95C147.95 6.82387 147.979 5.78487 147.979 5.22587C147.979 4.02687 147.74 3.75587 147.28 3.75587C147.03 3.75587 146.7 3.90587 146.36 4.16587V7.84387H145.071V0.757872H146.36V3.26687C146.71 2.96687 147.18 2.72687 147.73 2.72687C148.729 2.72687 149.269 3.34687 149.269 4.99487C149.269 5.59587 149.229 6.73487 149.229 7.84387Z" fill="white"/>
<path d="M151.871 7.9444C151.311 7.9444 150.802 7.8034 150.312 7.5344L150.422 6.8644C150.992 6.9944 151.331 7.0344 151.641 7.0344C152.301 7.0344 152.551 6.7844 152.551 6.4844C152.551 6.1554 152.39 5.9854 151.661 5.7254C150.702 5.3854 150.332 4.9754 150.332 4.2464C150.332 3.3374 151.061 2.7264 152.161 2.7264C152.61 2.7264 153.041 2.8274 153.56 3.0964L153.42 3.7564C153.001 3.6564 152.711 3.6064 152.43 3.6064C151.911 3.6064 151.681 3.8454 151.681 4.1264C151.681 4.4254 151.851 4.5764 152.56 4.8364C153.54 5.1654 153.91 5.6354 153.91 6.3544C153.91 7.2644 153.16 7.9444 151.871 7.9444Z" fill="white"/>
<path d="M156.711 7.9444C155.392 7.9444 154.712 7.1044 154.712 5.4054C154.712 3.8264 155.522 2.7264 156.801 2.7264C157.441 2.7264 157.95 2.9574 158.3 3.3564L157.85 4.0154C157.62 3.8064 157.34 3.6864 157 3.6864C156.421 3.6864 156.051 4.2254 156.051 5.2754C156.051 6.4954 156.381 6.9744 156.96 6.9744C157.36 6.9744 157.691 6.8444 158.02 6.5544L158.409 7.2144C158.02 7.6144 157.47 7.9444 156.711 7.9444Z" fill="white"/>
<path d="M163.419 7.84387H162.14C162.14 6.82387 162.169 5.78487 162.169 5.22587C162.169 4.02687 161.93 3.75587 161.47 3.75587C161.22 3.75587 160.89 3.90587 160.55 4.16587V7.84387H159.261V0.757872H160.55V3.26687C160.9 2.96687 161.37 2.72687 161.92 2.72687C162.919 2.72687 163.459 3.34687 163.459 4.99487C163.459 5.59587 163.419 6.73487 163.419 7.84387Z" fill="white"/>
<path d="M167.979 7.84386L167.879 7.31486C167.45 7.70386 166.94 7.95386 166.37 7.95386C165.35 7.95386 164.831 7.31486 164.831 5.68586C164.831 5.06586 164.871 3.93686 164.871 2.83686H166.16C166.16 3.84586 166.121 4.86486 166.121 5.46486C166.121 6.64486 166.36 6.92486 166.81 6.92486C167.089 6.92486 167.419 6.75486 167.74 6.51486V2.83686H169.029V7.84386H167.979Z" fill="white"/>
<path d="M171.469 7.92389C170.82 7.92389 170.48 7.72389 170.48 6.91389V0.757889H171.769V6.40389C171.769 6.96489 171.839 7.04389 172.099 7.04389C172.179 7.04389 172.279 7.03389 172.349 7.03389L172.399 7.79389C172.159 7.87389 171.86 7.92389 171.469 7.92389Z" fill="white"/>
<path d="M176.03 4.77547C176.03 3.97647 175.759 3.58647 175.22 3.58647C174.661 3.58647 174.361 4.07647 174.321 4.79547H176.03V4.77547ZM174.321 5.59547V5.66547C174.321 6.58547 174.72 6.97447 175.44 6.97447C175.889 6.97447 176.479 6.87547 177.059 6.68447L177.249 7.42347C176.639 7.74447 175.92 7.95447 175.18 7.95447C173.871 7.95447 173.002 7.30447 173.002 5.47547C173.002 3.68647 173.871 2.72647 175.27 2.72647C176.559 2.72647 177.409 3.44647 177.269 5.59547H174.321Z" fill="white"/>
<path d="M182.92 2.06744H182.51V4.57644H182.92C183.809 4.57644 184.209 4.11644 184.209 3.31644C184.209 2.50644 183.859 2.06744 182.92 2.06744ZM182.79 5.57544H182.51V7.84344H181.16V1.09744C181.79 1.09744 182.43 1.07844 183.119 1.07844C184.948 1.07844 185.618 1.90744 185.618 3.19644C185.618 4.57644 184.879 5.57544 182.79 5.57544Z" fill="white"/>
<path d="M188.599 3.67686C188.009 3.67686 187.6 4.08586 187.6 5.22586C187.6 6.63486 187.969 7.00486 188.609 7.00486C189.189 7.00486 189.598 6.59486 189.598 5.45486C189.598 4.04586 189.229 3.67686 188.599 3.67686ZM188.499 7.95386C187.079 7.95386 186.281 7.23486 186.281 5.43586C186.281 3.58586 187.209 2.72686 188.699 2.72686C190.119 2.72686 190.917 3.44686 190.917 5.24486C190.917 7.08386 189.989 7.95386 188.499 7.95386Z" fill="white"/>
<path d="M193.399 7.9444C192.48 7.9444 192.13 7.5944 192.13 6.6354V3.7364H191.501V2.8374H192.18C192.3 2.3864 192.39 1.9374 192.48 1.3784H193.419V2.8374H194.529V3.7364H193.419V6.3144C193.419 6.8244 193.54 6.9844 193.869 6.9844C194.029 6.9844 194.239 6.9654 194.559 6.8754L194.659 7.6144C194.189 7.8534 193.779 7.9444 193.399 7.9444Z" fill="white"/>
<path d="M196.849 7.9444C196.289 7.9444 195.78 7.8034 195.29 7.5344L195.4 6.8644C195.97 6.9944 196.309 7.0344 196.62 7.0344C197.279 7.0344 197.529 6.7844 197.529 6.4844C197.529 6.1554 197.369 5.9854 196.639 5.7254C195.68 5.3854 195.31 4.9754 195.31 4.2464C195.31 3.3374 196.039 2.7264 197.139 2.7264C197.588 2.7264 198.019 2.8274 198.538 3.0964L198.398 3.7564C197.979 3.6564 197.689 3.6064 197.409 3.6064C196.889 3.6064 196.66 3.8454 196.66 4.1264C196.66 4.4254 196.829 4.5764 197.538 4.8364C198.518 5.1654 198.888 5.6354 198.888 6.3544C198.888 7.2644 198.138 7.9444 196.849 7.9444Z" fill="white"/>
<path d="M202.718 3.74616C202.537 3.68616 202.328 3.64616 202.108 3.64616C201.458 3.64616 201.009 4.17616 201.009 5.36516C201.009 6.42516 201.319 6.96516 201.828 6.96516C202.068 6.96516 202.388 6.82416 202.718 6.54516V3.74616ZM202.957 7.84416L202.858 7.33416C202.438 7.69416 201.978 7.95416 201.448 7.95416C200.279 7.95416 199.69 6.88516 199.69 5.54516C199.69 3.52616 200.779 2.72616 202.158 2.72616C202.358 2.72616 202.588 2.74716 202.718 2.75716V0.758162H204.007V7.84416H202.957Z" fill="white"/>
<path d="M208.029 5.5851H207.649C206.679 5.5851 206.399 5.9051 206.399 6.3751C206.399 6.7841 206.629 7.0341 207.069 7.0341C207.379 7.0341 207.718 6.8751 208.029 6.6051V5.5851ZM208.308 7.8441L208.218 7.3341C207.789 7.7041 207.329 7.9541 206.689 7.9541C205.679 7.9541 205.14 7.4541 205.14 6.5241C205.14 5.4851 205.969 4.7961 207.718 4.7961H208.029V4.4161C208.029 3.9061 207.739 3.6561 207.099 3.6561C206.58 3.6561 206.03 3.7961 205.58 3.9561L205.41 3.1771C206 2.9171 206.67 2.7271 207.419 2.7271C208.698 2.7271 209.297 3.3371 209.297 4.2861V7.8441H208.308Z" fill="white"/>
<path d="M217.656 7.84387H216.377C216.377 6.83487 216.407 5.80487 216.407 5.22587C216.407 4.02687 216.187 3.75587 215.758 3.75587C215.498 3.75587 215.138 3.94587 214.807 4.20587C214.838 4.36587 214.858 4.59587 214.858 4.95587V7.84387H213.579V5.22587C213.579 4.04587 213.358 3.75587 212.939 3.75587C212.699 3.75587 212.369 3.91587 212.039 4.16587V7.84387H210.75V2.83687H211.809L211.899 3.36587C212.3 2.99687 212.809 2.72687 213.379 2.72687C213.998 2.72687 214.408 3.03687 214.597 3.44587C215.078 3.01687 215.597 2.72687 216.197 2.72687C217.177 2.72687 217.696 3.36587 217.696 4.98587C217.696 5.60587 217.656 6.74387 217.656 7.84387Z" fill="white"/>
<path d="M112.561 18.9542C110.961 18.9542 110.142 18.2842 110.142 16.5562V12.0982H111.492V16.4152C111.492 17.5642 111.851 17.9652 112.681 17.9652C113.43 17.9652 113.88 17.6142 113.88 16.4952V12.0982H115.2V16.4052C115.2 18.2542 114.11 18.9542 112.561 18.9542Z" fill="white"/>
<path d="M120.89 18.8439H119.611C119.611 17.8349 119.64 16.8049 119.64 16.2159C119.64 15.0269 119.411 14.7559 118.951 14.7559C118.681 14.7559 118.351 14.9159 118.021 15.1659V18.8439H116.732V13.8369H117.791L117.881 14.3659C118.311 13.9769 118.821 13.7269 119.401 13.7269C120.41 13.7269 120.93 14.3659 120.93 15.9949C120.93 16.6149 120.89 17.7439 120.89 18.8439Z" fill="white"/>
<path d="M122.342 13.837H123.631V18.844H122.342V13.837ZM122.991 13.188C122.372 13.188 122.221 13.027 122.221 12.518C122.221 12.018 122.382 11.848 122.991 11.848C123.611 11.848 123.751 11.998 123.751 12.518C123.751 13.018 123.601 13.188 122.991 13.188Z" fill="white"/>
<path d="M127.65 18.8439H125.971L124.542 13.8369H125.931L126.741 16.6649L126.941 17.6649C127.361 16.3059 127.65 15.0669 127.77 13.8369H129.099C128.839 15.5559 128.35 17.2749 127.65 18.8439Z" fill="white"/>
<path d="M132.77 15.7755C132.77 14.9765 132.5 14.5865 131.96 14.5865C131.401 14.5865 131.101 15.0765 131.061 15.7955H132.77V15.7755ZM131.061 16.5955V16.6655C131.061 17.5855 131.46 17.9745 132.18 17.9745C132.629 17.9745 133.219 17.8755 133.799 17.6845L133.989 18.4235C133.379 18.7445 132.66 18.9545 131.92 18.9545C130.611 18.9545 129.742 18.3045 129.742 16.4755C129.742 14.6865 130.611 13.7265 132.01 13.7265C133.299 13.7265 134.149 14.4465 134.009 16.5955H131.061Z" fill="white"/>
<path d="M137.961 14.9767C137.751 14.9157 137.621 14.9067 137.521 14.9067C137.241 14.9067 137.001 15.0957 136.551 15.6657V18.8437H135.262V13.8367H136.321L136.421 14.6167C136.931 13.9467 137.271 13.7367 137.631 13.7367C137.78 13.7367 137.95 13.7667 138.11 13.8467L137.961 14.9767Z" fill="white"/>
<path d="M140.192 18.9444C139.633 18.9444 139.123 18.8034 138.633 18.5344L138.743 17.8644C139.312 17.9944 139.652 18.0344 139.963 18.0344C140.622 18.0344 140.872 17.7844 140.872 17.4844C140.872 17.1554 140.712 16.9854 139.982 16.7254C139.023 16.3854 138.653 15.9754 138.653 15.2464C138.653 14.3374 139.383 13.7264 140.482 13.7264C140.931 13.7264 141.362 13.8274 141.881 14.0964L141.741 14.7564C141.322 14.6564 141.032 14.6064 140.752 14.6064C140.232 14.6064 140.003 14.8454 140.003 15.1264C140.003 15.4254 140.172 15.5764 140.881 15.8364C141.861 16.1654 142.231 16.6354 142.231 17.3544C142.231 18.2644 141.481 18.9444 140.192 18.9444Z" fill="white"/>
<path d="M143.312 13.837H144.601V18.844H143.312V13.837ZM143.962 13.188C143.342 13.188 143.192 13.027 143.192 12.518C143.192 12.018 143.352 11.848 143.962 11.848C144.582 11.848 144.721 11.998 144.721 12.518C144.721 13.018 144.572 13.188 143.962 13.188Z" fill="white"/>
<path d="M147.422 18.9444C146.503 18.9444 146.153 18.5944 146.153 17.6354V14.7364H145.524V13.8374H146.203C146.323 13.3864 146.413 12.9374 146.503 12.3784H147.442V13.8374H148.552V14.7364H147.442V17.3144C147.442 17.8244 147.563 17.9844 147.892 17.9844C148.052 17.9844 148.262 17.9654 148.582 17.8754L148.682 18.6144C148.212 18.8534 147.802 18.9444 147.422 18.9444Z" fill="white"/>
<path d="M149.841 20.6329C149.621 20.6329 149.342 20.5639 149.082 20.4229V19.6839C149.232 19.7029 149.462 19.7139 149.581 19.7139C149.902 19.7139 150.121 19.6439 150.301 19.4929C150.511 19.3139 150.591 19.1439 150.591 18.9039C150.591 18.7039 150.531 18.4039 150.362 17.9139L149.122 13.8369H150.501L151.28 16.6459C151.431 17.1249 151.521 17.5849 151.5 17.8849C151.88 16.7149 152.23 15.1759 152.33 13.8369H153.659C152.86 19.0639 151.221 20.6329 149.841 20.6329Z" fill="white"/>
<path d="M158.81 14.6769C158.22 14.6769 157.811 15.0859 157.811 16.2259C157.811 17.6349 158.18 18.0049 158.82 18.0049C159.4 18.0049 159.809 17.5949 159.809 16.4549C159.809 15.0459 159.44 14.6769 158.81 14.6769ZM158.71 18.9539C157.29 18.9539 156.492 18.2349 156.492 16.4359C156.492 14.5859 157.42 13.7269 158.91 13.7269C160.33 13.7269 161.128 14.4469 161.128 16.2449C161.128 18.0839 160.2 18.9539 158.71 18.9539Z" fill="white"/>
<path d="M164.82 12.6974C164.61 12.6174 164.411 12.5774 164.23 12.5774C163.84 12.5774 163.691 12.7774 163.691 13.1974V13.8374H164.59V14.7364H163.691V18.8434H162.412V14.7364H161.772V13.8374H162.412V13.2374C162.412 12.2484 162.801 11.6474 163.811 11.6474C164.31 11.6474 164.711 11.7984 165.01 11.9584L164.82 12.6974Z" fill="white"/>
<path d="M112.161 24.2872C111.882 25.2462 111.542 26.4852 111.292 27.5052H113.091C112.811 26.4662 112.491 25.3262 112.161 24.2872ZM113.6 29.8442C113.52 29.4642 113.411 28.9042 113.31 28.5152H111.082C110.992 28.8942 110.882 29.3842 110.803 29.8442H109.513C110.013 27.5962 110.673 25.2662 111.382 23.0982H113.151C113.93 25.4062 114.52 27.5752 115.059 29.8442H113.6Z" fill="white"/>
<path d="M118.132 25.7159C117.893 25.7159 117.563 25.8569 117.242 26.1359V28.9349C117.412 29.0049 117.622 29.0339 117.843 29.0339C118.492 29.0339 118.952 28.5049 118.952 27.3159C118.952 26.2859 118.642 25.7159 118.132 25.7159ZM117.773 29.9539C117.622 29.9539 117.402 29.9449 117.242 29.9239V31.5729H115.953V24.8369H117.003L117.103 25.3469C117.513 24.9769 117.992 24.7269 118.492 24.7269C119.692 24.7269 120.271 25.8069 120.271 27.1359C120.271 29.1139 119.212 29.9539 117.773 29.9539Z" fill="white"/>
<path d="M123.621 25.7159C123.382 25.7159 123.052 25.8569 122.731 26.1359V28.9349C122.901 29.0049 123.111 29.0339 123.332 29.0339C123.981 29.0339 124.441 28.5049 124.441 27.3159C124.441 26.2859 124.131 25.7159 123.621 25.7159ZM123.262 29.9539C123.111 29.9539 122.891 29.9449 122.731 29.9239V31.5729H121.442V24.8369H122.492L122.592 25.3469C123.002 24.9769 123.481 24.7269 123.981 24.7269C125.18 24.7269 125.76 25.8069 125.76 27.1359C125.76 29.1139 124.701 29.9539 123.262 29.9539Z" fill="white"/>
<path d="M127.922 29.9239C127.273 29.9239 126.933 29.7239 126.933 28.9139V22.7579H128.222V28.4039C128.222 28.9649 128.292 29.0439 128.552 29.0439C128.632 29.0439 128.732 29.0339 128.802 29.0339L128.852 29.7939C128.612 29.8739 128.313 29.9239 127.922 29.9239Z" fill="white"/>
<path d="M129.832 24.837H131.121V29.844H129.832V24.837ZM130.481 24.188C129.862 24.188 129.712 24.027 129.712 23.518C129.712 23.018 129.872 22.848 130.481 22.848C131.101 22.848 131.241 22.998 131.241 23.518C131.241 24.018 131.092 24.188 130.481 24.188Z" fill="white"/>
<path d="M135.321 26.7755C135.321 25.9765 135.05 25.5865 134.511 25.5865C133.952 25.5865 133.652 26.0765 133.612 26.7955H135.321V26.7755ZM133.612 27.5955V27.6655C133.612 28.5855 134.011 28.9745 134.731 28.9745C135.18 28.9745 135.77 28.8755 136.35 28.6845L136.54 29.4235C135.93 29.7445 135.211 29.9545 134.471 29.9545C133.162 29.9545 132.293 29.3045 132.293 27.4755C132.293 25.6865 133.162 24.7265 134.561 24.7265C135.85 24.7265 136.7 25.4465 136.56 27.5955H133.612Z" fill="white"/>
<path d="M140.561 25.7462C140.38 25.6862 140.171 25.6462 139.951 25.6462C139.301 25.6462 138.852 26.1762 138.852 27.3652C138.852 28.4252 139.162 28.9652 139.671 28.9652C139.911 28.9652 140.231 28.8242 140.561 28.5452V25.7462ZM140.8 29.8442L140.701 29.3342C140.281 29.6942 139.821 29.9542 139.291 29.9542C138.123 29.9542 137.533 28.8852 137.533 27.5452C137.533 25.5262 138.622 24.7262 140.001 24.7262C140.201 24.7262 140.431 24.7472 140.561 24.7572V22.7582H141.85V29.8442H140.8Z" fill="white"/>
<path d="M147.582 29.9444C146.792 29.9444 146.123 29.6834 145.553 29.3044L145.873 28.5944C146.412 28.8144 146.952 28.9544 147.332 28.9544C148.021 28.9544 148.451 28.6544 148.451 28.0854C148.451 26.7654 145.633 27.0254 145.633 24.9064C145.633 23.7474 146.532 22.9984 147.792 22.9984C148.422 22.9984 149.031 23.1684 149.601 23.5484L149.281 24.2474C148.852 24.0774 148.411 23.9774 148.042 23.9774C147.372 23.9774 147.062 24.2974 147.062 24.7474C147.062 26.0664 149.95 25.8454 149.95 27.9244C149.95 29.0644 149.111 29.9444 147.582 29.9444Z" fill="white"/>
<path d="M152.781 29.9444C151.462 29.9444 150.782 29.1044 150.782 27.4054C150.782 25.8264 151.592 24.7264 152.871 24.7264C153.511 24.7264 154.02 24.9574 154.37 25.3564L153.92 26.0154C153.69 25.8064 153.41 25.6864 153.07 25.6864C152.491 25.6864 152.121 26.2254 152.121 27.2754C152.121 28.4954 152.451 28.9744 153.03 28.9744C153.43 28.9744 153.761 28.8444 154.09 28.5544L154.479 29.2144C154.09 29.6144 153.54 29.9444 152.781 29.9444Z" fill="white"/>
<path d="M155.441 24.837H156.73V29.844H155.441V24.837ZM156.091 24.188C155.471 24.188 155.321 24.027 155.321 23.518C155.321 23.018 155.481 22.848 156.091 22.848C156.711 22.848 156.85 22.998 156.85 23.518C156.85 24.018 156.701 24.188 156.091 24.188Z" fill="white"/>
<path d="M160.93 26.7755C160.93 25.9765 160.66 25.5865 160.121 25.5865C159.561 25.5865 159.261 26.0765 159.221 26.7955H160.93V26.7755ZM159.221 27.5955V27.6655C159.221 28.5855 159.621 28.9745 160.34 28.9745C160.789 28.9745 161.379 28.8755 161.959 28.6845L162.149 29.4235C161.539 29.7445 160.82 29.9545 160.08 29.9545C158.771 29.9545 157.902 29.3045 157.902 27.4755C157.902 25.6865 158.771 24.7265 160.17 24.7265C161.459 24.7265 162.309 25.4465 162.169 27.5955H159.221Z" fill="white"/>
<path d="M167.579 29.8439H166.3C166.3 28.8349 166.329 27.8049 166.329 27.2159C166.329 26.0269 166.099 25.7559 165.639 25.7559C165.37 25.7559 165.04 25.9159 164.71 26.1659V29.8439H163.421V24.8369H164.48L164.57 25.3659C165 24.9769 165.51 24.7269 166.09 24.7269C167.098 24.7269 167.619 25.3659 167.619 26.9949C167.619 27.6149 167.579 28.7439 167.579 29.8439Z" fill="white"/>
<path d="M170.751 29.9444C169.432 29.9444 168.752 29.1044 168.752 27.4054C168.752 25.8264 169.562 24.7264 170.841 24.7264C171.48 24.7264 171.99 24.9574 172.34 25.3564L171.89 26.0154C171.66 25.8064 171.38 25.6864 171.04 25.6864C170.461 25.6864 170.091 26.2254 170.091 27.2754C170.091 28.4954 170.421 28.9744 171 28.9744C171.4 28.9744 171.73 28.8444 172.06 28.5544L172.449 29.2144C172.06 29.6144 171.51 29.9444 170.751 29.9444Z" fill="white"/>
<path d="M176 26.7755C176 25.9765 175.729 25.5865 175.19 25.5865C174.631 25.5865 174.331 26.0765 174.291 26.7955H176V26.7755ZM174.291 27.5955V27.6655C174.291 28.5855 174.69 28.9745 175.41 28.9745C175.859 28.9745 176.449 28.8755 177.029 28.6845L177.219 29.4235C176.609 29.7445 175.89 29.9545 175.15 29.9545C173.841 29.9545 172.972 29.3045 172.972 27.4755C172.972 25.6865 173.841 24.7265 175.24 24.7265C176.529 24.7265 177.379 25.4465 177.239 27.5955H174.291Z" fill="white"/>
<path d="M179.68 29.9444C179.121 29.9444 178.611 29.8034 178.121 29.5344L178.231 28.8644C178.8 28.9944 179.14 29.0344 179.451 29.0344C180.11 29.0344 180.36 28.7844 180.36 28.4844C180.36 28.1554 180.2 27.9854 179.47 27.7254C178.511 27.3854 178.141 26.9754 178.141 26.2464C178.141 25.3374 178.871 24.7264 179.97 24.7264C180.419 24.7264 180.85 24.8274 181.37 25.0964L181.229 25.7564C180.81 25.6564 180.52 25.6064 180.24 25.6064C179.72 25.6064 179.491 25.8454 179.491 26.1264C179.491 26.4264 179.661 26.5764 180.37 26.8364C181.349 27.1654 181.719 27.6354 181.719 28.3544C181.719 29.2644 180.969 29.9444 179.68 29.9444Z" fill="white"/>
</svg>
