<svg width="96" height="39" viewBox="0 0 96 39" fill="none" xmlns="http://www.w3.org/2000/svg">
<path d="M64.5925 28.1196C64.5925 32.1966 63.6605 35.2446 59.9735 38.1326L55.9745 34.7476C58.0735 32.7796 58.7405 31.2566 58.7935 28.8466L55.5935 28.8486V19.7586H64.5925V28.1196Z" fill="#231F20"/>
<path d="M64.5833 13.709H55.6503V4.61899H64.5833V13.709Z" fill="#231F20"/>
<path d="M0 28.8502V0.102221H21.622V6.94222H8.673V11.9892H20.645V18.8312H8.673V28.8502H0Z" fill="#231F20"/>
<path d="M41.7731 28.8487V17.6107H33.3851V28.8487H24.5081V0.101694H33.3851V10.1997H41.7731V0.101694H50.6901V28.8487H41.7731Z" fill="#231F20"/>
<path d="M81.8345 13.1317C83.5445 13.1317 84.8065 12.8867 85.4985 12.3177C86.1495 11.7877 86.3945 10.9737 86.3945 10.0367C86.3945 9.14069 86.1495 8.32669 85.4985 7.75669C84.8475 7.14569 83.7885 6.94269 81.9555 6.94269H78.4135V13.1317H81.8345ZM69.6595 28.8487V0.101694H81.9555C87.6165 0.101694 90.0585 0.711694 91.7685 1.85269C94.2935 3.52169 95.5155 6.24969 95.5155 9.83269C95.5155 13.1317 94.2125 16.0227 91.8915 17.7327C89.8965 19.1577 87.2905 19.8507 82.8115 19.8507H78.4535V28.8487H69.6595Z" fill="#231F20"/>
</svg>
