<svg width="283" height="63" viewBox="0 0 283 63" fill="none" xmlns="http://www.w3.org/2000/svg">
<path d="M77.3284 14.7734H74.6284V1.27344H77.3284V14.7734ZM88.4325 14.7734H85.8725C85.8725 12.7534 85.9325 10.6934 85.9325 9.51344C85.9325 7.13344 85.4725 6.59344 84.5925 6.59344C84.0125 6.59344 83.3525 6.91344 82.6925 7.41344V14.7734H80.1125V4.75344H82.2325L82.4125 5.81344C83.2725 5.07344 84.2925 4.53344 85.4125 4.53344C87.4525 4.53344 88.5125 5.81344 88.5125 9.07344C88.5125 10.3134 88.4325 12.5734 88.4325 14.7734ZM96.0905 12.8334L96.2905 14.3134C95.3505 14.7934 94.5305 14.9734 93.7705 14.9734C91.9305 14.9734 91.2305 14.2734 91.2305 12.3534V6.55344H89.9705V4.75344H91.3305C91.5705 3.85344 91.7505 2.95344 91.9305 1.83344H93.8105V4.75344H96.0305V6.55344H93.8105V11.7134C93.8105 12.7334 94.0505 13.0534 94.7105 13.0534C95.0305 13.0534 95.4505 13.0134 96.0905 12.8334ZM105.964 10.2734H100.064V10.4134C100.064 12.2534 100.864 13.0334 102.304 13.0334C103.204 13.0334 104.384 12.8334 105.544 12.4534L105.924 13.9334C104.704 14.5734 103.264 14.9934 101.784 14.9934C99.1636 14.9934 97.4236 13.6934 97.4236 10.0334C97.4236 6.45344 99.1636 4.53344 101.964 4.53344C104.544 4.53344 106.244 5.97344 105.964 10.2734ZM100.084 8.67344H103.484V8.63344C103.484 7.03344 102.944 6.25344 101.864 6.25344C100.744 6.25344 100.144 7.23344 100.084 8.67344ZM113.879 4.77344L113.559 7.03344C113.139 6.91344 112.879 6.89344 112.679 6.89344C112.119 6.89344 111.639 7.27344 110.739 8.41344V14.7734H108.159V4.75344H110.279L110.479 6.33344C111.499 4.99344 112.179 4.55344 112.899 4.55344C113.199 4.55344 113.539 4.61344 113.879 4.77344ZM122.771 14.7734H120.791L120.611 13.7534C119.751 14.4934 118.811 14.9934 117.551 14.9934C115.711 14.9934 114.451 13.8734 114.451 12.0334C114.451 9.95344 115.971 8.67344 119.591 8.67344H120.231V7.91344C120.231 6.89344 119.651 6.39344 118.371 6.39344C117.331 6.39344 116.231 6.67344 115.331 6.99344L114.991 5.43344C116.171 4.91344 117.511 4.53344 119.011 4.53344C121.571 4.53344 122.771 5.75344 122.771 7.65344V14.7734ZM120.231 12.2934V10.2534H119.471C117.531 10.2534 116.971 10.8734 116.971 11.8134C116.971 12.6534 117.371 13.1734 118.331 13.1734C118.931 13.1734 119.611 12.8534 120.231 12.2934ZM131.406 12.1934L132.206 13.5134C131.426 14.3134 130.326 14.9734 128.806 14.9734C126.166 14.9734 124.806 13.2934 124.806 9.89344C124.806 6.73344 126.406 4.53344 128.986 4.53344C130.266 4.53344 131.286 4.99344 131.986 5.79344L131.086 7.11344C130.526 6.65344 129.986 6.45344 129.386 6.45344C128.226 6.45344 127.486 7.53344 127.486 9.67344C127.486 12.0534 128.106 13.0334 129.366 13.0334C130.046 13.0334 130.666 12.7934 131.406 12.1934ZM138.766 12.8334L138.966 14.3134C138.026 14.7934 137.206 14.9734 136.446 14.9734C134.606 14.9734 133.906 14.2734 133.906 12.3534V6.55344H132.646V4.75344H134.006C134.246 3.85344 134.426 2.95344 134.606 1.83344H136.486V4.75344H138.706V6.55344H136.486V11.7134C136.486 12.7334 136.726 13.0534 137.386 13.0534C137.706 13.0534 138.126 13.0134 138.766 12.8334ZM143.479 2.11344C143.479 3.11344 143.179 3.45344 141.959 3.45344C140.719 3.45344 140.419 3.13344 140.419 2.11344C140.419 1.11344 140.739 0.773437 141.959 0.773437C143.199 0.773437 143.479 1.07344 143.479 2.11344ZM143.239 14.7734H140.659V4.75344H143.239V14.7734ZM154.555 9.57344C154.555 13.2534 152.695 14.9934 149.715 14.9934C146.875 14.9934 145.275 13.5534 145.275 9.95344C145.275 6.25344 147.135 4.53344 150.115 4.53344C152.955 4.53344 154.555 5.97344 154.555 9.57344ZM151.915 9.99344C151.915 7.17344 151.175 6.43344 149.915 6.43344C148.735 6.43344 147.935 7.25344 147.935 9.53344C147.935 12.3534 148.655 13.0934 149.935 13.0934C151.095 13.0934 151.915 12.2734 151.915 9.99344ZM164.917 14.7734H162.357C162.357 12.7534 162.417 10.6934 162.417 9.51344C162.417 7.13344 161.957 6.59344 161.077 6.59344C160.497 6.59344 159.837 6.91344 159.177 7.41344V14.7734H156.597V4.75344H158.717L158.897 5.81344C159.757 5.07344 160.777 4.53344 161.897 4.53344C163.937 4.53344 164.997 5.81344 164.997 9.07344C164.997 10.3134 164.917 12.5734 164.917 14.7734ZM172.5 14.7734V1.27344C173.86 1.27344 175.06 1.23344 176.26 1.23344C180.58 1.23344 182.12 3.97344 182.12 7.65344C182.12 12.2134 180.12 14.8334 175.78 14.8334C174.64 14.8334 173.52 14.7934 172.5 14.7734ZM175.2 3.27344V12.7334C175.52 12.7534 175.84 12.7734 176.14 12.7734C178.28 12.7734 179.28 11.0734 179.28 7.95344C179.28 4.89344 178.34 3.25344 176.12 3.25344C175.82 3.25344 175.5 3.25344 175.2 3.27344ZM192.214 10.2734H186.314V10.4134C186.314 12.2534 187.114 13.0334 188.554 13.0334C189.454 13.0334 190.634 12.8334 191.794 12.4534L192.174 13.9334C190.954 14.5734 189.514 14.9934 188.034 14.9934C185.414 14.9934 183.674 13.6934 183.674 10.0334C183.674 6.45344 185.414 4.53344 188.214 4.53344C190.794 4.53344 192.494 5.97344 192.214 10.2734ZM186.334 8.67344H189.734V8.63344C189.734 7.03344 189.194 6.25344 188.114 6.25344C186.994 6.25344 186.394 7.23344 186.334 8.67344ZM193.669 14.1534L193.889 12.8134C194.989 13.0734 195.709 13.1534 196.369 13.1534C197.649 13.1534 198.149 12.6534 198.149 12.0134C198.149 10.1934 193.709 10.9934 193.709 7.53344C193.709 5.75344 195.169 4.53344 197.369 4.53344C198.269 4.53344 199.129 4.73344 200.169 5.27344L199.889 6.59344C199.049 6.39344 198.469 6.29344 197.909 6.29344C196.869 6.29344 196.409 6.77344 196.409 7.33344C196.409 9.15344 200.869 8.33344 200.869 11.8134C200.869 13.6534 199.369 14.9734 196.829 14.9734C195.689 14.9734 194.709 14.6934 193.669 14.1534ZM205.55 2.11344C205.55 3.11344 205.25 3.45344 204.03 3.45344C202.79 3.45344 202.49 3.13344 202.49 2.11344C202.49 1.11344 202.81 0.773437 204.03 0.773437C205.27 0.773437 205.55 1.07344 205.55 2.11344ZM205.31 14.7734H202.73V4.75344H205.31V14.7734ZM215.985 4.95344V14.3934C215.985 17.6134 214.065 18.4134 211.705 18.4134C210.645 18.4134 209.465 18.1534 208.145 17.6134L208.345 16.1734C209.425 16.3534 210.525 16.5134 211.425 16.5134C212.785 16.5134 213.405 16.0934 213.405 14.8134V13.6334C212.705 14.1534 211.845 14.6334 210.865 14.6334C208.565 14.6334 207.345 12.5134 207.345 9.95344C207.345 6.19344 209.545 4.53344 212.525 4.53344C213.685 4.53344 215.025 4.73344 215.985 4.95344ZM213.405 11.8734V6.57344C213.045 6.45344 212.585 6.37344 212.165 6.37344C210.885 6.37344 209.985 7.47344 209.985 9.57344C209.985 11.6334 210.625 12.7134 211.645 12.7134C212.165 12.7134 212.865 12.3334 213.405 11.8734ZM226.909 14.7734H224.349C224.349 12.7534 224.409 10.6934 224.409 9.51344C224.409 7.13344 223.949 6.59344 223.069 6.59344C222.489 6.59344 221.829 6.91344 221.169 7.41344V14.7734H218.589V4.75344H220.709L220.889 5.81344C221.749 5.07344 222.769 4.53344 223.889 4.53344C225.929 4.53344 226.989 5.81344 226.989 9.07344C226.989 10.3134 226.909 12.5734 226.909 14.7734ZM241.112 14.7734H234.492V1.27344H237.192V12.6734H241.112V14.7734ZM250.447 14.7734H248.467L248.287 13.7534C247.427 14.4934 246.487 14.9934 245.227 14.9934C243.387 14.9934 242.127 13.8734 242.127 12.0334C242.127 9.95344 243.647 8.67344 247.267 8.67344H247.907V7.91344C247.907 6.89344 247.327 6.39344 246.047 6.39344C245.007 6.39344 243.907 6.67344 243.007 6.99344L242.667 5.43344C243.847 4.91344 245.187 4.53344 246.687 4.53344C249.247 4.53344 250.447 5.75344 250.447 7.65344V14.7734ZM247.907 12.2934V10.2534H247.147C245.207 10.2534 244.647 10.8734 244.647 11.8134C244.647 12.6534 245.047 13.1734 246.007 13.1734C246.607 13.1734 247.287 12.8534 247.907 12.2934ZM253.042 14.5934V0.593436H255.622V5.55344C256.322 4.97344 257.182 4.53344 258.122 4.53344C260.502 4.53344 261.682 6.71344 261.682 9.37344C261.682 13.3534 259.562 14.9934 256.422 14.9934C255.182 14.9934 254.002 14.8134 253.042 14.5934ZM255.622 7.35344V12.9734C255.902 13.0734 256.302 13.1534 256.802 13.1534C258.102 13.1534 259.042 12.0934 259.042 9.73344C259.042 7.65344 258.422 6.51344 257.402 6.51344C256.942 6.51344 256.262 6.79344 255.622 7.35344ZM76.6484 36.7734H74.9884V23.2734C75.8684 23.2734 76.6684 23.2534 78.0084 23.2534C81.6484 23.2534 82.8884 24.8934 82.8884 27.2934C82.8884 29.7934 81.3884 31.7934 77.4284 31.7934H76.6484V36.7734ZM76.6484 24.5134V30.5134H77.7484C80.0884 30.5134 81.1284 29.3334 81.1284 27.4934C81.1284 25.6134 80.2484 24.5134 77.7684 24.5134H76.6484ZM92.6856 31.6334C92.6856 35.2734 90.9256 36.9334 88.2656 36.9334C85.7656 36.9334 84.2856 35.4334 84.2856 31.9934C84.2856 28.3734 86.0256 26.6934 88.6856 26.6934C91.1856 26.6934 92.6856 28.2134 92.6856 31.6334ZM91.0456 32.0534C91.0456 29.0334 90.1856 27.9134 88.4656 27.9134C86.9256 27.9134 85.9256 29.0734 85.9256 31.5734C85.9256 34.6134 86.7656 35.7334 88.5056 35.7334C90.0256 35.7334 91.0456 34.5734 91.0456 32.0534ZM99.7981 35.3934L99.9981 36.3534C99.1981 36.7334 98.4181 36.9334 97.7581 36.9334C96.0781 36.9334 95.4781 36.2134 95.4781 34.2734V28.0134H93.8981V26.8534H95.4981C95.6581 25.9734 95.7981 25.0734 95.9181 24.0334H97.0581V26.8534H99.7381V28.0134H97.0581V33.8734C97.0581 35.2334 97.2781 35.7134 98.2381 35.7134C98.5981 35.7134 99.0581 35.6534 99.7981 35.3934ZM101.332 36.2334L101.532 35.3334C102.472 35.6134 103.192 35.7534 103.932 35.7534C105.392 35.7534 106.052 35.0534 106.052 34.1734C106.052 31.8334 101.372 32.7934 101.372 29.4334C101.372 27.8534 102.652 26.6934 104.612 26.6934C105.392 26.6934 106.152 26.8534 106.972 27.2734L106.732 28.1534C106.072 27.9534 105.452 27.8534 104.872 27.8534C103.632 27.8534 103.012 28.4934 103.012 29.2734C103.012 31.6134 107.732 30.6534 107.732 34.0334C107.732 35.7334 106.372 36.9334 104.172 36.9334C103.092 36.9334 102.192 36.6734 101.332 36.2334ZM117.219 36.7734H115.939L115.779 35.6734C114.899 36.3934 113.939 36.9334 112.859 36.9334C110.859 36.9334 109.559 34.9734 109.559 32.1934C109.559 28.2134 111.759 26.6934 114.259 26.6934C114.719 26.6934 115.299 26.7534 115.639 26.7734V22.5934H117.219V36.7734ZM115.639 34.5534V28.1334C115.139 27.9734 114.579 27.8734 114.059 27.8734C112.419 27.8734 111.199 29.1534 111.199 31.8934C111.199 34.2334 111.999 35.6934 113.339 35.6934C113.919 35.6934 114.779 35.3134 115.639 34.5534ZM127.11 36.7734H125.87L125.73 35.6534C124.81 36.4134 123.87 36.9334 122.61 36.9334C120.91 36.9334 119.73 35.9134 119.73 34.2134C119.73 32.2534 121.13 30.9534 124.69 30.9534H125.53V29.9134C125.53 28.5334 124.87 27.8934 123.29 27.8934C122.25 27.8934 121.23 28.1934 120.49 28.4734L120.23 27.4534C121.15 27.0734 122.31 26.6934 123.73 26.6934C126.17 26.6934 127.11 27.9334 127.11 29.6734V36.7734ZM125.53 34.6134V32.0134H124.59C121.95 32.0134 121.31 32.8734 121.31 34.0334C121.31 35.0934 121.77 35.7734 123.05 35.7734C123.83 35.7734 124.67 35.3734 125.53 34.6134ZM143.393 36.7734H141.813C141.813 34.9734 141.873 32.8534 141.873 31.4734C141.873 28.9334 141.293 27.9734 140.173 27.9734C139.453 27.9734 138.553 28.4334 137.573 29.2934C137.653 29.6934 137.733 30.1534 137.733 31.0534V36.7734H136.153V31.4734C136.153 28.9334 135.593 27.9734 134.473 27.9734C133.753 27.9734 132.873 28.4534 132.033 29.1534V36.7734H130.453V26.8534H131.753L131.893 28.0334C132.813 27.2934 133.833 26.6934 134.933 26.6934C136.193 26.6934 136.913 27.4534 137.273 28.2734C138.293 27.4134 139.413 26.6934 140.633 26.6934C142.273 26.6934 143.453 27.8534 143.453 31.0934C143.453 32.4334 143.393 34.7934 143.393 36.7734ZM161.107 23.2734V31.8134C161.107 35.4334 159.147 36.9334 156.167 36.9334C153.147 36.9334 151.667 35.5134 151.667 32.0734V23.2734H153.327V31.8534C153.327 34.6734 154.267 35.6734 156.427 35.6734C158.307 35.6734 159.467 34.7734 159.467 31.9534V23.2734H161.107ZM172.034 36.7734H170.474C170.474 34.9734 170.514 32.8534 170.514 31.4534C170.514 28.8934 169.854 27.9734 168.694 27.9734C167.894 27.9734 167.014 28.4534 166.174 29.1534V36.7734H164.594V26.8534H165.894L166.034 28.0334C166.954 27.2934 167.994 26.6934 169.114 26.6934C170.954 26.6934 172.094 27.8534 172.094 31.0934C172.094 32.4334 172.034 34.7934 172.034 36.7734ZM177.175 24.0134C177.175 24.7334 177.015 24.9334 176.215 24.9334C175.375 24.9334 175.195 24.7334 175.195 24.0134C175.195 23.2934 175.375 23.0934 176.215 23.0934C177.035 23.0934 177.175 23.2734 177.175 24.0134ZM176.975 36.7734H175.395V26.8534H176.975V36.7734ZM185.676 26.8534H187.356C186.736 29.9934 185.636 33.7334 184.096 36.7734H182.316L179.056 26.8534H180.776L182.956 33.4334L183.396 35.1134H183.416C184.436 32.6734 185.236 29.5534 185.676 26.8534ZM196.515 32.0134H190.555V32.2134C190.555 34.6934 191.515 35.6934 193.295 35.6934C194.195 35.6934 195.175 35.4934 196.195 35.0734L196.495 36.0334C195.495 36.5534 194.255 36.9334 192.915 36.9334C190.515 36.9334 188.915 35.6334 188.915 32.1134C188.915 28.6534 190.415 26.6934 192.975 26.6934C195.315 26.6934 196.735 28.1934 196.515 32.0134ZM190.555 30.9534H194.975V30.8734C194.975 28.9734 194.295 27.8334 192.875 27.8334C191.375 27.8334 190.655 29.1934 190.555 30.9534ZM204.199 26.9134L203.999 28.3934C203.659 28.2734 203.419 28.2534 203.239 28.2534C202.619 28.2534 202.019 28.7334 200.959 30.0334V36.7734H199.379V26.8534H200.679L200.839 28.6534C201.999 27.2134 202.679 26.7134 203.379 26.7134C203.639 26.7134 203.899 26.7734 204.199 26.9134ZM205.355 36.2334L205.555 35.3334C206.495 35.6134 207.215 35.7534 207.955 35.7534C209.415 35.7534 210.075 35.0534 210.075 34.1734C210.075 31.8334 205.395 32.7934 205.395 29.4334C205.395 27.8534 206.675 26.6934 208.635 26.6934C209.415 26.6934 210.175 26.8534 210.995 27.2734L210.755 28.1534C210.095 27.9534 209.475 27.8534 208.895 27.8534C207.655 27.8534 207.035 28.4934 207.035 29.2734C207.035 31.6134 211.755 30.6534 211.755 34.0334C211.755 35.7334 210.395 36.9334 208.195 36.9334C207.115 36.9334 206.215 36.6734 205.355 36.2334ZM216.023 24.0134C216.023 24.7334 215.863 24.9334 215.062 24.9334C214.223 24.9334 214.043 24.7334 214.043 24.0134C214.043 23.2934 214.223 23.0934 215.062 23.0934C215.883 23.0934 216.023 23.2734 216.023 24.0134ZM215.823 36.7734H214.243V26.8534H215.823V36.7734ZM223.743 35.3934L223.943 36.3534C223.143 36.7334 222.363 36.9334 221.703 36.9334C220.023 36.9334 219.423 36.2134 219.423 34.2734V28.0134H217.843V26.8534H219.443C219.603 25.9734 219.743 25.0734 219.863 24.0334H221.003V26.8534H223.683V28.0134H221.003V33.8734C221.003 35.2334 221.223 35.7134 222.183 35.7134C222.543 35.7134 223.003 35.6534 223.743 35.3934ZM231.438 26.8534H233.118C230.698 38.3734 227.838 40.3134 225.738 40.3134C225.358 40.3134 224.918 40.1934 224.518 40.0534V39.0934C224.698 39.1134 225.118 39.1334 225.358 39.1334C226.038 39.1334 226.638 38.9134 227.077 38.5134C227.658 37.9534 227.918 37.4534 227.918 36.7334C227.918 36.2134 227.718 35.2734 227.158 33.6934L224.818 26.8534H226.538L228.438 32.5334C228.998 34.1534 229.078 35.1534 229.058 35.7534H229.098C229.978 33.6534 230.958 29.9534 231.438 26.8534ZM247.881 31.6334C247.881 35.2734 246.121 36.9334 243.461 36.9334C240.961 36.9334 239.481 35.4334 239.481 31.9934C239.481 28.3734 241.221 26.6934 243.881 26.6934C246.381 26.6934 247.881 28.2134 247.881 31.6334ZM246.241 32.0534C246.241 29.0334 245.381 27.9134 243.661 27.9134C242.121 27.9134 241.121 29.0734 241.121 31.5734C241.121 34.6134 241.961 35.7334 243.701 35.7334C245.221 35.7334 246.241 34.5734 246.241 32.0534ZM255.412 23.0134L255.092 23.9534C254.632 23.7534 254.152 23.6134 253.732 23.6134C252.732 23.6134 252.352 24.1534 252.352 25.2534V26.8534H254.532V28.0134H252.352V36.7734H250.772V28.0134H249.172V26.8534H250.772V25.3334C250.772 23.5534 251.552 22.4334 253.292 22.4334C254.132 22.4334 254.912 22.7134 255.412 23.0134ZM83.4284 58.7734H81.6284C81.4284 57.9134 81.1484 56.8134 80.8884 55.8334H75.8084C75.5884 56.7334 75.3484 57.7934 75.1284 58.7734H73.4884C74.5084 54.5134 75.9084 49.6134 77.3884 45.2734H79.4284C81.0484 50.0534 82.3484 54.4334 83.4284 58.7734ZM76.0884 54.5534H80.6084C79.9284 52.1534 79.0884 49.3534 78.2884 46.8734H78.2484C77.5484 49.1734 76.7484 51.9734 76.0884 54.5534ZM87.0334 62.2334H85.4534V48.8534H86.7334L86.8934 49.9734C87.7934 49.2134 88.7534 48.6934 89.7734 48.6934C91.8534 48.6934 93.1334 50.6934 93.1334 53.4334C93.1334 57.2934 91.0334 58.9334 88.3334 58.9334C88.0334 58.9334 87.4934 58.9334 87.0334 58.8734V62.2334ZM87.0334 51.0934V57.4934C87.5134 57.6734 88.0734 57.7534 88.5934 57.7534C90.2334 57.7534 91.4934 56.4934 91.4934 53.7534C91.4934 51.4934 90.6934 49.9534 89.3534 49.9534C88.7734 49.9534 87.8934 50.3134 87.0334 51.0934ZM97.4045 62.2334H95.8245V48.8534H97.1045L97.2645 49.9734C98.1645 49.2134 99.1245 48.6934 100.145 48.6934C102.225 48.6934 103.505 50.6934 103.505 53.4334C103.505 57.2934 101.405 58.9334 98.7045 58.9334C98.4045 58.9334 97.8645 58.9334 97.4045 58.8734V62.2334ZM97.4045 51.0934V57.4934C97.8845 57.6734 98.4445 57.7534 98.9645 57.7534C100.605 57.7534 101.865 56.4934 101.865 53.7534C101.865 51.4934 101.065 49.9534 99.7245 49.9534C99.1445 49.9534 98.2645 50.3134 97.4045 51.0934ZM109.156 57.7134L109.236 58.7134C108.876 58.8334 108.336 58.9134 107.876 58.9134C106.716 58.9134 106.196 58.5734 106.196 56.9534V44.5934H107.776V56.3334C107.776 57.5334 107.916 57.7534 108.556 57.7534C108.736 57.7534 108.996 57.7334 109.156 57.7134ZM113.288 46.0134C113.288 46.7334 113.128 46.9334 112.328 46.9334C111.488 46.9334 111.308 46.7334 111.308 46.0134C111.308 45.2934 111.488 45.0934 112.328 45.0934C113.148 45.0934 113.288 45.2734 113.288 46.0134ZM113.088 58.7734H111.508V48.8534H113.088V58.7734ZM123.409 54.0134H117.449V54.2134C117.449 56.6934 118.409 57.6934 120.189 57.6934C121.089 57.6934 122.069 57.4934 123.089 57.0734L123.389 58.0334C122.389 58.5534 121.149 58.9334 119.809 58.9334C117.409 58.9334 115.809 57.6334 115.809 54.1134C115.809 50.6534 117.309 48.6934 119.869 48.6934C122.209 48.6934 123.629 50.1934 123.409 54.0134ZM117.449 52.9534H121.869V52.8734C121.869 50.9734 121.189 49.8334 119.769 49.8334C118.269 49.8334 117.549 51.1934 117.449 52.9534ZM133.274 58.7734H131.994L131.834 57.6734C130.954 58.3934 129.994 58.9334 128.914 58.9334C126.914 58.9334 125.614 56.9734 125.614 54.1934C125.614 50.2134 127.814 48.6934 130.314 48.6934C130.774 48.6934 131.354 48.7534 131.694 48.7734V44.5934H133.274V58.7734ZM131.694 56.5534V50.1334C131.194 49.9734 130.634 49.8734 130.114 49.8734C128.474 49.8734 127.254 51.1534 127.254 53.8934C127.254 56.2334 128.054 57.6934 129.394 57.6934C129.974 57.6934 130.834 57.3134 131.694 56.5534ZM148.91 55.1134C148.91 57.3334 147.21 58.9334 144.53 58.9334C143.09 58.9334 141.87 58.4734 140.79 57.8134L141.21 56.8934C142.13 57.2934 143.35 57.6534 144.27 57.6534C145.97 57.6534 147.09 56.8334 147.09 55.3134C147.09 52.0734 140.87 52.8534 140.87 48.6134C140.87 46.5334 142.51 45.1134 144.85 45.1134C146.05 45.1134 147.17 45.4534 148.09 46.0334L147.67 46.9534C146.93 46.6334 146.01 46.3734 145.09 46.3734C143.39 46.3734 142.61 47.2734 142.61 48.3934C142.61 51.6534 148.91 50.8934 148.91 55.1134ZM157.091 56.6534L157.671 57.4734C156.871 58.3334 155.871 58.9334 154.451 58.9334C152.051 58.9334 150.711 57.2734 150.711 53.9534C150.711 50.7334 152.271 48.6934 154.571 48.6934C155.771 48.6934 156.731 49.1534 157.411 49.9134L156.791 50.7334C156.131 50.1734 155.531 49.9134 154.771 49.9134C153.251 49.9134 152.371 51.3334 152.371 53.7334C152.371 56.3534 153.151 57.6934 154.791 57.6934C155.571 57.6934 156.291 57.3934 157.091 56.6534ZM161.687 46.0134C161.687 46.7334 161.527 46.9334 160.727 46.9334C159.887 46.9334 159.707 46.7334 159.707 46.0134C159.707 45.2934 159.887 45.0934 160.727 45.0934C161.547 45.0934 161.687 45.2734 161.687 46.0134ZM161.487 58.7734H159.907V48.8534H161.487V58.7734ZM171.808 54.0134H165.848V54.2134C165.848 56.6934 166.808 57.6934 168.588 57.6934C169.488 57.6934 170.468 57.4934 171.488 57.0734L171.788 58.0334C170.788 58.5534 169.548 58.9334 168.208 58.9334C165.808 58.9334 164.208 57.6334 164.208 54.1134C164.208 50.6534 165.708 48.6934 168.268 48.6934C170.608 48.6934 172.028 50.1934 171.808 54.0134ZM165.848 52.9534H170.268V52.8734C170.268 50.9734 169.588 49.8334 168.168 49.8334C166.668 49.8334 165.948 51.1934 165.848 52.9534ZM182.112 58.7734H180.552C180.552 56.9734 180.592 54.8534 180.592 53.4534C180.592 50.8934 179.932 49.9734 178.772 49.9734C177.972 49.9734 177.092 50.4534 176.252 51.1534V58.7734H174.672V48.8534H175.972L176.112 50.0334C177.032 49.2934 178.072 48.6934 179.192 48.6934C181.032 48.6934 182.172 49.8534 182.172 53.0934C182.172 54.4334 182.112 56.7934 182.112 58.7734ZM191.193 56.6534L191.773 57.4734C190.973 58.3334 189.973 58.9334 188.553 58.9334C186.153 58.9334 184.813 57.2734 184.813 53.9534C184.813 50.7334 186.373 48.6934 188.673 48.6934C189.873 48.6934 190.833 49.1534 191.513 49.9134L190.893 50.7334C190.233 50.1734 189.633 49.9134 188.873 49.9134C187.353 49.9134 186.473 51.3334 186.473 53.7334C186.473 56.3534 187.253 57.6934 188.893 57.6934C189.673 57.6934 190.393 57.3934 191.193 56.6534ZM200.948 54.0134H194.988V54.2134C194.988 56.6934 195.948 57.6934 197.728 57.6934C198.628 57.6934 199.608 57.4934 200.628 57.0734L200.928 58.0334C199.928 58.5534 198.688 58.9334 197.348 58.9334C194.948 58.9334 193.348 57.6334 193.348 54.1134C193.348 50.6534 194.848 48.6934 197.408 48.6934C199.748 48.6934 201.168 50.1934 200.948 54.0134ZM194.988 52.9534H199.408V52.8734C199.408 50.9734 198.728 49.8334 197.308 49.8334C195.808 49.8334 195.088 51.1934 194.988 52.9534ZM202.953 58.2334L203.153 57.3334C204.093 57.6134 204.813 57.7534 205.553 57.7534C207.013 57.7534 207.673 57.0534 207.673 56.1734C207.673 53.8334 202.993 54.7934 202.993 51.4334C202.993 49.8534 204.273 48.6934 206.233 48.6934C207.013 48.6934 207.773 48.8534 208.593 49.2734L208.353 50.1534C207.693 49.9534 207.073 49.8534 206.493 49.8534C205.253 49.8534 204.633 50.4934 204.633 51.2734C204.633 53.6134 209.353 52.6534 209.353 56.0334C209.353 57.7334 207.993 58.9334 205.793 58.9334C204.713 58.9334 203.813 58.6734 202.953 58.2334Z" fill="white"/>
<path d="M29.8881 0H0V59.7761H29.7459C34.9958 59.8009 40.2074 58.4422 44.8321 55.7721C51.6969 51.8087 56.7061 45.2806 58.7577 37.6239C60.8093 29.9672 59.7353 21.8091 55.7719 14.9443C51.8085 8.07947 45.2804 3.07028 37.6236 1.01867L29.8881 29.8883L29.8881 0Z" fill="white"/>
</svg>
