<svg width="283" height="63" viewBox="0 0 283 63" fill="none" xmlns="http://www.w3.org/2000/svg">
<path d="M77.3284 35.7734V22.2734H74.6284V35.7734H77.3284ZM88.4325 35.7734C88.4325 33.5734 88.5125 31.3134 88.5125 30.0734C88.5125 26.8134 87.4525 25.5334 85.4125 25.5334C84.2925 25.5334 83.2725 26.0734 82.4125 26.8134L82.2325 25.7534H80.1125V35.7734H82.6925V28.4134C83.3525 27.9134 84.0125 27.5934 84.5925 27.5934C85.4725 27.5934 85.9325 28.1334 85.9325 30.5134C85.9325 31.6934 85.8725 33.7534 85.8725 35.7734H88.4325ZM96.0905 33.8334C95.4505 34.0134 95.0305 34.0534 94.7105 34.0534C94.0505 34.0534 93.8105 33.7334 93.8105 32.7134V27.5534H96.0305V25.7534H93.8105V22.8334H91.9305C91.7505 23.9534 91.5705 24.8534 91.3305 25.7534H89.9705V27.5534H91.2305V33.3534C91.2305 35.2734 91.9305 35.9734 93.7705 35.9734C94.5305 35.9734 95.3505 35.7934 96.2905 35.3134L96.0905 33.8334ZM105.964 31.2734C106.244 26.9734 104.544 25.5334 101.964 25.5334C99.1636 25.5334 97.4236 27.4534 97.4236 31.0334C97.4236 34.6934 99.1636 35.9934 101.784 35.9934C103.264 35.9934 104.704 35.5734 105.924 34.9334L105.544 33.4534C104.384 33.8334 103.204 34.0334 102.304 34.0334C100.864 34.0334 100.064 33.2534 100.064 31.4134V31.2734H105.964ZM100.084 29.6734C100.144 28.2334 100.744 27.2534 101.864 27.2534C102.944 27.2534 103.484 28.0334 103.484 29.6334V29.6734H100.084ZM113.879 25.7734C113.539 25.6134 113.199 25.5534 112.899 25.5534C112.179 25.5534 111.499 25.9934 110.479 27.3334L110.279 25.7534H108.159V35.7734H110.739V29.4134C111.639 28.2734 112.119 27.8934 112.679 27.8934C112.879 27.8934 113.139 27.9134 113.559 28.0334L113.879 25.7734ZM122.771 35.7734V28.6534C122.771 26.7534 121.571 25.5334 119.011 25.5334C117.511 25.5334 116.171 25.9134 114.991 26.4334L115.331 27.9934C116.231 27.6734 117.331 27.3934 118.371 27.3934C119.651 27.3934 120.231 27.8934 120.231 28.9134V29.6734H119.591C115.971 29.6734 114.451 30.9534 114.451 33.0334C114.451 34.8734 115.711 35.9934 117.551 35.9934C118.811 35.9934 119.751 35.4934 120.611 34.7534L120.791 35.7734H122.771ZM120.231 33.2934C119.611 33.8534 118.931 34.1734 118.331 34.1734C117.371 34.1734 116.971 33.6534 116.971 32.8134C116.971 31.8734 117.531 31.2534 119.471 31.2534H120.231V33.2934ZM131.406 33.1934C130.666 33.7934 130.046 34.0334 129.366 34.0334C128.106 34.0334 127.486 33.0534 127.486 30.6734C127.486 28.5334 128.226 27.4534 129.386 27.4534C129.986 27.4534 130.526 27.6534 131.086 28.1134L131.986 26.7934C131.286 25.9934 130.266 25.5334 128.986 25.5334C126.406 25.5334 124.806 27.7334 124.806 30.8934C124.806 34.2934 126.166 35.9734 128.806 35.9734C130.326 35.9734 131.426 35.3134 132.206 34.5134L131.406 33.1934ZM138.766 33.8334C138.126 34.0134 137.706 34.0534 137.386 34.0534C136.726 34.0534 136.486 33.7334 136.486 32.7134V27.5534H138.706V25.7534H136.486V22.8334H134.606C134.426 23.9534 134.246 24.8534 134.006 25.7534H132.646V27.5534H133.906V33.3534C133.906 35.2734 134.606 35.9734 136.446 35.9734C137.206 35.9734 138.026 35.7934 138.966 35.3134L138.766 33.8334ZM143.479 23.1134C143.479 22.0734 143.199 21.7734 141.959 21.7734C140.739 21.7734 140.419 22.1134 140.419 23.1134C140.419 24.1334 140.719 24.4534 141.959 24.4534C143.179 24.4534 143.479 24.1134 143.479 23.1134ZM143.239 35.7734V25.7534H140.659V35.7734H143.239ZM154.555 30.5734C154.555 26.9734 152.955 25.5334 150.115 25.5334C147.135 25.5334 145.275 27.2534 145.275 30.9534C145.275 34.5534 146.875 35.9934 149.715 35.9934C152.695 35.9934 154.555 34.2534 154.555 30.5734ZM151.915 30.9934C151.915 33.2734 151.095 34.0934 149.935 34.0934C148.655 34.0934 147.935 33.3534 147.935 30.5334C147.935 28.2534 148.735 27.4334 149.915 27.4334C151.175 27.4334 151.915 28.1734 151.915 30.9934ZM164.917 35.7734C164.917 33.5734 164.997 31.3134 164.997 30.0734C164.997 26.8134 163.937 25.5334 161.897 25.5334C160.777 25.5334 159.757 26.0734 158.897 26.8134L158.717 25.7534H156.597V35.7734H159.177V28.4134C159.837 27.9134 160.497 27.5934 161.077 27.5934C161.957 27.5934 162.417 28.1334 162.417 30.5134C162.417 31.6934 162.357 33.7534 162.357 35.7734H164.917ZM172.5 35.7734C173.52 35.7934 174.64 35.8334 175.78 35.8334C180.12 35.8334 182.12 33.2134 182.12 28.6534C182.12 24.9734 180.58 22.2334 176.26 22.2334C175.06 22.2334 173.86 22.2734 172.5 22.2734V35.7734ZM175.2 24.2734C175.5 24.2534 175.82 24.2534 176.12 24.2534C178.34 24.2534 179.28 25.8934 179.28 28.9534C179.28 32.0734 178.28 33.7734 176.14 33.7734C175.84 33.7734 175.52 33.7534 175.2 33.7334V24.2734ZM192.214 31.2734C192.494 26.9734 190.794 25.5334 188.214 25.5334C185.414 25.5334 183.674 27.4534 183.674 31.0334C183.674 34.6934 185.414 35.9934 188.034 35.9934C189.514 35.9934 190.954 35.5734 192.174 34.9334L191.794 33.4534C190.634 33.8334 189.454 34.0334 188.554 34.0334C187.114 34.0334 186.314 33.2534 186.314 31.4134V31.2734H192.214ZM186.334 29.6734C186.394 28.2334 186.994 27.2534 188.114 27.2534C189.194 27.2534 189.734 28.0334 189.734 29.6334V29.6734H186.334ZM193.669 35.1534C194.709 35.6934 195.689 35.9734 196.829 35.9734C199.369 35.9734 200.869 34.6534 200.869 32.8134C200.869 29.3334 196.409 30.1534 196.409 28.3334C196.409 27.7734 196.869 27.2934 197.909 27.2934C198.469 27.2934 199.049 27.3934 199.889 27.5934L200.169 26.2734C199.129 25.7334 198.269 25.5334 197.369 25.5334C195.169 25.5334 193.709 26.7534 193.709 28.5334C193.709 31.9934 198.149 31.1934 198.149 33.0134C198.149 33.6534 197.649 34.1534 196.369 34.1534C195.709 34.1534 194.989 34.0734 193.889 33.8134L193.669 35.1534ZM205.55 23.1134C205.55 22.0734 205.27 21.7734 204.03 21.7734C202.81 21.7734 202.49 22.1134 202.49 23.1134C202.49 24.1334 202.79 24.4534 204.03 24.4534C205.25 24.4534 205.55 24.1134 205.55 23.1134ZM205.31 35.7734V25.7534H202.73V35.7734H205.31ZM215.985 25.9534C215.025 25.7334 213.685 25.5334 212.525 25.5334C209.545 25.5334 207.345 27.1934 207.345 30.9534C207.345 33.5134 208.565 35.6334 210.865 35.6334C211.845 35.6334 212.705 35.1534 213.405 34.6334V35.8134C213.405 37.0934 212.785 37.5134 211.425 37.5134C210.525 37.5134 209.425 37.3534 208.345 37.1734L208.145 38.6134C209.465 39.1534 210.645 39.4134 211.705 39.4134C214.065 39.4134 215.985 38.6134 215.985 35.3934V25.9534ZM213.405 32.8734C212.865 33.3334 212.165 33.7134 211.645 33.7134C210.625 33.7134 209.985 32.6334 209.985 30.5734C209.985 28.4734 210.885 27.3734 212.165 27.3734C212.585 27.3734 213.045 27.4534 213.405 27.5734V32.8734ZM226.909 35.7734C226.909 33.5734 226.989 31.3134 226.989 30.0734C226.989 26.8134 225.929 25.5334 223.889 25.5334C222.769 25.5334 221.749 26.0734 220.889 26.8134L220.709 25.7534H218.589V35.7734H221.169V28.4134C221.829 27.9134 222.489 27.5934 223.069 27.5934C223.949 27.5934 224.409 28.1334 224.409 30.5134C224.409 31.6934 224.349 33.7534 224.349 35.7734H226.909ZM241.112 35.7734V33.6734H237.192V22.2734H234.492V35.7734H241.112ZM250.447 35.7734V28.6534C250.447 26.7534 249.247 25.5334 246.687 25.5334C245.187 25.5334 243.847 25.9134 242.667 26.4334L243.007 27.9934C243.907 27.6734 245.007 27.3934 246.047 27.3934C247.327 27.3934 247.907 27.8934 247.907 28.9134V29.6734H247.267C243.647 29.6734 242.127 30.9534 242.127 33.0334C242.127 34.8734 243.387 35.9934 245.227 35.9934C246.487 35.9934 247.427 35.4934 248.287 34.7534L248.467 35.7734H250.447ZM247.907 33.2934C247.287 33.8534 246.607 34.1734 246.007 34.1734C245.047 34.1734 244.647 33.6534 244.647 32.8134C244.647 31.8734 245.207 31.2534 247.147 31.2534H247.907V33.2934ZM253.042 35.5934C254.002 35.8134 255.182 35.9934 256.422 35.9934C259.562 35.9934 261.682 34.3534 261.682 30.3734C261.682 27.7134 260.502 25.5334 258.122 25.5334C257.182 25.5334 256.322 25.9734 255.622 26.5534V21.5934H253.042V35.5934ZM255.622 28.3534C256.262 27.7934 256.942 27.5134 257.402 27.5134C258.422 27.5134 259.042 28.6534 259.042 30.7334C259.042 33.0934 258.102 34.1534 256.802 34.1534C256.302 34.1534 255.902 34.0734 255.622 33.9734V28.3534ZM81.2684 45.5734V44.2734H74.9884V57.7734H76.6484V51.5734H80.8684V50.2934H76.6484V45.5734H81.2684ZM89.9422 57.7734V50.6734C89.9422 48.9334 89.0022 47.6934 86.5622 47.6934C85.1422 47.6934 83.9822 48.0734 83.0622 48.4534L83.3222 49.4734C84.0622 49.1934 85.0822 48.8934 86.1222 48.8934C87.7022 48.8934 88.3622 49.5334 88.3622 50.9134V51.9534H87.5222C83.9622 51.9534 82.5622 53.2534 82.5622 55.2134C82.5622 56.9134 83.7422 57.9334 85.4422 57.9334C86.7022 57.9334 87.6422 57.4134 88.5622 56.6534L88.7022 57.7734H89.9422ZM88.3622 55.6134C87.5022 56.3734 86.6622 56.7734 85.8822 56.7734C84.6022 56.7734 84.1422 56.0934 84.1422 55.0334C84.1422 53.8734 84.7822 53.0134 87.4222 53.0134H88.3622V55.6134ZM99.0055 55.6534C98.2055 56.3934 97.4855 56.6934 96.7055 56.6934C95.0655 56.6934 94.2855 55.3534 94.2855 52.7334C94.2855 50.3334 95.1655 48.9134 96.6855 48.9134C97.4455 48.9134 98.0455 49.1734 98.7055 49.7334L99.3255 48.9134C98.6455 48.1534 97.6855 47.6934 96.4855 47.6934C94.1855 47.6934 92.6255 49.7334 92.6255 52.9534C92.6255 56.2734 93.9655 57.9334 96.3655 57.9334C97.7855 57.9334 98.7855 57.3334 99.5855 56.4734L99.0055 55.6534ZM109.261 57.7734C109.261 55.7134 109.321 53.2934 109.321 52.0934C109.321 48.8334 108.161 47.6934 106.341 47.6934C105.261 47.6934 104.261 48.2734 103.401 48.9334V43.5934H101.821V57.7734H103.401V50.1534C104.241 49.4534 105.121 48.9734 105.921 48.9734C107.081 48.9734 107.741 49.8934 107.741 52.4534C107.741 53.6934 107.701 55.8934 107.701 57.7734H109.261ZM120.061 57.7734C120.061 55.7134 120.121 53.2934 120.121 52.0934C120.121 48.8334 118.961 47.6934 117.141 47.6934C116.061 47.6934 115.061 48.2734 114.201 48.9334V43.5934H112.621V57.7734H114.201V50.1534C115.041 49.4534 115.921 48.9734 116.721 48.9734C117.881 48.9734 118.541 49.8934 118.541 52.4534C118.541 53.6934 118.501 55.8934 118.501 57.7734H120.061ZM131.162 52.6334C131.162 49.2134 129.662 47.6934 127.162 47.6934C124.502 47.6934 122.762 49.3734 122.762 52.9934C122.762 56.4334 124.242 57.9334 126.742 57.9334C129.402 57.9334 131.162 56.2734 131.162 52.6334ZM129.522 53.0534C129.522 55.5734 128.502 56.7334 126.982 56.7334C125.242 56.7334 124.402 55.6134 124.402 52.5734C124.402 50.0734 125.402 48.9134 126.942 48.9134C128.662 48.9134 129.522 50.0334 129.522 53.0534ZM139.591 55.6534C138.791 56.3934 138.071 56.6934 137.291 56.6934C135.651 56.6934 134.871 55.3534 134.871 52.7334C134.871 50.3334 135.751 48.9134 137.271 48.9134C138.031 48.9134 138.631 49.1734 139.291 49.7334L139.911 48.9134C139.231 48.1534 138.271 47.6934 137.071 47.6934C134.771 47.6934 133.211 49.7334 133.211 52.9534C133.211 56.2734 134.551 57.9334 136.951 57.9334C138.371 57.9334 139.371 57.3334 140.171 56.4734L139.591 55.6534ZM149.847 57.7734C149.847 55.7134 149.907 53.2934 149.907 52.0934C149.907 48.8334 148.747 47.6934 146.927 47.6934C145.847 47.6934 144.847 48.2734 143.987 48.9334V43.5934H142.407V57.7734H143.987V50.1534C144.827 49.4534 145.707 48.9734 146.507 48.9734C147.667 48.9734 148.327 49.8934 148.327 52.4534C148.327 53.6934 148.287 55.8934 148.287 57.7734H149.847ZM152.347 57.2334C153.207 57.6734 154.107 57.9334 155.187 57.9334C157.387 57.9334 158.747 56.7334 158.747 55.0334C158.747 51.6534 154.027 52.6134 154.027 50.2734C154.027 49.4934 154.647 48.8534 155.887 48.8534C156.467 48.8534 157.087 48.9534 157.747 49.1534L157.987 48.2734C157.167 47.8534 156.407 47.6934 155.627 47.6934C153.667 47.6934 152.387 48.8534 152.387 50.4334C152.387 53.7934 157.067 52.8334 157.067 55.1734C157.067 56.0534 156.407 56.7534 154.947 56.7534C154.207 56.7534 153.487 56.6134 152.547 56.3334L152.347 57.2334ZM166.955 55.6534C166.155 56.3934 165.435 56.6934 164.655 56.6934C163.015 56.6934 162.235 55.3534 162.235 52.7334C162.235 50.3334 163.115 48.9134 164.635 48.9134C165.395 48.9134 165.995 49.1734 166.655 49.7334L167.275 48.9134C166.595 48.1534 165.635 47.6934 164.435 47.6934C162.135 47.6934 160.575 49.7334 160.575 52.9534C160.575 56.2734 161.915 57.9334 164.315 57.9334C165.735 57.9334 166.735 57.3334 167.535 56.4734L166.955 55.6534ZM177.21 57.7734C177.21 55.7134 177.27 53.2934 177.27 52.0934C177.27 48.8334 176.11 47.6934 174.29 47.6934C173.21 47.6934 172.21 48.2734 171.35 48.9334V43.5934H169.77V57.7734H171.35V50.1534C172.19 49.4534 173.07 48.9734 173.87 48.9734C175.03 48.9734 175.69 49.8934 175.69 52.4534C175.69 53.6934 175.65 55.8934 175.65 57.7734H177.21ZM187.873 57.7734V47.8534H186.293V55.4934C185.473 56.1734 184.593 56.6534 183.793 56.6534C182.593 56.6534 181.973 55.6934 181.973 53.1734C181.973 51.7734 182.013 49.6534 182.013 47.8534H180.453C180.453 49.8334 180.373 52.1934 180.373 53.5334C180.373 56.7734 181.573 57.9334 183.353 57.9334C184.473 57.9334 185.513 57.3334 186.433 56.6134L186.573 57.7734H187.873ZM194.214 56.7134C194.054 56.7334 193.794 56.7534 193.614 56.7534C192.974 56.7534 192.834 56.5334 192.834 55.3334V43.5934H191.254V55.9534C191.254 57.5734 191.774 57.9134 192.934 57.9134C193.394 57.9134 193.934 57.8334 194.294 57.7134L194.214 56.7134ZM203.507 53.0134C203.727 49.1934 202.307 47.6934 199.967 47.6934C197.407 47.6934 195.907 49.6534 195.907 53.1134C195.907 56.6334 197.507 57.9334 199.907 57.9334C201.247 57.9334 202.487 57.5534 203.487 57.0334L203.187 56.0734C202.167 56.4934 201.187 56.6934 200.287 56.6934C198.507 56.6934 197.547 55.6934 197.547 53.2134V53.0134H203.507ZM197.547 51.9534C197.647 50.1934 198.367 48.8334 199.867 48.8334C201.287 48.8334 201.967 49.9734 201.967 51.8734V51.9534H197.547ZM212.996 57.7734V52.7934H213.776C217.736 52.7934 219.236 50.7934 219.236 48.2934C219.236 45.8934 217.996 44.2534 214.356 44.2534C213.016 44.2534 212.216 44.2734 211.336 44.2734V57.7734H212.996ZM212.996 45.5134H214.116C216.596 45.5134 217.476 46.6134 217.476 48.4934C217.476 50.3334 216.436 51.5134 214.096 51.5134H212.996V45.5134ZM229.033 52.6334C229.033 49.2134 227.533 47.6934 225.033 47.6934C222.373 47.6934 220.633 49.3734 220.633 52.9934C220.633 56.4334 222.113 57.9334 224.613 57.9334C227.273 57.9334 229.033 56.2734 229.033 52.6334ZM227.393 53.0534C227.393 55.5734 226.373 56.7334 224.853 56.7334C223.113 56.7334 222.273 55.6134 222.273 52.5734C222.273 50.0734 223.273 48.9134 224.813 48.9134C226.533 48.9134 227.393 50.0334 227.393 53.0534ZM236.146 56.3934C235.406 56.6534 234.946 56.7134 234.586 56.7134C233.626 56.7134 233.406 56.2334 233.406 54.8734V49.0134H236.086V47.8534H233.406V45.0334H232.266C232.146 46.0734 232.006 46.9734 231.846 47.8534H230.246V49.0134H231.826V55.2734C231.826 57.2134 232.426 57.9334 234.106 57.9334C234.766 57.9334 235.546 57.7334 236.346 57.3534L236.146 56.3934ZM237.679 57.2334C238.539 57.6734 239.439 57.9334 240.519 57.9334C242.719 57.9334 244.079 56.7334 244.079 55.0334C244.079 51.6534 239.359 52.6134 239.359 50.2734C239.359 49.4934 239.979 48.8534 241.219 48.8534C241.799 48.8534 242.419 48.9534 243.079 49.1534L243.319 48.2734C242.499 47.8534 241.739 47.6934 240.959 47.6934C238.999 47.6934 237.719 48.8534 237.719 50.4334C237.719 53.7934 242.399 52.8334 242.399 55.1734C242.399 56.0534 241.739 56.7534 240.279 56.7534C239.539 56.7534 238.819 56.6134 237.879 56.3334L237.679 57.2334ZM253.567 57.7734V43.5934H251.987V47.7734C251.647 47.7534 251.067 47.6934 250.607 47.6934C248.107 47.6934 245.907 49.2134 245.907 53.1934C245.907 55.9734 247.207 57.9334 249.207 57.9334C250.287 57.9334 251.247 57.3934 252.127 56.6734L252.287 57.7734H253.567ZM251.987 55.5534C251.127 56.3134 250.267 56.6934 249.687 56.6934C248.347 56.6934 247.547 55.2334 247.547 52.8934C247.547 50.1534 248.767 48.8734 250.407 48.8734C250.927 48.8734 251.487 48.9734 251.987 49.1334V55.5534ZM263.458 57.7734V50.6734C263.458 48.9334 262.518 47.6934 260.078 47.6934C258.658 47.6934 257.498 48.0734 256.578 48.4534L256.838 49.4734C257.578 49.1934 258.598 48.8934 259.638 48.8934C261.218 48.8934 261.878 49.5334 261.878 50.9134V51.9534H261.038C257.478 51.9534 256.078 53.2534 256.078 55.2134C256.078 56.9134 257.258 57.9334 258.958 57.9334C260.218 57.9334 261.158 57.4134 262.078 56.6534L262.218 57.7734H263.458ZM261.878 55.6134C261.018 56.3734 260.178 56.7734 259.398 56.7734C258.118 56.7734 257.658 56.0934 257.658 55.0334C257.658 53.8734 258.298 53.0134 260.938 53.0134H261.878V55.6134ZM279.741 57.7734C279.741 55.7934 279.801 53.4334 279.801 52.0934C279.801 48.8534 278.621 47.6934 276.981 47.6934C275.761 47.6934 274.641 48.4134 273.621 49.2734C273.261 48.4534 272.541 47.6934 271.281 47.6934C270.181 47.6934 269.161 48.2934 268.241 49.0334L268.101 47.8534H266.801V57.7734H268.381V50.1534C269.221 49.4534 270.101 48.9734 270.821 48.9734C271.941 48.9734 272.501 49.9334 272.501 52.4734V57.7734H274.081V52.0534C274.081 51.1534 274.001 50.6934 273.921 50.2934C274.901 49.4334 275.801 48.9734 276.521 48.9734C277.641 48.9734 278.221 49.9334 278.221 52.4734C278.221 53.8534 278.161 55.9734 278.161 57.7734H279.741Z" fill="white"/>
<path d="M29.8881 0H0V59.7761H29.7459C34.9958 59.8009 40.2074 58.4422 44.8321 55.7721C51.6969 51.8087 56.7061 45.2806 58.7577 37.6239C60.8093 29.9672 59.7353 21.8091 55.7719 14.9443C51.8085 8.07947 45.2804 3.07028 37.6236 1.01867L29.8881 29.8883L29.8881 0Z" fill="white"/>
</svg>
