<svg width="218" height="40" viewBox="0 0 218 40" fill="none" xmlns="http://www.w3.org/2000/svg">
<path d="M64.5925 29.1196C64.5925 33.1966 63.6605 36.2446 59.9735 39.1326L55.9745 35.7476C58.0735 33.7796 58.7405 32.2566 58.7935 29.8466L55.5935 29.8486V20.7586H64.5925V29.1196Z" fill="#231F20"/>
<path d="M64.5833 14.709H55.6503V5.61899H64.5833V14.709Z" fill="#231F20"/>
<path d="M0 29.8502V1.10216H21.622V7.94216H8.673V12.9892H20.645V19.8312H8.673V29.8502H0Z" fill="#231F20"/>
<path d="M41.7731 29.8487V18.6107H33.3851V29.8487H24.5081V1.10169H33.3851V11.1997H41.7731V1.10169H50.6901V29.8487H41.7731Z" fill="#231F20"/>
<path d="M81.8345 14.1317C83.5445 14.1317 84.8065 13.8867 85.4985 13.3177C86.1495 12.7877 86.3945 11.9737 86.3945 11.0367C86.3945 10.1407 86.1495 9.32669 85.4985 8.75669C84.8475 8.14569 83.7885 7.94269 81.9555 7.94269H78.4135V14.1317H81.8345ZM69.6595 29.8487V1.10169H81.9555C87.6165 1.10169 90.0585 1.71169 91.7685 2.85269C94.2935 4.52169 95.5155 7.24969 95.5155 10.8327C95.5155 14.1317 94.2125 17.0227 91.8915 18.7327C89.8965 20.1577 87.2905 20.8507 82.8115 20.8507H78.4535V29.8487H69.6595Z" fill="#231F20"/>
<path d="M110.93 2.12706V3.98606H112.819V4.99506H110.93V7.84406H109.58V1.09805H113.029V2.12706H110.93Z" fill="#231F20"/>
<path d="M116.491 5.5851H116.111C115.141 5.5851 114.861 5.9051 114.861 6.3751C114.861 6.7841 115.092 7.0341 115.531 7.0341C115.841 7.0341 116.18 6.8751 116.491 6.6051V5.5851ZM116.77 7.8441L116.68 7.3341C116.251 7.7041 115.791 7.9541 115.151 7.9541C114.141 7.9541 113.602 7.4541 113.602 6.5241C113.602 5.4851 114.431 4.7961 116.18 4.7961H116.491V4.4161C116.491 3.9061 116.201 3.6561 115.561 3.6561C115.042 3.6561 114.492 3.7961 114.042 3.9561L113.872 3.1771C114.462 2.9171 115.132 2.7271 115.881 2.7271C117.16 2.7271 117.759 3.3371 117.759 4.2861V7.8441H116.77Z" fill="#231F20"/>
<path d="M120.93 7.9444C119.611 7.9444 118.931 7.1044 118.931 5.4054C118.931 3.8264 119.741 2.7264 121.02 2.7264C121.66 2.7264 122.169 2.9574 122.519 3.3564L122.069 4.0154C121.839 3.8064 121.559 3.6864 121.219 3.6864C120.64 3.6864 120.27 4.2254 120.27 5.2754C120.27 6.4954 120.6 6.9744 121.179 6.9744C121.579 6.9744 121.91 6.8444 122.239 6.5544L122.628 7.2144C122.239 7.6144 121.689 7.9444 120.93 7.9444Z" fill="#231F20"/>
<path d="M127.638 7.84387H126.359C126.359 6.82387 126.388 5.78487 126.388 5.22587C126.388 4.02687 126.149 3.75587 125.689 3.75587C125.439 3.75587 125.109 3.90587 124.769 4.16587V7.84387H123.48V0.757872H124.769V3.26687C125.12 2.96687 125.589 2.72687 126.139 2.72687C127.138 2.72687 127.678 3.34687 127.678 4.99487C127.678 5.59587 127.638 6.73487 127.638 7.84387Z" fill="#231F20"/>
<path d="M133.247 7.84387H131.968C131.968 6.82387 131.997 5.78487 131.997 5.22587C131.997 4.02687 131.758 3.75587 131.298 3.75587C131.048 3.75587 130.718 3.90587 130.378 4.16587V7.84387H129.089V0.757872H130.378V3.26687C130.728 2.96687 131.198 2.72687 131.748 2.72687C132.747 2.72687 133.287 3.34687 133.287 4.99487C133.287 5.59587 133.247 6.73487 133.247 7.84387Z" fill="#231F20"/>
<path d="M136.739 3.67686C136.149 3.67686 135.74 4.08586 135.74 5.22586C135.74 6.63486 136.109 7.00486 136.749 7.00486C137.329 7.00486 137.738 6.59486 137.738 5.45486C137.738 4.04586 137.369 3.67686 136.739 3.67686ZM136.639 7.95386C135.219 7.95386 134.421 7.23486 134.421 5.43586C134.421 3.58586 135.349 2.72686 136.839 2.72686C138.259 2.72686 139.057 3.44686 139.057 5.24486C139.057 7.08386 138.129 7.95386 136.639 7.95386Z" fill="#231F20"/>
<path d="M141.949 7.9444C140.63 7.9444 139.95 7.1044 139.95 5.4054C139.95 3.8264 140.76 2.7264 142.039 2.7264C142.679 2.7264 143.188 2.9574 143.538 3.3564L143.088 4.0154C142.858 3.8064 142.578 3.6864 142.238 3.6864C141.659 3.6864 141.289 4.2254 141.289 5.2754C141.289 6.4954 141.619 6.9744 142.198 6.9744C142.599 6.9744 142.929 6.8444 143.258 6.5544L143.647 7.2144C143.258 7.6144 142.708 7.9444 141.949 7.9444Z" fill="#231F20"/>
<path d="M148.658 7.84387H147.379C147.379 6.82387 147.408 5.78487 147.408 5.22587C147.408 4.02687 147.169 3.75587 146.709 3.75587C146.459 3.75587 146.129 3.90587 145.789 4.16587V7.84387H144.5V0.757872H145.789V3.26687C146.139 2.96687 146.609 2.72687 147.159 2.72687C148.158 2.72687 148.698 3.34687 148.698 4.99487C148.698 5.59587 148.658 6.73487 148.658 7.84387Z" fill="#231F20"/>
<path d="M151.299 7.9444C150.739 7.9444 150.23 7.8034 149.74 7.5344L149.85 6.8644C150.42 6.9944 150.759 7.0344 151.069 7.0344C151.729 7.0344 151.979 6.7844 151.979 6.4844C151.979 6.1554 151.818 5.9854 151.089 5.7254C150.13 5.3854 149.76 4.9754 149.76 4.2464C149.76 3.3374 150.489 2.7264 151.589 2.7264C152.038 2.7264 152.469 2.8274 152.988 3.0964L152.848 3.7564C152.429 3.6564 152.139 3.6064 151.858 3.6064C151.339 3.6064 151.109 3.8454 151.109 4.1264C151.109 4.4254 151.279 4.5764 151.988 4.8364C152.968 5.1654 153.338 5.6354 153.338 6.3544C153.338 7.2644 152.588 7.9444 151.299 7.9444Z" fill="#231F20"/>
<path d="M156.139 7.9444C154.82 7.9444 154.14 7.1044 154.14 5.4054C154.14 3.8264 154.95 2.7264 156.229 2.7264C156.869 2.7264 157.378 2.9574 157.728 3.3564L157.278 4.0154C157.048 3.8064 156.768 3.6864 156.428 3.6864C155.849 3.6864 155.479 4.2254 155.479 5.2754C155.479 6.4954 155.809 6.9744 156.388 6.9744C156.788 6.9744 157.119 6.8444 157.448 6.5544L157.837 7.2144C157.448 7.6144 156.898 7.9444 156.139 7.9444Z" fill="#231F20"/>
<path d="M162.847 7.84387H161.568C161.568 6.82387 161.597 5.78487 161.597 5.22587C161.597 4.02687 161.358 3.75587 160.898 3.75587C160.648 3.75587 160.318 3.90587 159.978 4.16587V7.84387H158.689V0.757872H159.978V3.26687C160.328 2.96687 160.798 2.72687 161.348 2.72687C162.347 2.72687 162.887 3.34687 162.887 4.99487C162.887 5.59587 162.847 6.73487 162.847 7.84387Z" fill="#231F20"/>
<path d="M167.408 7.84386L167.308 7.31486C166.879 7.70386 166.369 7.95386 165.799 7.95386C164.779 7.95386 164.26 7.31486 164.26 5.68586C164.26 5.06586 164.3 3.93686 164.3 2.83686H165.589C165.589 3.84586 165.55 4.86486 165.55 5.46486C165.55 6.64486 165.789 6.92486 166.239 6.92486C166.518 6.92486 166.848 6.75486 167.169 6.51486V2.83686H168.458V7.84386H167.408Z" fill="#231F20"/>
<path d="M170.898 7.92389C170.249 7.92389 169.909 7.72389 169.909 6.91389V0.757889H171.198V6.40389C171.198 6.96489 171.268 7.04389 171.528 7.04389C171.608 7.04389 171.708 7.03389 171.778 7.03389L171.828 7.79389C171.588 7.87389 171.289 7.92389 170.898 7.92389Z" fill="#231F20"/>
<path d="M175.458 4.77547C175.458 3.97647 175.187 3.58647 174.648 3.58647C174.089 3.58647 173.789 4.07647 173.749 4.79547H175.458V4.77547ZM173.749 5.59547V5.66547C173.749 6.58547 174.148 6.97447 174.868 6.97447C175.317 6.97447 175.907 6.87547 176.487 6.68447L176.677 7.42347C176.067 7.74447 175.348 7.95447 174.608 7.95447C173.299 7.95447 172.43 7.30447 172.43 5.47547C172.43 3.68647 173.299 2.72647 174.698 2.72647C175.987 2.72647 176.837 3.44647 176.697 5.59547H173.749Z" fill="#231F20"/>
<path d="M182.348 2.06744H181.938V4.57644H182.348C183.237 4.57644 183.637 4.11644 183.637 3.31644C183.637 2.50644 183.287 2.06744 182.348 2.06744ZM182.218 5.57544H181.938V7.84344H180.588V1.09744C181.218 1.09744 181.858 1.07844 182.547 1.07844C184.376 1.07844 185.046 1.90744 185.046 3.19644C185.046 4.57644 184.307 5.57544 182.218 5.57544Z" fill="#231F20"/>
<path d="M188.028 3.67686C187.438 3.67686 187.029 4.08586 187.029 5.22586C187.029 6.63486 187.398 7.00486 188.038 7.00486C188.618 7.00486 189.027 6.59486 189.027 5.45486C189.027 4.04586 188.658 3.67686 188.028 3.67686ZM187.928 7.95386C186.508 7.95386 185.71 7.23486 185.71 5.43586C185.71 3.58586 186.638 2.72686 188.128 2.72686C189.548 2.72686 190.346 3.44686 190.346 5.24486C190.346 7.08386 189.418 7.95386 187.928 7.95386Z" fill="#231F20"/>
<path d="M192.827 7.9444C191.908 7.9444 191.558 7.5944 191.558 6.6354V3.7364H190.929V2.8374H191.608C191.728 2.3864 191.818 1.9374 191.908 1.3784H192.847V2.8374H193.957V3.7364H192.847V6.3144C192.847 6.8244 192.968 6.9844 193.297 6.9844C193.457 6.9844 193.667 6.9654 193.987 6.8754L194.087 7.6144C193.617 7.8534 193.207 7.9444 192.827 7.9444Z" fill="#231F20"/>
<path d="M196.278 7.9444C195.718 7.9444 195.209 7.8034 194.719 7.5344L194.829 6.8644C195.399 6.9944 195.738 7.0344 196.049 7.0344C196.708 7.0344 196.958 6.7844 196.958 6.4844C196.958 6.1554 196.798 5.9854 196.068 5.7254C195.109 5.3854 194.739 4.9754 194.739 4.2464C194.739 3.3374 195.468 2.7264 196.568 2.7264C197.017 2.7264 197.448 2.8274 197.967 3.0964L197.827 3.7564C197.408 3.6564 197.118 3.6064 196.838 3.6064C196.318 3.6064 196.089 3.8454 196.089 4.1264C196.089 4.4254 196.258 4.5764 196.967 4.8364C197.947 5.1654 198.317 5.6354 198.317 6.3544C198.317 7.2644 197.567 7.9444 196.278 7.9444Z" fill="#231F20"/>
<path d="M202.147 3.74616C201.966 3.68616 201.757 3.64616 201.537 3.64616C200.887 3.64616 200.438 4.17616 200.438 5.36516C200.438 6.42516 200.748 6.96516 201.257 6.96516C201.497 6.96516 201.817 6.82416 202.147 6.54516V3.74616ZM202.386 7.84416L202.287 7.33416C201.867 7.69416 201.407 7.95416 200.877 7.95416C199.708 7.95416 199.119 6.88516 199.119 5.54516C199.119 3.52616 200.208 2.72616 201.587 2.72616C201.787 2.72616 202.017 2.74716 202.147 2.75716V0.758162H203.436V7.84416H202.386Z" fill="#231F20"/>
<path d="M207.457 5.5851H207.077C206.107 5.5851 205.827 5.9051 205.827 6.3751C205.827 6.7841 206.057 7.0341 206.497 7.0341C206.807 7.0341 207.146 6.8751 207.457 6.6051V5.5851ZM207.736 7.8441L207.646 7.3341C207.217 7.7041 206.757 7.9541 206.117 7.9541C205.107 7.9541 204.568 7.4541 204.568 6.5241C204.568 5.4851 205.397 4.7961 207.146 4.7961H207.457V4.4161C207.457 3.9061 207.167 3.6561 206.527 3.6561C206.008 3.6561 205.458 3.7961 205.008 3.9561L204.838 3.1771C205.428 2.9171 206.098 2.7271 206.847 2.7271C208.126 2.7271 208.725 3.3371 208.725 4.2861V7.8441H207.736Z" fill="#231F20"/>
<path d="M217.084 7.84387H215.805C215.805 6.83487 215.835 5.80487 215.835 5.22587C215.835 4.02687 215.615 3.75587 215.186 3.75587C214.926 3.75587 214.566 3.94587 214.235 4.20587C214.266 4.36587 214.286 4.59587 214.286 4.95587V7.84387H213.007V5.22587C213.007 4.04587 212.786 3.75587 212.367 3.75587C212.127 3.75587 211.797 3.91587 211.467 4.16587V7.84387H210.178V2.83687H211.237L211.327 3.36587C211.728 2.99687 212.237 2.72687 212.807 2.72687C213.426 2.72687 213.836 3.03687 214.025 3.44587C214.506 3.01687 215.025 2.72687 215.625 2.72687C216.605 2.72687 217.124 3.36587 217.124 4.98587C217.124 5.60587 217.084 6.74387 217.084 7.84387Z" fill="#231F20"/>
<path d="M111.99 18.9542C110.39 18.9542 109.571 18.2842 109.571 16.5562V12.0982H110.921V16.4152C110.921 17.5642 111.28 17.9652 112.11 17.9652C112.859 17.9652 113.309 17.6142 113.309 16.4952V12.0982H114.629V16.4052C114.629 18.2542 113.539 18.9542 111.99 18.9542Z" fill="#231F20"/>
<path d="M120.319 18.8439H119.04C119.04 17.8349 119.069 16.8049 119.069 16.2159C119.069 15.0269 118.84 14.7559 118.38 14.7559C118.11 14.7559 117.78 14.9159 117.45 15.1659V18.8439H116.161V13.8369H117.22L117.31 14.3659C117.74 13.9769 118.25 13.7269 118.83 13.7269C119.839 13.7269 120.359 14.3659 120.359 15.9949C120.359 16.6149 120.319 17.7439 120.319 18.8439Z" fill="#231F20"/>
<path d="M121.77 13.837H123.059V18.844H121.77V13.837ZM122.419 13.188C121.8 13.188 121.649 13.027 121.649 12.518C121.649 12.018 121.81 11.848 122.419 11.848C123.039 11.848 123.179 11.998 123.179 12.518C123.179 13.018 123.029 13.188 122.419 13.188Z" fill="#231F20"/>
<path d="M127.078 18.8439H125.399L123.97 13.8369H125.359L126.169 16.6649L126.369 17.6649C126.789 16.3059 127.078 15.0669 127.198 13.8369H128.527C128.267 15.5559 127.778 17.2749 127.078 18.8439Z" fill="#231F20"/>
<path d="M132.199 15.7755C132.199 14.9765 131.929 14.5865 131.389 14.5865C130.83 14.5865 130.53 15.0765 130.49 15.7955H132.199V15.7755ZM130.49 16.5955V16.6655C130.49 17.5855 130.889 17.9745 131.609 17.9745C132.058 17.9745 132.648 17.8755 133.228 17.6845L133.418 18.4235C132.808 18.7445 132.089 18.9545 131.349 18.9545C130.04 18.9545 129.171 18.3045 129.171 16.4755C129.171 14.6865 130.04 13.7265 131.439 13.7265C132.728 13.7265 133.578 14.4465 133.438 16.5955H130.49Z" fill="#231F20"/>
<path d="M137.389 14.9767C137.179 14.9157 137.049 14.9067 136.949 14.9067C136.669 14.9067 136.429 15.0957 135.979 15.6657V18.8437H134.69V13.8367H135.749L135.849 14.6167C136.359 13.9467 136.699 13.7367 137.059 13.7367C137.208 13.7367 137.378 13.7667 137.538 13.8467L137.389 14.9767Z" fill="#231F20"/>
<path d="M139.62 18.9444C139.061 18.9444 138.551 18.8034 138.061 18.5344L138.171 17.8644C138.74 17.9944 139.08 18.0344 139.391 18.0344C140.05 18.0344 140.3 17.7844 140.3 17.4844C140.3 17.1554 140.14 16.9854 139.41 16.7254C138.451 16.3854 138.081 15.9754 138.081 15.2464C138.081 14.3374 138.811 13.7264 139.91 13.7264C140.359 13.7264 140.79 13.8274 141.309 14.0964L141.169 14.7564C140.75 14.6564 140.46 14.6064 140.18 14.6064C139.66 14.6064 139.431 14.8454 139.431 15.1264C139.431 15.4254 139.6 15.5764 140.309 15.8364C141.289 16.1654 141.659 16.6354 141.659 17.3544C141.659 18.2644 140.909 18.9444 139.62 18.9444Z" fill="#231F20"/>
<path d="M142.74 13.837H144.029V18.844H142.74V13.837ZM143.39 13.188C142.77 13.188 142.62 13.027 142.62 12.518C142.62 12.018 142.78 11.848 143.39 11.848C144.01 11.848 144.149 11.998 144.149 12.518C144.149 13.018 144 13.188 143.39 13.188Z" fill="#231F20"/>
<path d="M146.85 18.9444C145.931 18.9444 145.581 18.5944 145.581 17.6354V14.7364H144.952V13.8374H145.631C145.751 13.3864 145.841 12.9374 145.931 12.3784H146.87V13.8374H147.98V14.7364H146.87V17.3144C146.87 17.8244 146.991 17.9844 147.32 17.9844C147.48 17.9844 147.69 17.9654 148.01 17.8754L148.11 18.6144C147.64 18.8534 147.23 18.9444 146.85 18.9444Z" fill="#231F20"/>
<path d="M149.269 20.6329C149.049 20.6329 148.77 20.5639 148.51 20.4229V19.6839C148.66 19.7029 148.89 19.7139 149.009 19.7139C149.33 19.7139 149.549 19.6439 149.729 19.4929C149.939 19.3139 150.019 19.1439 150.019 18.9039C150.019 18.7039 149.959 18.4039 149.79 17.9139L148.55 13.8369H149.929L150.708 16.6459C150.859 17.1249 150.949 17.5849 150.928 17.8849C151.308 16.7149 151.658 15.1759 151.758 13.8369H153.087C152.288 19.0639 150.649 20.6329 149.269 20.6329Z" fill="#231F20"/>
<path d="M158.239 14.6769C157.649 14.6769 157.24 15.0859 157.24 16.2259C157.24 17.6349 157.609 18.0049 158.249 18.0049C158.829 18.0049 159.238 17.5949 159.238 16.4549C159.238 15.0459 158.869 14.6769 158.239 14.6769ZM158.139 18.9539C156.719 18.9539 155.921 18.2349 155.921 16.4359C155.921 14.5859 156.849 13.7269 158.339 13.7269C159.759 13.7269 160.557 14.4469 160.557 16.2449C160.557 18.0839 159.629 18.9539 158.139 18.9539Z" fill="#231F20"/>
<path d="M164.248 12.6974C164.038 12.6174 163.839 12.5774 163.658 12.5774C163.268 12.5774 163.119 12.7774 163.119 13.1974V13.8374H164.018V14.7364H163.119V18.8434H161.84V14.7364H161.2V13.8374H161.84V13.2374C161.84 12.2484 162.229 11.6474 163.239 11.6474C163.738 11.6474 164.139 11.7984 164.438 11.9584L164.248 12.6974Z" fill="#231F20"/>
<path d="M111.589 24.2872C111.31 25.2462 110.97 26.4852 110.72 27.5052H112.519C112.239 26.4662 111.919 25.3262 111.589 24.2872ZM113.028 29.8442C112.948 29.4642 112.839 28.9042 112.738 28.5152H110.51C110.42 28.8942 110.31 29.3842 110.231 29.8442H108.941C109.441 27.5962 110.101 25.2662 110.81 23.0982H112.579C113.358 25.4062 113.948 27.5752 114.487 29.8442H113.028Z" fill="#231F20"/>
<path d="M117.56 25.7159C117.321 25.7159 116.991 25.8569 116.67 26.1359V28.9349C116.84 29.0049 117.05 29.0339 117.271 29.0339C117.92 29.0339 118.38 28.5049 118.38 27.3159C118.38 26.2859 118.07 25.7159 117.56 25.7159ZM117.201 29.9539C117.05 29.9539 116.83 29.9449 116.67 29.9239V31.5729H115.381V24.8369H116.431L116.531 25.3469C116.941 24.9769 117.42 24.7269 117.92 24.7269C119.12 24.7269 119.699 25.8069 119.699 27.1359C119.699 29.1139 118.64 29.9539 117.201 29.9539Z" fill="#231F20"/>
<path d="M123.049 25.7159C122.81 25.7159 122.48 25.8569 122.159 26.1359V28.9349C122.329 29.0049 122.539 29.0339 122.76 29.0339C123.409 29.0339 123.869 28.5049 123.869 27.3159C123.869 26.2859 123.559 25.7159 123.049 25.7159ZM122.69 29.9539C122.539 29.9539 122.319 29.9449 122.159 29.9239V31.5729H120.87V24.8369H121.92L122.02 25.3469C122.43 24.9769 122.909 24.7269 123.409 24.7269C124.608 24.7269 125.188 25.8069 125.188 27.1359C125.188 29.1139 124.129 29.9539 122.69 29.9539Z" fill="#231F20"/>
<path d="M127.35 29.9239C126.701 29.9239 126.361 29.7239 126.361 28.9139V22.7579H127.65V28.4039C127.65 28.9649 127.72 29.0439 127.98 29.0439C128.06 29.0439 128.16 29.0339 128.23 29.0339L128.28 29.7939C128.04 29.8739 127.741 29.9239 127.35 29.9239Z" fill="#231F20"/>
<path d="M129.26 24.837H130.549V29.844H129.26V24.837ZM129.909 24.188C129.29 24.188 129.14 24.027 129.14 23.518C129.14 23.018 129.3 22.848 129.909 22.848C130.529 22.848 130.669 22.998 130.669 23.518C130.669 24.018 130.52 24.188 129.909 24.188Z" fill="#231F20"/>
<path d="M134.749 26.7755C134.749 25.9765 134.478 25.5865 133.939 25.5865C133.38 25.5865 133.08 26.0765 133.04 26.7955H134.749V26.7755ZM133.04 27.5955V27.6655C133.04 28.5855 133.439 28.9745 134.159 28.9745C134.608 28.9745 135.198 28.8755 135.778 28.6845L135.968 29.4235C135.358 29.7445 134.639 29.9545 133.899 29.9545C132.59 29.9545 131.721 29.3045 131.721 27.4755C131.721 25.6865 132.59 24.7265 133.989 24.7265C135.278 24.7265 136.128 25.4465 135.988 27.5955H133.04Z" fill="#231F20"/>
<path d="M139.99 25.7462C139.809 25.6862 139.6 25.6462 139.38 25.6462C138.73 25.6462 138.281 26.1762 138.281 27.3652C138.281 28.4252 138.591 28.9652 139.1 28.9652C139.34 28.9652 139.66 28.8242 139.99 28.5452V25.7462ZM140.229 29.8442L140.13 29.3342C139.71 29.6942 139.25 29.9542 138.72 29.9542C137.552 29.9542 136.962 28.8852 136.962 27.5452C136.962 25.5262 138.051 24.7262 139.43 24.7262C139.63 24.7262 139.86 24.7472 139.99 24.7572V22.7582H141.279V29.8442H140.229Z" fill="#231F20"/>
<path d="M147.01 29.9444C146.22 29.9444 145.551 29.6834 144.981 29.3044L145.301 28.5944C145.84 28.8144 146.38 28.9544 146.76 28.9544C147.449 28.9544 147.879 28.6544 147.879 28.0854C147.879 26.7654 145.061 27.0254 145.061 24.9064C145.061 23.7474 145.96 22.9984 147.22 22.9984C147.85 22.9984 148.459 23.1684 149.029 23.5484L148.709 24.2474C148.28 24.0774 147.839 23.9774 147.47 23.9774C146.8 23.9774 146.49 24.2974 146.49 24.7474C146.49 26.0664 149.378 25.8454 149.378 27.9244C149.378 29.0644 148.539 29.9444 147.01 29.9444Z" fill="#231F20"/>
<path d="M152.209 29.9444C150.89 29.9444 150.21 29.1044 150.21 27.4054C150.21 25.8264 151.02 24.7264 152.299 24.7264C152.939 24.7264 153.448 24.9574 153.798 25.3564L153.348 26.0154C153.118 25.8064 152.838 25.6864 152.498 25.6864C151.919 25.6864 151.549 26.2254 151.549 27.2754C151.549 28.4954 151.879 28.9744 152.458 28.9744C152.858 28.9744 153.189 28.8444 153.518 28.5544L153.907 29.2144C153.518 29.6144 152.968 29.9444 152.209 29.9444Z" fill="#231F20"/>
<path d="M154.869 24.837H156.158V29.844H154.869V24.837ZM155.519 24.188C154.899 24.188 154.749 24.027 154.749 23.518C154.749 23.018 154.909 22.848 155.519 22.848C156.139 22.848 156.278 22.998 156.278 23.518C156.278 24.018 156.129 24.188 155.519 24.188Z" fill="#231F20"/>
<path d="M160.359 26.7755C160.359 25.9765 160.089 25.5865 159.55 25.5865C158.99 25.5865 158.69 26.0765 158.65 26.7955H160.359V26.7755ZM158.65 27.5955V27.6655C158.65 28.5855 159.05 28.9745 159.769 28.9745C160.218 28.9745 160.808 28.8755 161.388 28.6845L161.578 29.4235C160.968 29.7445 160.249 29.9545 159.509 29.9545C158.2 29.9545 157.331 29.3045 157.331 27.4755C157.331 25.6865 158.2 24.7265 159.599 24.7265C160.888 24.7265 161.738 25.4465 161.598 27.5955H158.65Z" fill="#231F20"/>
<path d="M167.007 29.8439H165.728C165.728 28.8349 165.757 27.8049 165.757 27.2159C165.757 26.0269 165.527 25.7559 165.067 25.7559C164.798 25.7559 164.468 25.9159 164.138 26.1659V29.8439H162.849V24.8369H163.908L163.998 25.3659C164.428 24.9769 164.938 24.7269 165.518 24.7269C166.526 24.7269 167.047 25.3659 167.047 26.9949C167.047 27.6149 167.007 28.7439 167.007 29.8439Z" fill="#231F20"/>
<path d="M170.179 29.9444C168.86 29.9444 168.18 29.1044 168.18 27.4054C168.18 25.8264 168.99 24.7264 170.269 24.7264C170.908 24.7264 171.418 24.9574 171.768 25.3564L171.318 26.0154C171.088 25.8064 170.808 25.6864 170.468 25.6864C169.889 25.6864 169.519 26.2254 169.519 27.2754C169.519 28.4954 169.849 28.9744 170.428 28.9744C170.828 28.9744 171.158 28.8444 171.488 28.5544L171.877 29.2144C171.488 29.6144 170.938 29.9444 170.179 29.9444Z" fill="#231F20"/>
<path d="M175.428 26.7755C175.428 25.9765 175.157 25.5865 174.618 25.5865C174.059 25.5865 173.759 26.0765 173.719 26.7955H175.428V26.7755ZM173.719 27.5955V27.6655C173.719 28.5855 174.118 28.9745 174.838 28.9745C175.287 28.9745 175.877 28.8755 176.457 28.6845L176.647 29.4235C176.037 29.7445 175.318 29.9545 174.578 29.9545C173.269 29.9545 172.4 29.3045 172.4 27.4755C172.4 25.6865 173.269 24.7265 174.668 24.7265C175.957 24.7265 176.807 25.4465 176.667 27.5955H173.719Z" fill="#231F20"/>
<path d="M179.109 29.9444C178.55 29.9444 178.04 29.8034 177.55 29.5344L177.66 28.8644C178.229 28.9944 178.569 29.0344 178.88 29.0344C179.539 29.0344 179.789 28.7844 179.789 28.4844C179.789 28.1554 179.629 27.9854 178.899 27.7254C177.94 27.3854 177.57 26.9754 177.57 26.2464C177.57 25.3374 178.3 24.7264 179.399 24.7264C179.848 24.7264 180.279 24.8274 180.799 25.0964L180.658 25.7564C180.239 25.6564 179.949 25.6064 179.669 25.6064C179.149 25.6064 178.92 25.8454 178.92 26.1264C178.92 26.4264 179.09 26.5764 179.799 26.8364C180.778 27.1654 181.148 27.6354 181.148 28.3544C181.148 29.2644 180.398 29.9444 179.109 29.9444Z" fill="#231F20"/>
</svg>
