<svg width="136" height="249" viewBox="0 0 136 249" fill="none" xmlns="http://www.w3.org/2000/svg">
<rect width="136" height="249" fill="white"/>
<path d="M7.96591 21.2727V9.27273H10.3523V10.7386H10.4602C10.5663 10.5038 10.7197 10.2652 10.9205 10.0227C11.125 9.77652 11.3902 9.57197 11.7159 9.40909C12.0455 9.24242 12.4545 9.15909 12.9432 9.15909C13.5795 9.15909 14.1667 9.32576 14.7045 9.65909C15.2424 9.98864 15.6723 10.4867 15.9943 11.1534C16.3163 11.8163 16.4773 12.6477 16.4773 13.6477C16.4773 14.6212 16.3201 15.4432 16.0057 16.1136C15.6951 16.7803 15.2708 17.286 14.733 17.6307C14.1989 17.9716 13.6004 18.142 12.9375 18.142C12.4678 18.142 12.0682 18.0644 11.7386 17.9091C11.4129 17.7538 11.1458 17.5587 10.9375 17.3239C10.7292 17.0852 10.5701 16.8447 10.4602 16.6023H10.3864V21.2727H7.96591ZM10.3352 13.6364C10.3352 14.1553 10.4072 14.608 10.5511 14.9943C10.6951 15.3807 10.9034 15.6818 11.1761 15.8977C11.4489 16.1098 11.7803 16.2159 12.1705 16.2159C12.5644 16.2159 12.8977 16.108 13.1705 15.892C13.4432 15.6723 13.6496 15.3693 13.7898 14.983C13.9337 14.5928 14.0057 14.1439 14.0057 13.6364C14.0057 13.1326 13.9356 12.6894 13.7955 12.3068C13.6553 11.9242 13.4489 11.625 13.1761 11.4091C12.9034 11.1932 12.5682 11.0852 12.1705 11.0852C11.7765 11.0852 11.4432 11.1894 11.1705 11.3977C10.9015 11.6061 10.6951 11.9015 10.5511 12.2841C10.4072 12.6667 10.3352 13.1174 10.3352 13.6364ZM18.0909 18V9.27273H20.4375V10.7955H20.5284C20.6875 10.2538 20.9545 9.8447 21.3295 9.56818C21.7045 9.28788 22.1364 9.14773 22.625 9.14773C22.7462 9.14773 22.8769 9.1553 23.017 9.17045C23.1572 9.18561 23.2803 9.20644 23.3864 9.23295V11.3807C23.2727 11.3466 23.1155 11.3163 22.9148 11.2898C22.714 11.2633 22.5303 11.25 22.3636 11.25C22.0076 11.25 21.6894 11.3277 21.4091 11.483C21.1326 11.6345 20.9129 11.8466 20.75 12.1193C20.5909 12.392 20.5114 12.7064 20.5114 13.0625V18H18.0909ZM28.2088 18.1705C27.3111 18.1705 26.5384 17.9886 25.8906 17.625C25.2467 17.2576 24.7505 16.7386 24.402 16.0682C24.0535 15.3939 23.8793 14.5966 23.8793 13.6761C23.8793 12.7784 24.0535 11.9905 24.402 11.3125C24.7505 10.6345 25.241 10.1061 25.8736 9.72727C26.5099 9.34848 27.2562 9.15909 28.1122 9.15909C28.688 9.15909 29.224 9.25189 29.7202 9.4375C30.2202 9.61932 30.6558 9.89394 31.027 10.2614C31.402 10.6288 31.6937 11.0909 31.902 11.6477C32.1103 12.2008 32.2145 12.8485 32.2145 13.5909V14.2557H24.8452V12.7557H29.9361C29.9361 12.4072 29.8603 12.0985 29.7088 11.8295C29.5573 11.5606 29.3471 11.3504 29.0781 11.1989C28.813 11.0436 28.5043 10.9659 28.152 10.9659C27.7846 10.9659 27.4588 11.0511 27.1747 11.2216C26.8944 11.3883 26.6747 11.6136 26.5156 11.8977C26.3565 12.178 26.2751 12.4905 26.2713 12.8352V14.2614C26.2713 14.6932 26.3509 15.0663 26.5099 15.3807C26.6728 15.6951 26.902 15.9375 27.1974 16.108C27.4929 16.2784 27.8433 16.3636 28.2486 16.3636C28.5175 16.3636 28.7637 16.3258 28.9872 16.25C29.2107 16.1742 29.402 16.0606 29.5611 15.9091C29.7202 15.7576 29.8414 15.572 29.9247 15.3523L32.1634 15.5C32.0497 16.0379 31.8168 16.5076 31.4645 16.9091C31.116 17.3068 30.6652 17.6174 30.1122 17.8409C29.563 18.0606 28.9285 18.1705 28.2088 18.1705ZM36.2145 6.36364V18H33.794V6.36364H36.2145ZM42.0966 18.1705C41.214 18.1705 40.4508 17.983 39.8068 17.608C39.1667 17.2292 38.6723 16.7027 38.3239 16.0284C37.9754 15.3504 37.8011 14.5644 37.8011 13.6705C37.8011 12.7689 37.9754 11.9811 38.3239 11.3068C38.6723 10.6288 39.1667 10.1023 39.8068 9.72727C40.4508 9.34848 41.214 9.15909 42.0966 9.15909C42.9792 9.15909 43.7405 9.34848 44.3807 9.72727C45.0246 10.1023 45.5208 10.6288 45.8693 11.3068C46.2178 11.9811 46.392 12.7689 46.392 13.6705C46.392 14.5644 46.2178 15.3504 45.8693 16.0284C45.5208 16.7027 45.0246 17.2292 44.3807 17.608C43.7405 17.983 42.9792 18.1705 42.0966 18.1705ZM42.108 16.2955C42.5095 16.2955 42.8447 16.1818 43.1136 15.9545C43.3826 15.7235 43.5852 15.4091 43.7216 15.0114C43.8617 14.6136 43.9318 14.161 43.9318 13.6534C43.9318 13.1458 43.8617 12.6932 43.7216 12.2955C43.5852 11.8977 43.3826 11.5833 43.1136 11.3523C42.8447 11.1212 42.5095 11.0057 42.108 11.0057C41.7027 11.0057 41.3617 11.1212 41.0852 11.3523C40.8125 11.5833 40.6061 11.8977 40.4659 12.2955C40.3295 12.6932 40.2614 13.1458 40.2614 13.6534C40.2614 14.161 40.3295 14.6136 40.4659 15.0114C40.6061 15.4091 40.8125 15.7235 41.0852 15.9545C41.3617 16.1818 41.7027 16.2955 42.108 16.2955ZM50.4545 18.1648C49.8977 18.1648 49.4015 18.0682 48.9659 17.875C48.5303 17.678 48.1856 17.3883 47.9318 17.0057C47.6818 16.6193 47.5568 16.1383 47.5568 15.5625C47.5568 15.0777 47.6458 14.6705 47.8239 14.3409C48.0019 14.0114 48.2443 13.7462 48.5511 13.5455C48.858 13.3447 49.2064 13.1932 49.5966 13.0909C49.9905 12.9886 50.4034 12.9167 50.8352 12.875C51.3428 12.822 51.7519 12.7727 52.0625 12.7273C52.3731 12.678 52.5985 12.6061 52.7386 12.5114C52.8788 12.4167 52.9489 12.2765 52.9489 12.0909V12.0568C52.9489 11.697 52.8352 11.4186 52.608 11.2216C52.3845 11.0246 52.0663 10.9261 51.6534 10.9261C51.2178 10.9261 50.8712 11.0227 50.6136 11.2159C50.3561 11.4053 50.1856 11.6439 50.1023 11.9318L47.8636 11.75C47.9773 11.2197 48.2008 10.7614 48.5341 10.375C48.8674 9.98485 49.2973 9.68561 49.8239 9.47727C50.3542 9.26515 50.9678 9.15909 51.6648 9.15909C52.1496 9.15909 52.6136 9.21591 53.0568 9.32955C53.5038 9.44318 53.8996 9.61932 54.2443 9.85795C54.5928 10.0966 54.8674 10.4034 55.0682 10.7784C55.2689 11.1496 55.3693 11.5947 55.3693 12.1136V18H53.0739V16.7898H53.0057C52.8655 17.0625 52.678 17.303 52.4432 17.5114C52.2083 17.7159 51.9261 17.8769 51.5966 17.9943C51.267 18.108 50.8864 18.1648 50.4545 18.1648ZM51.1477 16.4943C51.5038 16.4943 51.8182 16.4242 52.0909 16.2841C52.3636 16.1402 52.5777 15.947 52.733 15.7045C52.8883 15.4621 52.9659 15.1875 52.9659 14.8807V13.9545C52.8902 14.0038 52.786 14.0492 52.6534 14.0909C52.5246 14.1288 52.3788 14.1648 52.2159 14.1989C52.053 14.2292 51.8902 14.2576 51.7273 14.2841C51.5644 14.3068 51.4167 14.3277 51.2841 14.3466C51 14.3883 50.7519 14.4545 50.5398 14.5455C50.3277 14.6364 50.1629 14.7595 50.0455 14.9148C49.928 15.0663 49.8693 15.2557 49.8693 15.483C49.8693 15.8125 49.9886 16.0644 50.2273 16.2386C50.4697 16.4091 50.7765 16.4943 51.1477 16.4943ZM60.4631 18.142C59.8002 18.142 59.1998 17.9716 58.6619 17.6307C58.1278 17.286 57.7036 16.7803 57.3892 16.1136C57.0786 15.4432 56.9233 14.6212 56.9233 13.6477C56.9233 12.6477 57.0843 11.8163 57.4062 11.1534C57.7282 10.4867 58.1563 9.98864 58.6903 9.65909C59.2282 9.32576 59.8172 9.15909 60.4574 9.15909C60.946 9.15909 61.3532 9.24242 61.679 9.40909C62.0085 9.57197 62.2737 9.77652 62.4744 10.0227C62.679 10.2652 62.8343 10.5038 62.9403 10.7386H63.0142V6.36364H65.429V18H63.0426V16.6023H62.9403C62.8267 16.8447 62.6657 17.0852 62.4574 17.3239C62.2528 17.5587 61.9858 17.7538 61.6562 17.9091C61.3305 18.0644 60.9328 18.142 60.4631 18.142ZM61.2301 16.2159C61.6203 16.2159 61.9498 16.1098 62.2188 15.8977C62.4915 15.6818 62.6998 15.3807 62.8438 14.9943C62.9915 14.608 63.0653 14.1553 63.0653 13.6364C63.0653 13.1174 62.9934 12.6667 62.8494 12.2841C62.7055 11.9015 62.4972 11.6061 62.2244 11.3977C61.9517 11.1894 61.6203 11.0852 61.2301 11.0852C60.8324 11.0852 60.4972 11.1932 60.2244 11.4091C59.9517 11.625 59.7453 11.9242 59.6051 12.3068C59.465 12.6894 59.3949 13.1326 59.3949 13.6364C59.3949 14.1439 59.465 14.5928 59.6051 14.983C59.7491 15.3693 59.9555 15.6723 60.2244 15.892C60.4972 16.108 60.8324 16.2159 61.2301 16.2159ZM67.9531 13.3352C67.9531 11.9261 68.1406 10.6288 68.5156 9.44318C68.8944 8.25758 69.4721 7.15909 70.2486 6.14773H72.5611C72.2656 6.52273 71.991 6.98106 71.7372 7.52273C71.4834 8.06061 71.2618 8.65151 71.0724 9.29545C70.883 9.93939 70.7353 10.6061 70.6293 11.2955C70.5232 11.9811 70.4702 12.661 70.4702 13.3352C70.4702 14.233 70.5611 15.1402 70.7429 16.0568C70.9285 16.9697 71.1785 17.8182 71.4929 18.6023C71.8111 19.3864 72.1671 20.0284 72.5611 20.5284H70.2486C69.4721 19.517 68.8944 18.4186 68.5156 17.233C68.1406 16.0473 67.9531 14.7481 67.9531 13.3352ZM78.0455 13.3352C78.0455 14.7481 77.8561 16.0473 77.4773 17.233C77.1023 18.4186 76.5265 19.517 75.75 20.5284H73.4375C73.733 20.1534 74.0076 19.6951 74.2614 19.1534C74.5152 18.6117 74.7367 18.0208 74.9261 17.3807C75.1155 16.7367 75.2633 16.0701 75.3693 15.3807C75.4754 14.6913 75.5284 14.0095 75.5284 13.3352C75.5284 12.4375 75.4356 11.5322 75.25 10.6193C75.0682 9.70265 74.8182 8.85417 74.5 8.07386C74.1856 7.28977 73.8314 6.64773 73.4375 6.14773H75.75C76.5265 7.15909 77.1023 8.25758 77.4773 9.44318C77.8561 10.6288 78.0455 11.9261 78.0455 13.3352ZM80.0412 13.3864V12.2443C80.6965 12.2443 81.151 12.1136 81.4048 11.8523C81.6586 11.5909 81.7855 11.1686 81.7855 10.5852V9.32955C81.7855 8.62879 81.8821 8.06818 82.0753 7.64773C82.2723 7.22348 82.545 6.90341 82.8935 6.6875C83.2457 6.47159 83.6624 6.32765 84.1435 6.25568C84.6245 6.18371 85.151 6.14773 85.723 6.14773V7.95455C85.276 7.95455 84.9351 8.01326 84.7003 8.13068C84.4692 8.24432 84.312 8.42235 84.2287 8.66477C84.1454 8.90341 84.1037 9.20644 84.1037 9.57386V11.233C84.1037 11.5208 84.0507 11.7955 83.9446 12.0568C83.8385 12.3144 83.6416 12.5436 83.3537 12.7443C83.0658 12.9413 82.6548 13.0985 82.1207 13.2159C81.5866 13.3295 80.8935 13.3864 80.0412 13.3864ZM85.723 20.5284C85.151 20.5284 84.6245 20.4924 84.1435 20.4205C83.6624 20.3485 83.2457 20.2045 82.8935 19.9886C82.545 19.7727 82.2723 19.4527 82.0753 19.0284C81.8821 18.608 81.7855 18.0473 81.7855 17.3466V16.0852C81.7855 15.5019 81.6586 15.0795 81.4048 14.8182C81.151 14.5568 80.6965 14.4261 80.0412 14.4261V13.2841C80.8935 13.2841 81.5866 13.3428 82.1207 13.4602C82.6548 13.5739 83.0658 13.7311 83.3537 13.9318C83.6416 14.1288 83.8385 14.358 83.9446 14.6193C84.0507 14.8769 84.1037 15.1515 84.1037 15.4432V17.1023C84.1037 17.4659 84.1454 17.767 84.2287 18.0057C84.312 18.2481 84.4692 18.4261 84.7003 18.5398C84.9351 18.6572 85.276 18.7159 85.723 18.7159V20.5284ZM80.0412 14.4261V12.2443H82.081V14.4261H80.0412ZM92.1449 13.2841V14.4261C91.4934 14.4261 91.0388 14.5568 90.7812 14.8182C90.5275 15.0795 90.4006 15.5019 90.4006 16.0852V17.3466C90.4006 18.0473 90.3021 18.608 90.1051 19.0284C89.9119 19.4527 89.6392 19.7727 89.2869 19.9886C88.9384 20.2045 88.5237 20.3485 88.0426 20.4205C87.5653 20.4924 87.0388 20.5284 86.4631 20.5284V18.7159C86.91 18.7159 87.2491 18.6572 87.4801 18.5398C87.715 18.4261 87.8741 18.2481 87.9574 18.0057C88.0407 17.767 88.0824 17.4659 88.0824 17.1023V15.4432C88.0824 15.1515 88.1354 14.8769 88.2415 14.6193C88.3475 14.358 88.5445 14.1288 88.8324 13.9318C89.1203 13.7311 89.5313 13.5739 90.0653 13.4602C90.5994 13.3428 91.2926 13.2841 92.1449 13.2841ZM86.4631 6.14773C87.0388 6.14773 87.5653 6.18371 88.0426 6.25568C88.5237 6.32765 88.9384 6.47159 89.2869 6.6875C89.6392 6.90341 89.9119 7.22348 90.1051 7.64773C90.3021 8.06818 90.4006 8.62879 90.4006 9.32955V10.5852C90.4006 11.1686 90.5275 11.5909 90.7812 11.8523C91.0388 12.1136 91.4934 12.2443 92.1449 12.2443V13.3864C91.2926 13.3864 90.5994 13.3295 90.0653 13.2159C89.5313 13.0985 89.1203 12.9413 88.8324 12.7443C88.5445 12.5436 88.3475 12.3144 88.2415 12.0568C88.1354 11.7955 88.0824 11.5208 88.0824 11.233V9.57386C88.0824 9.20644 88.0407 8.90341 87.9574 8.66477C87.8741 8.42235 87.715 8.24432 87.4801 8.13068C87.2491 8.01326 86.91 7.95455 86.4631 7.95455V6.14773ZM92.1449 12.2443V14.4261H90.1051V12.2443H92.1449Z" fill="black"/>
<path d="M15.2273 96.7614L13.0114 96.8977C12.9735 96.7083 12.892 96.5379 12.767 96.3864C12.642 96.2311 12.4773 96.108 12.2727 96.017C12.072 95.9223 11.8314 95.875 11.5511 95.875C11.1761 95.875 10.8598 95.9545 10.6023 96.1136C10.3447 96.2689 10.2159 96.4773 10.2159 96.7386C10.2159 96.947 10.2992 97.1231 10.4659 97.267C10.6326 97.411 10.9186 97.5265 11.3239 97.6136L12.9034 97.9318C13.7519 98.1061 14.3845 98.3864 14.8011 98.7727C15.2178 99.1591 15.4261 99.6667 15.4261 100.295C15.4261 100.867 15.2576 101.369 14.9205 101.801C14.5871 102.233 14.1288 102.57 13.5455 102.812C12.9659 103.051 12.2973 103.17 11.5398 103.17C10.3845 103.17 9.46402 102.93 8.77841 102.449C8.09659 101.964 7.69697 101.305 7.57955 100.472L9.96023 100.347C10.0322 100.699 10.2064 100.968 10.483 101.153C10.7595 101.335 11.1136 101.426 11.5455 101.426C11.9697 101.426 12.3106 101.345 12.5682 101.182C12.8295 101.015 12.9621 100.801 12.9659 100.54C12.9621 100.32 12.8693 100.14 12.6875 100C12.5057 99.8561 12.2254 99.7462 11.8466 99.6705L10.3352 99.3693C9.48295 99.1989 8.84848 98.9034 8.43182 98.483C8.01894 98.0625 7.8125 97.5265 7.8125 96.875C7.8125 96.3144 7.96402 95.8314 8.26705 95.4261C8.57386 95.0208 9.00379 94.7083 9.55682 94.4886C10.1136 94.2689 10.7652 94.1591 11.5114 94.1591C12.6136 94.1591 13.4811 94.392 14.1136 94.858C14.75 95.3239 15.1212 95.9583 15.2273 96.7614ZM20.9276 103.17C20.0298 103.17 19.2571 102.989 18.6094 102.625C17.9654 102.258 17.4692 101.739 17.1207 101.068C16.7723 100.394 16.598 99.5966 16.598 98.6761C16.598 97.7784 16.7723 96.9905 17.1207 96.3125C17.4692 95.6345 17.9598 95.1061 18.5923 94.7273C19.2287 94.3485 19.9749 94.1591 20.831 94.1591C21.4067 94.1591 21.9427 94.2519 22.4389 94.4375C22.9389 94.6193 23.3745 94.8939 23.7457 95.2614C24.1207 95.6288 24.4124 96.0909 24.6207 96.6477C24.8291 97.2008 24.9332 97.8485 24.9332 98.5909V99.2557H17.5639V97.7557H22.6548C22.6548 97.4072 22.5791 97.0985 22.4276 96.8295C22.276 96.5606 22.0658 96.3504 21.7969 96.1989C21.5317 96.0436 21.223 95.9659 20.8707 95.9659C20.5033 95.9659 20.1776 96.0511 19.8935 96.2216C19.6132 96.3883 19.3935 96.6136 19.2344 96.8977C19.0753 97.178 18.9938 97.4905 18.9901 97.8352V99.2614C18.9901 99.6932 19.0696 100.066 19.2287 100.381C19.3916 100.695 19.6207 100.938 19.9162 101.108C20.2116 101.278 20.562 101.364 20.9673 101.364C21.2363 101.364 21.4825 101.326 21.706 101.25C21.9295 101.174 22.1207 101.061 22.2798 100.909C22.4389 100.758 22.5601 100.572 22.6435 100.352L24.8821 100.5C24.7685 101.038 24.5355 101.508 24.1832 101.909C23.8348 102.307 23.384 102.617 22.831 102.841C22.2817 103.061 21.6473 103.17 20.9276 103.17ZM31.1548 94.2727V96.0909H25.8991V94.2727H31.1548ZM27.0923 92.1818H29.5128V100.318C29.5128 100.542 29.5469 100.716 29.6151 100.841C29.6832 100.962 29.7779 101.047 29.8991 101.097C30.0241 101.146 30.1681 101.17 30.331 101.17C30.4446 101.17 30.5582 101.161 30.6719 101.142C30.7855 101.119 30.8726 101.102 30.9332 101.091L31.3139 102.892C31.1927 102.93 31.0223 102.973 30.8026 103.023C30.5829 103.076 30.3158 103.108 30.0014 103.119C29.4181 103.142 28.9067 103.064 28.4673 102.886C28.0317 102.708 27.6927 102.432 27.4503 102.057C27.2079 101.682 27.0885 101.208 27.0923 100.636V92.1818ZM38.3281 99.2841V94.2727H40.7486V103H38.4247V101.415H38.3338C38.1368 101.926 37.8092 102.337 37.3509 102.648C36.8963 102.958 36.3414 103.114 35.6861 103.114C35.1027 103.114 34.5895 102.981 34.1463 102.716C33.7031 102.451 33.3565 102.074 33.1065 101.585C32.8603 101.097 32.7353 100.511 32.7315 99.8295V94.2727H35.152V99.3977C35.1558 99.9129 35.294 100.32 35.5668 100.619C35.8395 100.919 36.205 101.068 36.6634 101.068C36.955 101.068 37.2277 101.002 37.4815 100.869C37.7353 100.733 37.9399 100.532 38.0952 100.267C38.2543 100.002 38.3319 99.6742 38.3281 99.2841ZM42.6847 106.273V94.2727H45.071V95.7386H45.179C45.285 95.5038 45.4384 95.2652 45.6392 95.0227C45.8438 94.7765 46.1089 94.572 46.4347 94.4091C46.7642 94.2424 47.1733 94.1591 47.6619 94.1591C48.2983 94.1591 48.8854 94.3258 49.4233 94.6591C49.9612 94.9886 50.3911 95.4867 50.7131 96.1534C51.035 96.8163 51.196 97.6477 51.196 98.6477C51.196 99.6212 51.0388 100.443 50.7244 101.114C50.4138 101.78 49.9896 102.286 49.4517 102.631C48.9176 102.972 48.3191 103.142 47.6562 103.142C47.1866 103.142 46.7869 103.064 46.4574 102.909C46.1316 102.754 45.8646 102.559 45.6562 102.324C45.4479 102.085 45.2888 101.845 45.179 101.602H45.1051V106.273H42.6847ZM45.054 98.6364C45.054 99.1553 45.1259 99.608 45.2699 99.9943C45.4138 100.381 45.6222 100.682 45.8949 100.898C46.1676 101.11 46.4991 101.216 46.8892 101.216C47.2831 101.216 47.6165 101.108 47.8892 100.892C48.1619 100.672 48.3684 100.369 48.5085 99.983C48.6525 99.5928 48.7244 99.1439 48.7244 98.6364C48.7244 98.1326 48.6544 97.6894 48.5142 97.3068C48.3741 96.9242 48.1676 96.625 47.8949 96.4091C47.6222 96.1932 47.2869 96.0852 46.8892 96.0852C46.4953 96.0852 46.1619 96.1894 45.8892 96.3977C45.6203 96.6061 45.4138 96.9015 45.2699 97.2841C45.1259 97.6667 45.054 98.1174 45.054 98.6364ZM53.3438 98.3352C53.3438 96.9261 53.5312 95.6288 53.9062 94.4432C54.285 93.2576 54.8627 92.1591 55.6392 91.1477H57.9517C57.6563 91.5227 57.3816 91.9811 57.1278 92.5227C56.8741 93.0606 56.6525 93.6515 56.4631 94.2955C56.2737 94.9394 56.1259 95.6061 56.0199 96.2955C55.9138 96.9811 55.8608 97.661 55.8608 98.3352C55.8608 99.233 55.9517 100.14 56.1335 101.057C56.3191 101.97 56.5691 102.818 56.8835 103.602C57.2017 104.386 57.5578 105.028 57.9517 105.528H55.6392C54.8627 104.517 54.285 103.419 53.9062 102.233C53.5312 101.047 53.3438 99.7481 53.3438 98.3352ZM63.4361 98.3352C63.4361 99.7481 63.2467 101.047 62.8679 102.233C62.4929 103.419 61.9171 104.517 61.1406 105.528H58.8281C59.1236 105.153 59.3982 104.695 59.652 104.153C59.9058 103.612 60.1274 103.021 60.3168 102.381C60.5062 101.737 60.6539 101.07 60.7599 100.381C60.866 99.6913 60.919 99.0095 60.919 98.3352C60.919 97.4375 60.8262 96.5322 60.6406 95.6193C60.4588 94.7027 60.2088 93.8542 59.8906 93.0739C59.5762 92.2898 59.2221 91.6477 58.8281 91.1477H61.1406C61.9171 92.1591 62.4929 93.2576 62.8679 94.4432C63.2467 95.6288 63.4361 96.9261 63.4361 98.3352ZM65.4318 98.3864V97.2443C66.0871 97.2443 66.5417 97.1136 66.7955 96.8523C67.0492 96.5909 67.1761 96.1686 67.1761 95.5852V94.3295C67.1761 93.6288 67.2727 93.0682 67.4659 92.6477C67.6629 92.2235 67.9356 91.9034 68.2841 91.6875C68.6364 91.4716 69.053 91.3277 69.5341 91.2557C70.0152 91.1837 70.5417 91.1477 71.1136 91.1477V92.9545C70.6667 92.9545 70.3258 93.0133 70.0909 93.1307C69.8598 93.2443 69.7027 93.4223 69.6193 93.6648C69.536 93.9034 69.4943 94.2064 69.4943 94.5739V96.233C69.4943 96.5208 69.4413 96.7955 69.3352 97.0568C69.2292 97.3144 69.0322 97.5436 68.7443 97.7443C68.4564 97.9413 68.0455 98.0985 67.5114 98.2159C66.9773 98.3295 66.2841 98.3864 65.4318 98.3864ZM71.1136 105.528C70.5417 105.528 70.0152 105.492 69.5341 105.42C69.053 105.348 68.6364 105.205 68.2841 104.989C67.9356 104.773 67.6629 104.453 67.4659 104.028C67.2727 103.608 67.1761 103.047 67.1761 102.347V101.085C67.1761 100.502 67.0492 100.08 66.7955 99.8182C66.5417 99.5568 66.0871 99.4261 65.4318 99.4261V98.2841C66.2841 98.2841 66.9773 98.3428 67.5114 98.4602C68.0455 98.5739 68.4564 98.7311 68.7443 98.9318C69.0322 99.1288 69.2292 99.358 69.3352 99.6193C69.4413 99.8769 69.4943 100.152 69.4943 100.443V102.102C69.4943 102.466 69.536 102.767 69.6193 103.006C69.7027 103.248 69.8598 103.426 70.0909 103.54C70.3258 103.657 70.6667 103.716 71.1136 103.716V105.528ZM65.4318 99.4261V97.2443H67.4716V99.4261H65.4318ZM77.5355 98.2841V99.4261C76.884 99.4261 76.4295 99.5568 76.1719 99.8182C75.9181 100.08 75.7912 100.502 75.7912 101.085V102.347C75.7912 103.047 75.6927 103.608 75.4957 104.028C75.3026 104.453 75.0298 104.773 74.6776 104.989C74.3291 105.205 73.9143 105.348 73.4332 105.42C72.956 105.492 72.4295 105.528 71.8537 105.528V103.716C72.3007 103.716 72.6397 103.657 72.8707 103.54C73.1056 103.426 73.2647 103.248 73.348 103.006C73.4313 102.767 73.473 102.466 73.473 102.102V100.443C73.473 100.152 73.526 99.8769 73.6321 99.6193C73.7382 99.358 73.9351 99.1288 74.223 98.9318C74.5109 98.7311 74.9219 98.5739 75.456 98.4602C75.9901 98.3428 76.6832 98.2841 77.5355 98.2841ZM71.8537 91.1477C72.4295 91.1477 72.956 91.1837 73.4332 91.2557C73.9143 91.3277 74.3291 91.4716 74.6776 91.6875C75.0298 91.9034 75.3026 92.2235 75.4957 92.6477C75.6927 93.0682 75.7912 93.6288 75.7912 94.3295V95.5852C75.7912 96.1686 75.9181 96.5909 76.1719 96.8523C76.4295 97.1136 76.884 97.2443 77.5355 97.2443V98.3864C76.6832 98.3864 75.9901 98.3295 75.456 98.2159C74.9219 98.0985 74.5109 97.9413 74.223 97.7443C73.9351 97.5436 73.7382 97.3144 73.6321 97.0568C73.526 96.7955 73.473 96.5208 73.473 96.233V94.5739C73.473 94.2064 73.4313 93.9034 73.348 93.6648C73.2647 93.4223 73.1056 93.2443 72.8707 93.1307C72.6397 93.0133 72.3007 92.9545 71.8537 92.9545V91.1477ZM77.5355 97.2443V99.4261H75.4957V97.2443H77.5355Z" fill="black"/>
<path d="M11.1818 188.142C10.5189 188.142 9.91856 187.972 9.38068 187.631C8.84659 187.286 8.42235 186.78 8.10795 186.114C7.79735 185.443 7.64205 184.621 7.64205 183.648C7.64205 182.648 7.80303 181.816 8.125 181.153C8.44697 180.487 8.875 179.989 9.40909 179.659C9.94697 179.326 10.536 179.159 11.1761 179.159C11.6648 179.159 12.072 179.242 12.3977 179.409C12.7273 179.572 12.9924 179.777 13.1932 180.023C13.3977 180.265 13.553 180.504 13.6591 180.739H13.733V176.364H16.1477V188H13.7614V186.602H13.6591C13.5455 186.845 13.3845 187.085 13.1761 187.324C12.9716 187.559 12.7045 187.754 12.375 187.909C12.0492 188.064 11.6515 188.142 11.1818 188.142ZM11.9489 186.216C12.339 186.216 12.6686 186.11 12.9375 185.898C13.2102 185.682 13.4186 185.381 13.5625 184.994C13.7102 184.608 13.7841 184.155 13.7841 183.636C13.7841 183.117 13.7121 182.667 13.5682 182.284C13.4242 181.902 13.2159 181.606 12.9432 181.398C12.6705 181.189 12.339 181.085 11.9489 181.085C11.5511 181.085 11.2159 181.193 10.9432 181.409C10.6705 181.625 10.464 181.924 10.3239 182.307C10.1837 182.689 10.1136 183.133 10.1136 183.636C10.1136 184.144 10.1837 184.593 10.3239 184.983C10.4678 185.369 10.6742 185.672 10.9432 185.892C11.2159 186.108 11.5511 186.216 11.9489 186.216ZM18.1378 188V179.273H20.4844V180.795H20.5753C20.7344 180.254 21.0014 179.845 21.3764 179.568C21.7514 179.288 22.1832 179.148 22.6719 179.148C22.7931 179.148 22.9238 179.155 23.0639 179.17C23.2041 179.186 23.3272 179.206 23.4332 179.233V181.381C23.3196 181.347 23.1624 181.316 22.9616 181.29C22.7609 181.263 22.5772 181.25 22.4105 181.25C22.0545 181.25 21.7363 181.328 21.456 181.483C21.1795 181.634 20.9598 181.847 20.7969 182.119C20.6378 182.392 20.5582 182.706 20.5582 183.062V188H18.1378ZM26.9233 188.165C26.3665 188.165 25.8703 188.068 25.4347 187.875C24.9991 187.678 24.6544 187.388 24.4006 187.006C24.1506 186.619 24.0256 186.138 24.0256 185.562C24.0256 185.078 24.1146 184.67 24.2926 184.341C24.4706 184.011 24.7131 183.746 25.0199 183.545C25.3267 183.345 25.6752 183.193 26.0653 183.091C26.4593 182.989 26.8722 182.917 27.304 182.875C27.8116 182.822 28.2206 182.773 28.5312 182.727C28.8419 182.678 29.0672 182.606 29.2074 182.511C29.3475 182.417 29.4176 182.277 29.4176 182.091V182.057C29.4176 181.697 29.304 181.419 29.0767 181.222C28.8532 181.025 28.535 180.926 28.1222 180.926C27.6866 180.926 27.34 181.023 27.0824 181.216C26.8248 181.405 26.6544 181.644 26.571 181.932L24.3324 181.75C24.446 181.22 24.6695 180.761 25.0028 180.375C25.3362 179.985 25.7661 179.686 26.2926 179.477C26.8229 179.265 27.4366 179.159 28.1335 179.159C28.6184 179.159 29.0824 179.216 29.5256 179.33C29.9725 179.443 30.3684 179.619 30.7131 179.858C31.0616 180.097 31.3362 180.403 31.5369 180.778C31.7377 181.15 31.8381 181.595 31.8381 182.114V188H29.5426V186.79H29.4744C29.3343 187.062 29.1468 187.303 28.9119 187.511C28.6771 187.716 28.3949 187.877 28.0653 187.994C27.7358 188.108 27.3551 188.165 26.9233 188.165ZM27.6165 186.494C27.9725 186.494 28.2869 186.424 28.5597 186.284C28.8324 186.14 29.0464 185.947 29.2017 185.705C29.357 185.462 29.4347 185.187 29.4347 184.881V183.955C29.3589 184.004 29.2547 184.049 29.1222 184.091C28.9934 184.129 28.8475 184.165 28.6847 184.199C28.5218 184.229 28.3589 184.258 28.196 184.284C28.0331 184.307 27.8854 184.328 27.7528 184.347C27.4688 184.388 27.2206 184.455 27.0085 184.545C26.7964 184.636 26.6316 184.759 26.5142 184.915C26.3968 185.066 26.3381 185.256 26.3381 185.483C26.3381 185.812 26.4574 186.064 26.696 186.239C26.9384 186.409 27.2453 186.494 27.6165 186.494ZM35.4375 188L33.0625 179.273H35.5114L36.8636 185.136H36.9432L38.3523 179.273H40.7557L42.1875 185.102H42.2614L43.5909 179.273H46.0341L43.6648 188H41.1023L39.6023 182.511H39.4943L37.9943 188H35.4375ZM47.8594 183.335C47.8594 181.926 48.0469 180.629 48.4219 179.443C48.8007 178.258 49.3783 177.159 50.1548 176.148H52.4673C52.1719 176.523 51.8973 176.981 51.6435 177.523C51.3897 178.061 51.1681 178.652 50.9787 179.295C50.7893 179.939 50.6416 180.606 50.5355 181.295C50.4295 181.981 50.3764 182.661 50.3764 183.335C50.3764 184.233 50.4673 185.14 50.6491 186.057C50.8348 186.97 51.0848 187.818 51.3991 188.602C51.7173 189.386 52.0734 190.028 52.4673 190.528H50.1548C49.3783 189.517 48.8007 188.419 48.4219 187.233C48.0469 186.047 47.8594 184.748 47.8594 183.335ZM57.9517 183.335C57.9517 184.748 57.7623 186.047 57.3835 187.233C57.0085 188.419 56.4328 189.517 55.6562 190.528H53.3438C53.6392 190.153 53.9138 189.695 54.1676 189.153C54.4214 188.612 54.643 188.021 54.8324 187.381C55.0218 186.737 55.1695 186.07 55.2756 185.381C55.3816 184.691 55.4347 184.009 55.4347 183.335C55.4347 182.437 55.3419 181.532 55.1562 180.619C54.9744 179.703 54.7244 178.854 54.4062 178.074C54.0919 177.29 53.7377 176.648 53.3438 176.148H55.6562C56.4328 177.159 57.0085 178.258 57.3835 179.443C57.7623 180.629 57.9517 181.926 57.9517 183.335ZM59.9474 183.386V182.244C60.6027 182.244 61.0573 182.114 61.3111 181.852C61.5649 181.591 61.6918 181.169 61.6918 180.585V179.33C61.6918 178.629 61.7884 178.068 61.9815 177.648C62.1785 177.223 62.4512 176.903 62.7997 176.688C63.152 176.472 63.5687 176.328 64.0497 176.256C64.5308 176.184 65.0573 176.148 65.6293 176.148V177.955C65.1823 177.955 64.8414 178.013 64.6065 178.131C64.3755 178.244 64.2183 178.422 64.1349 178.665C64.0516 178.903 64.0099 179.206 64.0099 179.574V181.233C64.0099 181.521 63.9569 181.795 63.8509 182.057C63.7448 182.314 63.5478 182.544 63.2599 182.744C62.9721 182.941 62.5611 183.098 62.027 183.216C61.4929 183.33 60.7997 183.386 59.9474 183.386ZM65.6293 190.528C65.0573 190.528 64.5308 190.492 64.0497 190.42C63.5687 190.348 63.152 190.205 62.7997 189.989C62.4512 189.773 62.1785 189.453 61.9815 189.028C61.7884 188.608 61.6918 188.047 61.6918 187.347V186.085C61.6918 185.502 61.5649 185.08 61.3111 184.818C61.0573 184.557 60.6027 184.426 59.9474 184.426V183.284C60.7997 183.284 61.4929 183.343 62.027 183.46C62.5611 183.574 62.9721 183.731 63.2599 183.932C63.5478 184.129 63.7448 184.358 63.8509 184.619C63.9569 184.877 64.0099 185.152 64.0099 185.443V187.102C64.0099 187.466 64.0516 187.767 64.1349 188.006C64.2183 188.248 64.3755 188.426 64.6065 188.54C64.8414 188.657 65.1823 188.716 65.6293 188.716V190.528ZM59.9474 184.426V182.244H61.9872V184.426H59.9474ZM72.0511 183.284V184.426C71.3996 184.426 70.9451 184.557 70.6875 184.818C70.4337 185.08 70.3068 185.502 70.3068 186.085V187.347C70.3068 188.047 70.2083 188.608 70.0114 189.028C69.8182 189.453 69.5455 189.773 69.1932 189.989C68.8447 190.205 68.4299 190.348 67.9489 190.42C67.4716 190.492 66.9451 190.528 66.3693 190.528V188.716C66.8163 188.716 67.1553 188.657 67.3864 188.54C67.6212 188.426 67.7803 188.248 67.8636 188.006C67.947 187.767 67.9886 187.466 67.9886 187.102V185.443C67.9886 185.152 68.0417 184.877 68.1477 184.619C68.2538 184.358 68.4508 184.129 68.7386 183.932C69.0265 183.731 69.4375 183.574 69.9716 183.46C70.5057 183.343 71.1989 183.284 72.0511 183.284ZM66.3693 176.148C66.9451 176.148 67.4716 176.184 67.9489 176.256C68.4299 176.328 68.8447 176.472 69.1932 176.688C69.5455 176.903 69.8182 177.223 70.0114 177.648C70.2083 178.068 70.3068 178.629 70.3068 179.33V180.585C70.3068 181.169 70.4337 181.591 70.6875 181.852C70.9451 182.114 71.3996 182.244 72.0511 182.244V183.386C71.1989 183.386 70.5057 183.33 69.9716 183.216C69.4375 183.098 69.0265 182.941 68.7386 182.744C68.4508 182.544 68.2538 182.314 68.1477 182.057C68.0417 181.795 67.9886 181.521 67.9886 181.233V179.574C67.9886 179.206 67.947 178.903 67.8636 178.665C67.7803 178.422 67.6212 178.244 67.3864 178.131C67.1553 178.013 66.8163 177.955 66.3693 177.955V176.148ZM72.0511 182.244V184.426H70.0114V182.244H72.0511Z" fill="black"/>
<path d="M28.5 30C28.5 29.1716 27.8284 28.5 27 28.5C26.1716 28.5 25.5 29.1716 25.5 30L28.5 30ZM25.9393 78.0607C26.5251 78.6464 27.4749 78.6464 28.0607 78.0607L37.6066 68.5147C38.1924 67.9289 38.1924 66.9792 37.6066 66.3934C37.0208 65.8076 36.0711 65.8076 35.4853 66.3934L27 74.8787L18.5147 66.3934C17.9289 65.8076 16.9792 65.8076 16.3934 66.3934C15.8076 66.9792 15.8076 67.9289 16.3934 68.5147L25.9393 78.0607ZM25.5 30L25.5 77L28.5 77L28.5 30L25.5 30Z" fill="black"/>
<path d="M28.5 115C28.5 114.172 27.8284 113.5 27 113.5C26.1716 113.5 25.5 114.172 25.5 115L28.5 115ZM25.9393 163.061C26.5251 163.646 27.4749 163.646 28.0607 163.061L37.6066 153.515C38.1924 152.929 38.1924 151.979 37.6066 151.393C37.0208 150.808 36.0711 150.808 35.4853 151.393L27 159.879L18.5147 151.393C17.9289 150.808 16.9792 150.808 16.3934 151.393C15.8076 151.979 15.8076 152.929 16.3934 153.515L25.9393 163.061ZM25.5 115L25.5 162L28.5 162L28.5 115L25.5 115Z" fill="black"/>
<path d="M44.5182 150.52C44.3897 151.338 44.9489 152.106 45.7673 152.234L59.1039 154.328C59.9223 154.457 60.6899 153.898 60.8184 153.079C60.9469 152.261 60.3877 151.493 59.5693 151.365L47.7145 149.503L49.5761 137.649C49.7046 136.83 49.1453 136.062 48.3269 135.934C47.5085 135.805 46.7409 136.365 46.6124 137.183L44.5182 150.52ZM27.7636 203.163C27.5775 202.356 26.7723 201.852 25.965 202.038C25.1577 202.224 24.6542 203.03 24.8402 203.837L27.7636 203.163ZM125.5 192C125.5 219.338 103.338 241.5 76 241.5V244.5C104.995 244.5 128.5 220.995 128.5 192H125.5ZM76 142.5C103.338 142.5 125.5 164.662 125.5 192H128.5C128.5 163.005 104.995 139.5 76 139.5V142.5ZM46.8833 151.965C55.054 146.012 65.1147 142.5 76 142.5V139.5C64.4587 139.5 53.7833 143.226 45.1167 149.54L46.8833 151.965ZM76 241.5C52.5021 241.5 32.8251 225.126 27.7636 203.163L24.8402 203.837C30.2085 227.131 51.0741 244.5 76 244.5V241.5Z" fill="black"/>
</svg>
