<svg width="517" height="531" viewBox="0 0 517 531" fill="none" xmlns="http://www.w3.org/2000/svg">
<rect x="31.5" y="86.5" width="399" height="399" stroke="black" stroke-dasharray="5 5"/>
<rect x="119.5" y="174.5" width="223" height="223" stroke="black"/>
<rect x="179.5" y="256.5" width="103" height="59" stroke="black"/>
<path d="M41 50.5L31 45.7265V57.2735L41 52.5V50.5ZM421 52.5L431 57.2735V45.7265L421 50.5V52.5ZM40 52.5H422V50.5H40V52.5Z" fill="black"/>
<path d="M129 142L119 137.226V148.774L129 144V142ZM333 144L343 148.774V137.226L333 142V144ZM128 144H334V142H128V144Z" fill="black"/>
<path d="M189 234L179 229.226V240.774L189 236V234ZM273 236L283 240.774V229.226L273 234V236ZM188 236H274V234H188V236Z" fill="#2F9EC5"/>
<path d="M462.975 96.0025L467.773 86.0145L456.227 85.9855L460.975 95.9975L462.975 96.0025ZM460.025 474.998L455.227 484.986L466.773 485.014L462.025 475.003L460.025 474.998ZM460.977 94.9975L460.023 475.998L462.023 476.003L462.977 95.0025L460.977 94.9975Z" fill="black"/>
<path d="M373 184L377.774 174L366.226 174L371 184L373 184ZM371 388L366.226 398L377.773 398L373 388L371 388ZM371 183L371 389L373 389L373 183L371 183Z" fill="black"/>
<path d="M302 266L306.774 256L295.226 256L300 266L302 266ZM300 306L295.226 316L306.774 316L302 306L300 306ZM300 265L300 307L302 307L302 265L300 265Z" fill="#2F9EC5"/>
<path d="M169.504 30.8409L167.697 31.3523C167.584 31.0511 167.416 30.7585 167.195 30.4744C166.979 30.1847 166.683 29.946 166.308 29.7585C165.933 29.571 165.453 29.4773 164.868 29.4773C164.067 29.4773 163.399 29.6619 162.865 30.0312C162.337 30.3949 162.072 30.858 162.072 31.4205C162.072 31.9205 162.254 32.3153 162.618 32.6051C162.982 32.8949 163.55 33.1364 164.322 33.3295L166.266 33.8068C167.436 34.0909 168.308 34.5256 168.882 35.1108C169.456 35.6903 169.743 36.4375 169.743 37.3523C169.743 38.1023 169.527 38.7727 169.095 39.3636C168.669 39.9545 168.072 40.4205 167.305 40.7614C166.538 41.1023 165.646 41.2727 164.629 41.2727C163.294 41.2727 162.189 40.983 161.314 40.4034C160.439 39.8239 159.885 38.9773 159.652 37.8636L161.561 37.3864C161.743 38.0909 162.087 38.6193 162.592 38.9716C163.104 39.3239 163.771 39.5 164.595 39.5C165.533 39.5 166.277 39.3011 166.828 38.9034C167.385 38.5 167.663 38.017 167.663 37.4545C167.663 37 167.504 36.6193 167.186 36.3125C166.868 36 166.379 35.767 165.72 35.6136L163.538 35.1023C162.339 34.8182 161.459 34.3778 160.896 33.7812C160.339 33.179 160.061 32.4261 160.061 31.5227C160.061 30.7841 160.268 30.1307 160.683 29.5625C161.104 28.9943 161.675 28.5483 162.396 28.2244C163.124 27.9006 163.947 27.7386 164.868 27.7386C166.163 27.7386 167.18 28.0227 167.919 28.5909C168.663 29.1591 169.192 29.9091 169.504 30.8409ZM174.646 36.2273L174.612 33.7386H175.021L180.748 27.9091H183.237L177.134 34.0795H176.964L174.646 36.2273ZM172.771 41V23.5455H174.782V41H172.771ZM181.089 41L175.975 34.5227L177.407 33.125L183.646 41H181.089ZM190.775 41.2727C189.513 41.2727 188.425 40.9943 187.511 40.4375C186.602 39.875 185.9 39.0909 185.406 38.0852C184.917 37.0739 184.673 35.8977 184.673 34.5568C184.673 33.2159 184.917 32.0341 185.406 31.0114C185.9 29.983 186.587 29.1818 187.468 28.608C188.354 28.0284 189.388 27.7386 190.57 27.7386C191.252 27.7386 191.925 27.8523 192.59 28.0795C193.255 28.3068 193.86 28.6761 194.406 29.1875C194.951 29.6932 195.386 30.3636 195.71 31.1989C196.033 32.0341 196.195 33.0625 196.195 34.2841V35.1364H186.104V33.3977H194.15C194.15 32.6591 194.002 32 193.707 31.4205C193.417 30.8409 193.002 30.3835 192.462 30.0483C191.928 29.7131 191.298 29.5455 190.57 29.5455C189.769 29.5455 189.076 29.7443 188.491 30.142C187.911 30.5341 187.465 31.0455 187.153 31.6761C186.84 32.3068 186.684 32.983 186.684 33.7045V34.8636C186.684 35.8523 186.854 36.6903 187.195 37.3778C187.542 38.0597 188.022 38.5795 188.636 38.9375C189.249 39.2898 189.962 39.4659 190.775 39.4659C191.303 39.4659 191.781 39.392 192.207 39.2443C192.638 39.0909 193.011 38.8636 193.323 38.5625C193.636 38.2557 193.877 37.875 194.048 37.4205L195.991 37.9659C195.786 38.625 195.442 39.2045 194.96 39.7045C194.477 40.1989 193.88 40.5852 193.17 40.8636C192.46 41.1364 191.661 41.2727 190.775 41.2727ZM204.948 27.9091V29.6136H198.164V27.9091H204.948ZM200.141 24.7727H202.153V37.25C202.153 37.8182 202.235 38.2443 202.4 38.5284C202.57 38.8068 202.786 38.9943 203.048 39.0909C203.315 39.1818 203.596 39.2273 203.891 39.2273C204.113 39.2273 204.295 39.2159 204.437 39.1932C204.579 39.1648 204.692 39.142 204.778 39.125L205.187 40.9318C205.05 40.983 204.86 41.0341 204.616 41.0852C204.371 41.142 204.062 41.1705 203.687 41.1705C203.119 41.1705 202.562 41.0483 202.016 40.804C201.477 40.5597 201.028 40.1875 200.67 39.6875C200.317 39.1875 200.141 38.5568 200.141 37.7955V24.7727ZM213.151 41.2727C211.924 41.2727 210.867 40.983 209.981 40.4034C209.094 39.8239 208.413 39.0256 207.935 38.0085C207.458 36.9915 207.219 35.8295 207.219 34.5227C207.219 33.1932 207.464 32.0199 207.952 31.0028C208.447 29.9801 209.134 29.1818 210.015 28.608C210.901 28.0284 211.935 27.7386 213.117 27.7386C214.038 27.7386 214.867 27.9091 215.606 28.25C216.344 28.5909 216.95 29.0682 217.421 29.6818C217.893 30.2955 218.185 31.0114 218.299 31.8295H216.288C216.134 31.233 215.793 30.7045 215.265 30.2443C214.742 29.7784 214.038 29.5455 213.151 29.5455C212.367 29.5455 211.68 29.75 211.089 30.1591C210.504 30.5625 210.046 31.1335 209.717 31.8722C209.393 32.6051 209.231 33.4659 209.231 34.4545C209.231 35.4659 209.39 36.3466 209.708 37.0966C210.032 37.8466 210.487 38.429 211.072 38.8438C211.663 39.2585 212.356 39.4659 213.151 39.4659C213.674 39.4659 214.148 39.375 214.575 39.1932C215.001 39.0114 215.362 38.75 215.657 38.4091C215.952 38.0682 216.163 37.6591 216.288 37.1818H218.299C218.185 37.9545 217.904 38.6506 217.455 39.2699C217.012 39.8835 216.424 40.3722 215.691 40.7358C214.964 41.0938 214.117 41.2727 213.151 41.2727ZM223.251 33.125V41H221.239V23.5455H223.251V29.9545H223.421C223.728 29.2784 224.188 28.7415 224.802 28.3438C225.421 27.9403 226.245 27.7386 227.273 27.7386C228.165 27.7386 228.947 27.9176 229.617 28.2756C230.288 28.6278 230.808 29.1705 231.177 29.9034C231.552 30.6307 231.739 31.5568 231.739 32.6818V41H229.728V32.8182C229.728 31.7784 229.458 30.9744 228.918 30.4062C228.384 29.8324 227.643 29.5455 226.694 29.5455C226.035 29.5455 225.444 29.6847 224.921 29.9631C224.404 30.2415 223.995 30.6477 223.694 31.1818C223.398 31.7159 223.251 32.3636 223.251 33.125ZM245.135 41L241.146 27.9091H243.26L246.089 37.9318H246.226L249.021 27.9091H251.169L253.93 37.8977H254.067L256.896 27.9091H259.01L255.021 41H253.044L250.18 30.9432H249.976L247.112 41H245.135ZM261.669 41V27.9091H263.68V41H261.669ZM262.692 25.7273C262.3 25.7273 261.962 25.5938 261.678 25.3267C261.399 25.0597 261.26 24.7386 261.26 24.3636C261.26 23.9886 261.399 23.6676 261.678 23.4006C261.962 23.1335 262.3 23 262.692 23C263.084 23 263.419 23.1335 263.697 23.4006C263.982 23.6676 264.124 23.9886 264.124 24.3636C264.124 24.7386 263.982 25.0597 263.697 25.3267C263.419 25.5938 263.084 25.7273 262.692 25.7273ZM272.308 41.2727C271.217 41.2727 270.254 40.9972 269.418 40.446C268.583 39.8892 267.93 39.1051 267.458 38.0938C266.987 37.0767 266.751 35.875 266.751 34.4886C266.751 33.1136 266.987 31.9205 267.458 30.9091C267.93 29.8977 268.586 29.1165 269.427 28.5653C270.268 28.0142 271.239 27.7386 272.342 27.7386C273.194 27.7386 273.867 27.8807 274.362 28.1648C274.862 28.4432 275.242 28.7614 275.504 29.1193C275.771 29.4716 275.978 29.7614 276.126 29.9886H276.296V23.5455H278.308V41H276.364V38.9886H276.126C275.978 39.2273 275.768 39.5284 275.495 39.892C275.222 40.25 274.833 40.571 274.327 40.8551C273.822 41.1335 273.148 41.2727 272.308 41.2727ZM272.58 39.4659C273.387 39.4659 274.069 39.2557 274.626 38.8352C275.183 38.4091 275.606 37.821 275.896 37.071C276.185 36.3153 276.33 35.4432 276.33 34.4545C276.33 33.4773 276.188 32.6222 275.904 31.8892C275.62 31.1506 275.2 30.5767 274.643 30.1676C274.086 29.7528 273.398 29.5455 272.58 29.5455C271.728 29.5455 271.018 29.7642 270.45 30.2017C269.887 30.6335 269.464 31.2216 269.18 31.9659C268.901 32.7045 268.762 33.5341 268.762 34.4545C268.762 35.3864 268.904 36.233 269.188 36.9943C269.478 37.75 269.904 38.3523 270.467 38.8011C271.035 39.2443 271.739 39.4659 272.58 39.4659ZM287.964 27.9091V29.6136H281.18V27.9091H287.964ZM283.157 24.7727H285.168V37.25C285.168 37.8182 285.251 38.2443 285.415 38.5284C285.586 38.8068 285.802 38.9943 286.063 39.0909C286.33 39.1818 286.612 39.2273 286.907 39.2273C287.129 39.2273 287.31 39.2159 287.452 39.1932C287.594 39.1648 287.708 39.142 287.793 39.125L288.202 40.9318C288.066 40.983 287.876 41.0341 287.631 41.0852C287.387 41.142 287.077 41.1705 286.702 41.1705C286.134 41.1705 285.577 41.0483 285.032 40.804C284.492 40.5597 284.043 40.1875 283.685 39.6875C283.333 39.1875 283.157 38.5568 283.157 37.7955V24.7727ZM293.282 33.125V41H291.271V23.5455H293.282V29.9545H293.452C293.759 29.2784 294.219 28.7415 294.833 28.3438C295.452 27.9403 296.276 27.7386 297.305 27.7386C298.197 27.7386 298.978 27.9176 299.648 28.2756C300.319 28.6278 300.839 29.1705 301.208 29.9034C301.583 30.6307 301.771 31.5568 301.771 32.6818V41H299.759V32.8182C299.759 31.7784 299.489 30.9744 298.95 30.4062C298.415 29.8324 297.674 29.5455 296.725 29.5455C296.066 29.5455 295.475 29.6847 294.952 29.9631C294.435 30.2415 294.026 30.6477 293.725 31.1818C293.43 31.7159 293.282 32.3636 293.282 33.125Z" fill="black"/>
<path d="M485.159 220.461L484.648 218.654C484.949 218.541 485.241 218.373 485.526 218.152C485.815 217.936 486.054 217.64 486.241 217.265C486.429 216.89 486.523 216.41 486.523 215.825C486.523 215.024 486.338 214.356 485.969 213.822C485.605 213.294 485.142 213.029 484.58 213.029C484.08 213.029 483.685 213.211 483.395 213.575C483.105 213.939 482.864 214.507 482.67 215.279L482.193 217.223C481.909 218.393 481.474 219.265 480.889 219.839C480.31 220.413 479.562 220.7 478.648 220.7C477.898 220.7 477.227 220.484 476.636 220.052C476.045 219.626 475.58 219.029 475.239 218.262C474.898 217.495 474.727 216.603 474.727 215.586C474.727 214.251 475.017 213.146 475.597 212.271C476.176 211.396 477.023 210.842 478.136 210.609L478.614 212.518C477.909 212.7 477.381 213.044 477.028 213.549C476.676 214.061 476.5 214.728 476.5 215.552C476.5 216.49 476.699 217.234 477.097 217.785C477.5 218.342 477.983 218.62 478.545 218.62C479 218.62 479.381 218.461 479.687 218.143C480 217.825 480.233 217.336 480.386 216.677L480.898 214.495C481.182 213.297 481.622 212.416 482.219 211.853C482.821 211.297 483.574 211.018 484.477 211.018C485.216 211.018 485.869 211.225 486.437 211.64C487.006 212.061 487.452 212.632 487.776 213.353C488.099 214.081 488.261 214.904 488.261 215.825C488.261 217.12 487.977 218.137 487.409 218.876C486.841 219.62 486.091 220.149 485.159 220.461ZM479.773 225.603L482.261 225.569L482.261 225.978L488.091 231.705L488.091 234.194L481.92 228.091L481.92 227.921L479.773 225.603ZM475 223.728L492.455 223.728L492.455 225.739L475 225.739L475 223.728ZM475 232.046L481.477 226.932L482.875 228.364L475 234.603L475 232.046ZM474.727 241.732C474.727 240.471 475.006 239.382 475.562 238.468C476.125 237.559 476.909 236.857 477.915 236.363C478.926 235.874 480.102 235.63 481.443 235.63C482.784 235.63 483.966 235.874 484.989 236.363C486.017 236.857 486.818 237.544 487.392 238.425C487.972 239.311 488.261 240.346 488.261 241.527C488.261 242.209 488.148 242.882 487.92 243.547C487.693 244.212 487.324 244.817 486.812 245.363C486.307 245.908 485.636 246.343 484.801 246.667C483.966 246.99 482.937 247.152 481.716 247.152L480.864 247.152L480.864 237.061L482.602 237.061L482.602 245.107C483.341 245.107 484 244.959 484.58 244.664C485.159 244.374 485.616 243.959 485.952 243.419C486.287 242.885 486.455 242.255 486.455 241.527C486.455 240.726 486.256 240.033 485.858 239.448C485.466 238.868 484.955 238.422 484.324 238.11C483.693 237.797 483.017 237.641 482.295 237.641L481.136 237.641C480.148 237.641 479.31 237.811 478.622 238.152C477.94 238.499 477.42 238.979 477.062 239.593C476.71 240.206 476.534 240.919 476.534 241.732C476.534 242.26 476.608 242.738 476.756 243.164C476.909 243.596 477.136 243.968 477.437 244.28C477.744 244.593 478.125 244.834 478.58 245.005L478.034 246.948C477.375 246.743 476.795 246.4 476.295 245.917C475.801 245.434 475.415 244.837 475.136 244.127C474.864 243.417 474.727 242.618 474.727 241.732ZM488.091 255.905L486.386 255.905L486.386 249.121L488.091 249.121L488.091 255.905ZM491.227 251.098L491.227 253.11L478.75 253.11C478.182 253.11 477.756 253.192 477.472 253.357C477.193 253.527 477.006 253.743 476.909 254.005C476.818 254.272 476.773 254.553 476.773 254.848C476.773 255.07 476.784 255.252 476.807 255.394C476.835 255.536 476.858 255.65 476.875 255.735L475.068 256.144C475.017 256.007 474.966 255.817 474.915 255.573C474.858 255.328 474.83 255.019 474.83 254.644C474.83 254.076 474.952 253.519 475.196 252.973C475.44 252.434 475.812 251.985 476.312 251.627C476.812 251.275 477.443 251.098 478.205 251.098L491.227 251.098ZM474.727 264.108C474.727 262.881 475.017 261.824 475.597 260.938C476.176 260.051 476.974 259.37 477.991 258.892C479.009 258.415 480.17 258.176 481.477 258.176C482.807 258.176 483.98 258.421 484.997 258.909C486.02 259.404 486.818 260.091 487.392 260.972C487.972 261.858 488.261 262.892 488.261 264.074C488.261 264.995 488.091 265.824 487.75 266.563C487.409 267.301 486.932 267.907 486.318 268.378C485.705 268.85 484.989 269.142 484.17 269.256L484.17 267.245C484.767 267.091 485.295 266.75 485.756 266.222C486.222 265.699 486.455 264.995 486.455 264.108C486.455 263.324 486.25 262.637 485.841 262.046C485.437 261.461 484.866 261.003 484.128 260.674C483.395 260.35 482.534 260.188 481.545 260.188C480.534 260.188 479.653 260.347 478.903 260.665C478.153 260.989 477.571 261.444 477.156 262.029C476.741 262.62 476.534 263.313 476.534 264.108C476.534 264.631 476.625 265.105 476.807 265.532C476.989 265.958 477.25 266.319 477.591 266.614C477.932 266.909 478.341 267.12 478.818 267.245L478.818 269.256C478.045 269.142 477.349 268.861 476.73 268.412C476.116 267.969 475.628 267.381 475.264 266.648C474.906 265.921 474.727 265.074 474.727 264.108ZM482.875 274.208L475 274.208L475 272.196L492.455 272.196L492.455 274.208L486.045 274.208L486.045 274.378C486.722 274.685 487.259 275.145 487.656 275.759C488.06 276.378 488.261 277.202 488.261 278.23C488.261 279.123 488.082 279.904 487.724 280.574C487.372 281.245 486.83 281.765 486.097 282.134C485.369 282.509 484.443 282.696 483.318 282.696L475 282.696L475 280.685L483.182 280.685C484.222 280.685 485.026 280.415 485.594 279.875C486.168 279.341 486.455 278.6 486.455 277.651C486.455 276.992 486.315 276.401 486.037 275.878C485.759 275.361 485.352 274.952 484.818 274.651C484.284 274.355 483.636 274.208 482.875 274.208ZM482.875 295.137L475 295.137L475 293.126L492.455 293.126L492.455 295.137L486.045 295.137L486.045 295.308C486.722 295.615 487.259 296.075 487.656 296.689C488.06 297.308 488.261 298.132 488.261 299.16C488.261 300.052 488.082 300.833 487.724 301.504C487.372 302.174 486.83 302.694 486.097 303.064C485.369 303.439 484.443 303.626 483.318 303.626L475 303.626L475 301.615L483.182 301.615C484.222 301.615 485.026 301.345 485.594 300.805C486.168 300.271 486.455 299.529 486.455 298.581C486.455 297.922 486.315 297.331 486.037 296.808C485.759 296.291 485.352 295.882 484.818 295.581C484.284 295.285 483.636 295.137 482.875 295.137ZM474.727 312.794C474.727 311.533 475.006 310.445 475.562 309.53C476.125 308.621 476.909 307.919 477.915 307.425C478.926 306.936 480.102 306.692 481.443 306.692C482.784 306.692 483.966 306.936 484.989 307.425C486.017 307.919 486.818 308.607 487.392 309.488C487.972 310.374 488.261 311.408 488.261 312.59C488.261 313.272 488.148 313.945 487.92 314.61C487.693 315.275 487.324 315.88 486.812 316.425C486.307 316.971 485.636 317.405 484.801 317.729C483.966 318.053 482.937 318.215 481.716 318.215L480.864 318.215L480.864 308.124L482.602 308.124L482.602 316.169C483.341 316.169 484 316.022 484.58 315.726C485.159 315.436 485.616 315.022 485.952 314.482C486.287 313.948 486.455 313.317 486.455 312.59C486.455 311.789 486.256 311.096 485.858 310.51C485.466 309.931 484.955 309.485 484.324 309.172C483.693 308.86 483.017 308.703 482.295 308.703L481.136 308.703C480.148 308.703 479.31 308.874 478.622 309.215C477.94 309.561 477.42 310.042 477.062 310.655C476.71 311.269 476.534 311.982 476.534 312.794C476.534 313.323 476.608 313.8 476.756 314.226C476.909 314.658 477.136 315.03 477.437 315.343C477.744 315.655 478.125 315.897 478.58 316.067L478.034 318.01C477.375 317.806 476.795 317.462 476.295 316.979C475.801 316.496 475.415 315.9 475.136 315.189C474.864 314.479 474.727 313.681 474.727 312.794ZM475 321.275L488.091 321.275L488.091 323.286L475 323.286L475 321.275ZM490.273 322.297C490.273 321.905 490.406 321.567 490.673 321.283C490.94 321.005 491.261 320.865 491.636 320.865C492.011 320.865 492.332 321.005 492.599 321.283C492.866 321.567 493 321.905 493 322.297C493 322.689 492.866 323.025 492.599 323.303C492.332 323.587 492.011 323.729 491.636 323.729C491.261 323.729 490.94 323.587 490.673 323.303C490.406 323.025 490.273 322.689 490.273 322.297ZM469.818 332.254C469.818 331.282 469.943 330.447 470.193 329.748C470.437 329.049 470.761 328.467 471.165 328.001C471.562 327.541 471.989 327.174 472.443 326.902L473.568 328.504C473.33 328.686 473.057 328.916 472.75 329.194C472.437 329.473 472.168 329.853 471.94 330.336C471.707 330.825 471.591 331.464 471.591 332.254C471.591 333.311 471.847 334.183 472.358 334.87C472.869 335.558 473.67 335.902 474.761 335.902L477.42 335.902L477.42 335.731C477.182 335.583 476.886 335.373 476.534 335.1C476.187 334.833 475.878 334.447 475.605 333.941C475.338 333.441 475.205 332.765 475.205 331.913C475.205 330.856 475.455 329.907 475.955 329.066C476.455 328.231 477.182 327.569 478.136 327.081C479.091 326.598 480.25 326.356 481.614 326.356C482.955 326.356 484.122 326.592 485.116 327.064C486.116 327.535 486.889 328.191 487.435 329.032C487.986 329.873 488.261 330.845 488.261 331.947C488.261 332.799 488.119 333.475 487.835 333.975C487.557 334.481 487.239 334.868 486.881 335.135C486.528 335.407 486.239 335.618 486.011 335.765L486.011 335.97L488.091 335.97L488.091 337.913L474.625 337.913C473.5 337.913 472.585 337.657 471.881 337.146C471.17 336.64 470.651 335.958 470.321 335.1C469.986 334.248 469.818 333.299 469.818 332.254ZM477.011 332.186C477.011 332.993 477.196 333.674 477.565 334.231C477.935 334.788 478.466 335.211 479.159 335.501C479.852 335.791 480.682 335.936 481.648 335.936C482.591 335.936 483.423 335.794 484.145 335.51C484.866 335.225 485.432 334.805 485.841 334.248C486.25 333.691 486.455 333.004 486.455 332.186C486.455 331.333 486.239 330.623 485.807 330.055C485.375 329.493 484.795 329.069 484.068 328.785C483.341 328.507 482.534 328.368 481.648 328.368C480.739 328.368 479.935 328.51 479.236 328.794C478.543 329.083 477.997 329.51 477.599 330.072C477.207 330.64 477.011 331.345 477.011 332.186ZM482.875 343.606L475 343.606L475 341.595L492.455 341.595L492.455 343.606L486.045 343.606L486.045 343.777C486.722 344.083 487.259 344.544 487.656 345.157C488.06 345.777 488.261 346.6 488.261 347.629C488.261 348.521 488.082 349.302 487.724 349.973C487.372 350.643 486.83 351.163 486.097 351.532C485.369 351.907 484.443 352.095 483.318 352.095L475 352.095L475 350.083L483.182 350.083C484.222 350.083 485.026 349.814 485.594 349.274C486.168 348.74 486.455 347.998 486.455 347.049C486.455 346.39 486.315 345.799 486.037 345.277C485.759 344.76 485.352 344.35 484.818 344.049C484.284 343.754 483.636 343.606 482.875 343.606ZM488.091 361.468L486.386 361.468L486.386 354.684L488.091 354.684L488.091 361.468ZM491.227 356.661L491.227 358.672L478.75 358.672C478.182 358.672 477.756 358.755 477.472 358.919C477.193 359.09 477.006 359.306 476.909 359.567C476.818 359.834 476.773 360.115 476.773 360.411C476.773 360.632 476.784 360.814 476.807 360.956C476.835 361.098 476.858 361.212 476.875 361.297L475.068 361.706C475.017 361.57 474.966 361.38 474.915 361.135C474.858 360.891 474.83 360.581 474.83 360.206C474.83 359.638 474.952 359.081 475.196 358.536C475.44 357.996 475.812 357.547 476.312 357.189C476.812 356.837 477.443 356.661 478.205 356.661L491.227 356.661Z" fill="black"/>
<path d="M385 228.231L402.455 228.231L402.455 230.242L396.011 230.242L396.011 230.413C396.239 230.56 396.528 230.765 396.881 231.026C397.239 231.293 397.557 231.674 397.835 232.168C398.119 232.668 398.261 233.344 398.261 234.197C398.261 235.299 397.986 236.271 397.435 237.112C396.884 237.952 396.102 238.609 395.091 239.08C394.08 239.552 392.886 239.788 391.511 239.788C390.125 239.788 388.923 239.552 387.906 239.08C386.895 238.609 386.111 237.955 385.554 237.12C385.003 236.285 384.727 235.322 384.727 234.231C384.727 233.39 384.866 232.717 385.145 232.211C385.429 231.705 385.75 231.316 386.108 231.043C386.472 230.771 386.773 230.56 387.011 230.413L387.011 230.174L385 230.174L385 228.231ZM391.545 230.208C390.557 230.208 389.685 230.353 388.929 230.643C388.179 230.933 387.591 231.356 387.165 231.913C386.744 232.469 386.534 233.151 386.534 233.958C386.534 234.799 386.756 235.501 387.199 236.063C387.648 236.631 388.25 237.058 389.006 237.342C389.767 237.631 390.614 237.776 391.545 237.776C392.466 237.776 393.295 237.634 394.034 237.35C394.778 237.072 395.366 236.648 395.798 236.08C396.236 235.518 396.455 234.81 396.455 233.958C396.455 233.14 396.247 232.452 395.832 231.896C395.423 231.339 394.849 230.918 394.111 230.634C393.378 230.35 392.523 230.208 391.545 230.208ZM384.727 248.183C384.727 247.001 385.009 245.964 385.571 245.072C386.134 244.185 386.92 243.492 387.932 242.992C388.943 242.498 390.125 242.251 391.477 242.251C392.841 242.251 394.031 242.498 395.048 242.992C396.065 243.492 396.855 244.185 397.418 245.072C397.98 245.964 398.261 247.001 398.261 248.183C398.261 249.364 397.98 250.398 397.418 251.285C396.855 252.177 396.065 252.87 395.048 253.364C394.031 253.864 392.841 254.114 391.477 254.114C390.125 254.114 388.943 253.864 387.932 253.364C386.92 252.87 386.134 252.177 385.571 251.285C385.009 250.398 384.727 249.364 384.727 248.183ZM386.534 248.183C386.534 249.08 386.764 249.819 387.224 250.398C387.685 250.978 388.29 251.407 389.04 251.685C389.79 251.964 390.602 252.103 391.477 252.103C392.352 252.103 393.168 251.964 393.923 251.685C394.679 251.407 395.29 250.978 395.756 250.398C396.222 249.819 396.455 249.08 396.455 248.183C396.455 247.285 396.222 246.546 395.756 245.967C395.29 245.387 394.679 244.958 393.923 244.68C393.168 244.401 392.352 244.262 391.477 244.262C390.602 244.262 389.79 244.401 389.04 244.68C388.29 244.958 387.685 245.387 387.224 245.967C386.764 246.546 386.534 247.285 386.534 248.183ZM398.091 258.146L392.739 261.282L398.091 264.418L398.091 266.737L391.545 262.509L385 266.737L385 264.418L390.08 261.282L385 258.146L385 255.827L391.545 259.987L398.091 255.827L398.091 258.146ZM392.875 278.368L385 278.368L385 276.357L402.455 276.357L402.455 278.368L396.045 278.368L396.045 278.538C396.722 278.845 397.259 279.305 397.656 279.919C398.06 280.538 398.261 281.362 398.261 282.391C398.261 283.283 398.082 284.064 397.724 284.734C397.372 285.405 396.83 285.925 396.097 286.294C395.369 286.669 394.443 286.857 393.318 286.857L385 286.857L385 284.845L393.182 284.845C394.222 284.845 395.026 284.575 395.594 284.036C396.168 283.501 396.455 282.76 396.455 281.811C396.455 281.152 396.315 280.561 396.037 280.038C395.759 279.521 395.352 279.112 394.818 278.811C394.284 278.516 393.636 278.368 392.875 278.368ZM384.727 296.025C384.727 294.763 385.006 293.675 385.562 292.761C386.125 291.852 386.909 291.15 387.915 290.656C388.926 290.167 390.102 289.923 391.443 289.923C392.784 289.923 393.966 290.167 394.989 290.656C396.017 291.15 396.818 291.837 397.392 292.718C397.972 293.604 398.261 294.638 398.261 295.82C398.261 296.502 398.148 297.175 397.92 297.84C397.693 298.505 397.324 299.11 396.812 299.656C396.307 300.201 395.636 300.636 394.801 300.96C393.966 301.283 392.937 301.445 391.716 301.445L390.864 301.445L390.864 291.354L392.602 291.354L392.602 299.4C393.341 299.4 394 299.252 394.58 298.957C395.159 298.667 395.616 298.252 395.952 297.712C396.287 297.178 396.455 296.548 396.455 295.82C396.455 295.019 396.256 294.326 395.858 293.741C395.466 293.161 394.955 292.715 394.324 292.403C393.693 292.09 393.017 291.934 392.295 291.934L391.136 291.934C390.148 291.934 389.31 292.104 388.622 292.445C387.94 292.792 387.42 293.272 387.062 293.886C386.71 294.499 386.534 295.212 386.534 296.025C386.534 296.553 386.608 297.031 386.756 297.457C386.909 297.888 387.136 298.261 387.437 298.573C387.744 298.886 388.125 299.127 388.58 299.298L388.034 301.241C387.375 301.036 386.795 300.692 386.295 300.21C385.801 299.727 385.415 299.13 385.136 298.42C384.864 297.71 384.727 296.911 384.727 296.025ZM385 304.505L398.091 304.505L398.091 306.516L385 306.516L385 304.505ZM400.273 305.528C400.273 305.136 400.406 304.798 400.673 304.513C400.94 304.235 401.261 304.096 401.636 304.096C402.011 304.096 402.332 304.235 402.599 304.513C402.866 304.798 403 305.136 403 305.528C403 305.92 402.866 306.255 402.599 306.533C402.332 306.817 402.011 306.96 401.636 306.96C401.261 306.96 400.94 306.817 400.673 306.533C400.406 306.255 400.273 305.92 400.273 305.528ZM379.818 315.484C379.818 314.513 379.943 313.678 380.193 312.979C380.437 312.28 380.761 311.697 381.165 311.232C381.562 310.771 381.989 310.405 382.443 310.132L383.568 311.734C383.33 311.916 383.057 312.146 382.75 312.425C382.437 312.703 382.168 313.084 381.94 313.567C381.707 314.055 381.591 314.695 381.591 315.484C381.591 316.541 381.847 317.413 382.358 318.101C382.869 318.788 383.67 319.132 384.761 319.132L387.42 319.132L387.42 318.962C387.182 318.814 386.886 318.604 386.534 318.331C386.187 318.064 385.878 317.678 385.605 317.172C385.338 316.672 385.205 315.996 385.205 315.143C385.205 314.087 385.455 313.138 385.955 312.297C386.455 311.462 387.182 310.8 388.136 310.311C389.091 309.828 390.25 309.587 391.614 309.587C392.955 309.587 394.122 309.822 395.116 310.294C396.116 310.766 396.889 311.422 397.435 312.263C397.986 313.104 398.261 314.075 398.261 315.178C398.261 316.03 398.119 316.706 397.835 317.206C397.557 317.712 397.239 318.098 396.881 318.365C396.528 318.638 396.239 318.848 396.011 318.996L396.011 319.2L398.091 319.2L398.091 321.143L384.625 321.143C383.5 321.143 382.585 320.888 381.881 320.376C381.17 319.871 380.651 319.189 380.321 318.331C379.986 317.479 379.818 316.53 379.818 315.484ZM387.011 315.416C387.011 316.223 387.196 316.905 387.565 317.462C387.935 318.018 388.466 318.442 389.159 318.732C389.852 319.021 390.682 319.166 391.648 319.166C392.591 319.166 393.423 319.024 394.145 318.74C394.866 318.456 395.432 318.036 395.841 317.479C396.25 316.922 396.455 316.234 396.455 315.416C396.455 314.564 396.239 313.854 395.807 313.286C395.375 312.723 394.795 312.3 394.068 312.016C393.341 311.737 392.534 311.598 391.648 311.598C390.739 311.598 389.935 311.74 389.236 312.024C388.543 312.314 387.997 312.74 387.599 313.303C387.207 313.871 387.011 314.575 387.011 315.416ZM392.875 326.837L385 326.837L385 324.825L402.455 324.825L402.455 326.837L396.045 326.837L396.045 327.007C396.722 327.314 397.259 327.774 397.656 328.388C398.06 329.007 398.261 329.831 398.261 330.859C398.261 331.751 398.082 332.533 397.724 333.203C397.372 333.874 396.83 334.393 396.097 334.763C395.369 335.138 394.443 335.325 393.318 335.325L385 335.325L385 333.314L393.182 333.314C394.222 333.314 395.026 333.044 395.594 332.504C396.168 331.97 396.455 331.229 396.455 330.28C396.455 329.621 396.315 329.03 396.037 328.507C395.759 327.99 395.352 327.581 394.818 327.28C394.284 326.984 393.636 326.837 392.875 326.837ZM398.091 344.698L396.386 344.698L396.386 337.914L398.091 337.914L398.091 344.698ZM401.227 339.891L401.227 341.903L388.75 341.903C388.182 341.903 387.756 341.985 387.472 342.15C387.193 342.32 387.006 342.536 386.909 342.798C386.818 343.065 386.773 343.346 386.773 343.641C386.773 343.863 386.784 344.045 386.807 344.187C386.835 344.329 386.858 344.442 386.875 344.528L385.068 344.937C385.017 344.8 384.966 344.61 384.915 344.366C384.858 344.121 384.83 343.812 384.83 343.437C384.83 342.869 384.952 342.312 385.196 341.766C385.44 341.227 385.812 340.778 386.312 340.42C386.812 340.067 387.443 339.891 388.205 339.891L401.227 339.891Z" fill="black"/>
<path d="M316 239.291L317.534 239.291L323.841 245.053C324.58 245.729 325.222 246.286 325.767 246.723C326.318 247.161 326.835 247.484 327.318 247.695C327.807 247.911 328.318 248.018 328.852 248.018C329.466 248.018 329.997 247.871 330.446 247.575C330.895 247.286 331.241 246.888 331.486 246.382C331.73 245.876 331.852 245.308 331.852 244.678C331.852 244.007 331.713 243.422 331.435 242.922C331.162 242.428 330.778 242.044 330.284 241.771C329.79 241.504 329.21 241.371 328.545 241.371L328.545 239.359C329.568 239.359 330.466 239.595 331.239 240.067C332.011 240.538 332.614 241.18 333.045 241.993C333.477 242.811 333.693 243.729 333.693 244.746C333.693 245.768 333.477 246.675 333.045 247.464C332.614 248.254 332.031 248.874 331.298 249.322C330.565 249.771 329.75 249.996 328.852 249.996C328.21 249.996 327.582 249.879 326.969 249.646C326.361 249.419 325.682 249.021 324.932 248.453C324.187 247.891 323.278 247.109 322.205 246.109L318.011 242.189L317.875 242.189L317.875 250.303L316 250.303L316 239.291ZM315.761 259.277C315.761 258.277 315.96 257.376 316.358 256.575C316.756 255.774 317.301 255.132 317.994 254.649C318.687 254.166 319.477 253.902 320.364 253.857L320.364 255.902C319.574 255.982 318.92 256.339 318.403 256.976C317.892 257.618 317.636 258.385 317.636 259.277C317.636 259.993 317.804 260.629 318.139 261.186C318.474 261.749 318.935 262.189 319.52 262.507C320.111 262.831 320.778 262.993 321.523 262.993C322.284 262.993 322.963 262.825 323.56 262.49C324.162 262.161 324.636 261.706 324.983 261.126C325.33 260.547 325.506 259.885 325.511 259.141C325.517 258.607 325.435 258.058 325.264 257.496C325.099 256.933 324.886 256.47 324.625 256.107L324.864 254.129L333.455 255.186L333.455 264.254L331.58 264.254L331.58 256.959L326.432 256.345L326.432 256.447C326.716 256.805 326.952 257.254 327.139 257.794C327.327 258.334 327.42 258.896 327.42 259.482C327.42 260.55 327.165 261.501 326.653 262.337C326.148 263.178 325.455 263.837 324.574 264.314C323.693 264.797 322.687 265.038 321.557 265.038C320.443 265.038 319.449 264.788 318.574 264.288C317.705 263.794 317.017 263.112 316.511 262.243C316.011 261.374 315.761 260.385 315.761 259.277ZM319.273 277.322L320.193 277.322C320.83 277.322 321.412 277.452 321.94 277.714C322.474 277.981 322.901 278.367 323.219 278.873C323.543 279.384 323.705 280.004 323.705 280.731C323.705 281.469 323.543 282.089 323.219 282.589C322.901 283.089 322.474 283.467 321.94 283.722C321.412 283.978 320.83 284.106 320.193 284.106L319.273 284.106C318.636 284.106 318.051 283.975 317.517 283.714C316.989 283.458 316.562 283.077 316.239 282.572C315.92 282.072 315.761 281.458 315.761 280.731C315.761 279.992 315.92 279.37 316.239 278.864C316.562 278.359 316.989 277.975 317.517 277.714C318.051 277.452 318.636 277.322 319.273 277.322ZM320.193 279.06L319.273 279.06C318.744 279.06 318.27 279.185 317.849 279.435C317.435 279.685 317.227 280.117 317.227 280.731C317.227 281.327 317.435 281.748 317.849 281.992C318.27 282.242 318.744 282.367 319.273 282.367L320.193 282.367C320.722 282.367 321.193 282.248 321.608 282.009C322.028 281.771 322.239 281.344 322.239 280.731C322.239 280.134 322.028 279.705 321.608 279.444C321.193 279.188 320.722 279.06 320.193 279.06ZM329.261 268.629L330.182 268.629C330.818 268.629 331.401 268.759 331.929 269.021C332.463 269.288 332.889 269.674 333.207 270.18C333.531 270.691 333.693 271.31 333.693 272.038C333.693 272.776 333.531 273.396 333.207 273.896C332.889 274.396 332.463 274.773 331.929 275.029C331.401 275.285 330.818 275.413 330.182 275.413L329.261 275.413C328.625 275.413 328.04 275.282 327.506 275.021C326.977 274.765 326.551 274.384 326.227 273.879C325.909 273.379 325.75 272.765 325.75 272.038C325.75 271.299 325.909 270.677 326.227 270.171C326.551 269.665 326.977 269.282 327.506 269.021C328.04 268.759 328.625 268.629 329.261 268.629ZM330.182 270.367L329.261 270.367C328.733 270.367 328.259 270.492 327.838 270.742C327.423 270.992 327.216 271.424 327.216 272.038C327.216 272.634 327.423 273.055 327.838 273.299C328.259 273.549 328.733 273.674 329.261 273.674L330.182 273.674C330.71 273.674 331.182 273.555 331.597 273.316C332.017 273.077 332.227 272.651 332.227 272.038C332.227 271.441 332.017 271.012 331.597 270.751C331.182 270.495 330.71 270.367 330.182 270.367ZM316 269.276L333.455 281.276L333.455 283.219L316 271.219L316 269.276ZM316 294.981L333.455 294.981L333.455 296.992L327.011 296.992L327.011 297.163C327.239 297.31 327.528 297.515 327.881 297.776C328.239 298.043 328.557 298.424 328.835 298.918C329.119 299.418 329.261 300.094 329.261 300.947C329.261 302.049 328.986 303.021 328.435 303.862C327.884 304.702 327.102 305.359 326.091 305.83C325.08 306.302 323.886 306.538 322.511 306.538C321.125 306.538 319.923 306.302 318.906 305.83C317.895 305.359 317.111 304.705 316.554 303.87C316.003 303.035 315.727 302.072 315.727 300.981C315.727 300.14 315.866 299.467 316.145 298.961C316.429 298.455 316.75 298.066 317.108 297.793C317.472 297.521 317.773 297.31 318.011 297.163L318.011 296.924L316 296.924L316 294.981ZM322.545 296.958C321.557 296.958 320.685 297.103 319.929 297.393C319.179 297.683 318.591 298.106 318.165 298.663C317.744 299.219 317.534 299.901 317.534 300.708C317.534 301.549 317.756 302.251 318.199 302.813C318.648 303.381 319.25 303.808 320.006 304.092C320.767 304.381 321.614 304.526 322.545 304.526C323.466 304.526 324.295 304.384 325.034 304.1C325.778 303.822 326.366 303.398 326.798 302.83C327.236 302.268 327.455 301.56 327.455 300.708C327.455 299.89 327.247 299.202 326.832 298.646C326.423 298.089 325.849 297.668 325.111 297.384C324.378 297.1 323.523 296.958 322.545 296.958ZM315.727 314.933C315.727 313.751 316.009 312.714 316.571 311.822C317.134 310.935 317.92 310.242 318.932 309.742C319.943 309.248 321.125 309.001 322.477 309.001C323.841 309.001 325.031 309.248 326.048 309.742C327.065 310.242 327.855 310.935 328.418 311.822C328.98 312.714 329.261 313.751 329.261 314.933C329.261 316.114 328.98 317.148 328.418 318.035C327.855 318.927 327.065 319.62 326.048 320.114C325.031 320.614 323.841 320.864 322.477 320.864C321.125 320.864 319.943 320.614 318.932 320.114C317.92 319.62 317.134 318.927 316.571 318.035C316.009 317.148 315.727 316.114 315.727 314.933ZM317.534 314.933C317.534 315.83 317.764 316.569 318.224 317.148C318.685 317.728 319.29 318.157 320.04 318.435C320.79 318.714 321.602 318.853 322.477 318.853C323.352 318.853 324.168 318.714 324.923 318.435C325.679 318.157 326.29 317.728 326.756 317.148C327.222 316.569 327.455 315.83 327.455 314.933C327.455 314.035 327.222 313.296 326.756 312.717C326.29 312.137 325.679 311.708 324.923 311.43C324.168 311.151 323.352 311.012 322.477 311.012C321.602 311.012 320.79 311.151 320.04 311.43C319.29 311.708 318.685 312.137 318.224 312.717C317.764 313.296 317.534 314.035 317.534 314.933ZM329.091 324.896L323.739 328.032L329.091 331.168L329.091 333.487L322.545 329.259L316 333.487L316 331.168L321.08 328.032L316 324.896L316 322.577L322.545 326.737L329.091 322.577L329.091 324.896Z" fill="#059BFF"/>
<path d="M177.274 133V115.545H179.285V121.989H179.456C179.603 121.761 179.808 121.472 180.069 121.119C180.336 120.761 180.717 120.443 181.211 120.165C181.711 119.881 182.387 119.739 183.24 119.739C184.342 119.739 185.314 120.014 186.154 120.565C186.995 121.116 187.652 121.898 188.123 122.909C188.595 123.92 188.831 125.114 188.831 126.489C188.831 127.875 188.595 129.077 188.123 130.094C187.652 131.105 186.998 131.889 186.163 132.446C185.328 132.997 184.365 133.273 183.274 133.273C182.433 133.273 181.76 133.134 181.254 132.855C180.748 132.571 180.359 132.25 180.086 131.892C179.814 131.528 179.603 131.227 179.456 130.989H179.217V133H177.274ZM179.251 126.455C179.251 127.443 179.396 128.315 179.686 129.071C179.975 129.821 180.399 130.409 180.956 130.835C181.512 131.256 182.194 131.466 183.001 131.466C183.842 131.466 184.544 131.244 185.106 130.801C185.674 130.352 186.1 129.75 186.385 128.994C186.674 128.233 186.819 127.386 186.819 126.455C186.819 125.534 186.677 124.705 186.393 123.966C186.115 123.222 185.691 122.634 185.123 122.202C184.561 121.764 183.853 121.545 183.001 121.545C182.183 121.545 181.495 121.753 180.939 122.168C180.382 122.577 179.961 123.151 179.677 123.889C179.393 124.622 179.251 125.477 179.251 126.455ZM197.225 133.273C196.044 133.273 195.007 132.991 194.115 132.429C193.228 131.866 192.535 131.08 192.035 130.068C191.541 129.057 191.294 127.875 191.294 126.523C191.294 125.159 191.541 123.969 192.035 122.952C192.535 121.935 193.228 121.145 194.115 120.582C195.007 120.02 196.044 119.739 197.225 119.739C198.407 119.739 199.441 120.02 200.328 120.582C201.22 121.145 201.913 121.935 202.407 122.952C202.907 123.969 203.157 125.159 203.157 126.523C203.157 127.875 202.907 129.057 202.407 130.068C201.913 131.08 201.22 131.866 200.328 132.429C199.441 132.991 198.407 133.273 197.225 133.273ZM197.225 131.466C198.123 131.466 198.862 131.236 199.441 130.776C200.021 130.315 200.45 129.71 200.728 128.96C201.007 128.21 201.146 127.398 201.146 126.523C201.146 125.648 201.007 124.832 200.728 124.077C200.45 123.321 200.021 122.71 199.441 122.244C198.862 121.778 198.123 121.545 197.225 121.545C196.328 121.545 195.589 121.778 195.01 122.244C194.43 122.71 194.001 123.321 193.723 124.077C193.444 124.832 193.305 125.648 193.305 126.523C193.305 127.398 193.444 128.21 193.723 128.96C194.001 129.71 194.43 130.315 195.01 130.776C195.589 131.236 196.328 131.466 197.225 131.466ZM207.189 119.909L210.325 125.261L213.461 119.909H215.779L211.552 126.455L215.779 133H213.461L210.325 127.92L207.189 133H204.87L209.029 126.455L204.87 119.909H207.189ZM228.365 133L224.377 119.909H226.49L229.32 129.932H229.456L232.252 119.909H234.4L237.161 129.898H237.297L240.127 119.909H242.24L238.252 133H236.275L233.411 122.943H233.206L230.343 133H228.365ZM244.9 133V119.909H246.911V133H244.9ZM245.922 117.727C245.53 117.727 245.192 117.594 244.908 117.327C244.63 117.06 244.49 116.739 244.49 116.364C244.49 115.989 244.63 115.668 244.908 115.401C245.192 115.134 245.53 115 245.922 115C246.314 115 246.65 115.134 246.928 115.401C247.212 115.668 247.354 115.989 247.354 116.364C247.354 116.739 247.212 117.06 246.928 117.327C246.65 117.594 246.314 117.727 245.922 117.727ZM255.538 133.273C254.447 133.273 253.484 132.997 252.649 132.446C251.814 131.889 251.16 131.105 250.689 130.094C250.217 129.077 249.981 127.875 249.981 126.489C249.981 125.114 250.217 123.92 250.689 122.909C251.16 121.898 251.816 121.116 252.657 120.565C253.498 120.014 254.47 119.739 255.572 119.739C256.424 119.739 257.098 119.881 257.592 120.165C258.092 120.443 258.473 120.761 258.734 121.119C259.001 121.472 259.208 121.761 259.356 121.989H259.527V115.545H261.538V133H259.595V130.989H259.356C259.208 131.227 258.998 131.528 258.725 131.892C258.453 132.25 258.064 132.571 257.558 132.855C257.052 133.134 256.379 133.273 255.538 133.273ZM255.811 131.466C256.618 131.466 257.299 131.256 257.856 130.835C258.413 130.409 258.836 129.821 259.126 129.071C259.416 128.315 259.561 127.443 259.561 126.455C259.561 125.477 259.419 124.622 259.135 123.889C258.85 123.151 258.43 122.577 257.873 122.168C257.316 121.753 256.629 121.545 255.811 121.545C254.958 121.545 254.248 121.764 253.68 122.202C253.118 122.634 252.694 123.222 252.41 123.966C252.132 124.705 251.993 125.534 251.993 126.455C251.993 127.386 252.135 128.233 252.419 128.994C252.708 129.75 253.135 130.352 253.697 130.801C254.265 131.244 254.97 131.466 255.811 131.466ZM271.194 119.909V121.614H264.41V119.909H271.194ZM266.387 116.773H268.399V129.25C268.399 129.818 268.481 130.244 268.646 130.528C268.816 130.807 269.032 130.994 269.294 131.091C269.561 131.182 269.842 131.227 270.137 131.227C270.359 131.227 270.541 131.216 270.683 131.193C270.825 131.165 270.939 131.142 271.024 131.125L271.433 132.932C271.297 132.983 271.106 133.034 270.862 133.085C270.618 133.142 270.308 133.17 269.933 133.17C269.365 133.17 268.808 133.048 268.262 132.804C267.723 132.56 267.274 132.188 266.916 131.688C266.564 131.188 266.387 130.557 266.387 129.795V116.773ZM276.512 125.125V133H274.501V115.545H276.512V121.955H276.683C276.99 121.278 277.45 120.741 278.064 120.344C278.683 119.94 279.507 119.739 280.535 119.739C281.427 119.739 282.208 119.918 282.879 120.276C283.549 120.628 284.069 121.17 284.439 121.903C284.814 122.631 285.001 123.557 285.001 124.682V133H282.99V124.818C282.99 123.778 282.72 122.974 282.18 122.406C281.646 121.832 280.904 121.545 279.956 121.545C279.297 121.545 278.706 121.685 278.183 121.963C277.666 122.241 277.257 122.648 276.956 123.182C276.66 123.716 276.512 124.364 276.512 125.125Z" fill="black"/>
<path d="M189.511 225.239C188.511 225.239 187.611 225.04 186.81 224.642C186.009 224.244 185.366 223.699 184.884 223.006C184.401 222.312 184.136 221.523 184.091 220.636H186.136C186.216 221.426 186.574 222.08 187.21 222.597C187.852 223.108 188.619 223.364 189.511 223.364C190.227 223.364 190.864 223.196 191.42 222.861C191.983 222.526 192.423 222.065 192.741 221.48C193.065 220.889 193.227 220.222 193.227 219.477C193.227 218.716 193.06 218.037 192.724 217.44C192.395 216.838 191.94 216.364 191.361 216.017C190.781 215.67 190.119 215.494 189.375 215.489C188.841 215.483 188.293 215.565 187.73 215.736C187.168 215.901 186.705 216.114 186.341 216.375L184.364 216.136L185.42 207.545H194.489V209.42H187.193L186.58 214.568H186.682C187.04 214.284 187.489 214.048 188.028 213.861C188.568 213.673 189.131 213.58 189.716 213.58C190.784 213.58 191.736 213.835 192.571 214.347C193.412 214.852 194.071 215.545 194.548 216.426C195.031 217.307 195.273 218.312 195.273 219.443C195.273 220.557 195.023 221.551 194.523 222.426C194.028 223.295 193.347 223.983 192.477 224.489C191.608 224.989 190.619 225.239 189.511 225.239ZM204.352 225.239C203.067 225.239 201.974 224.889 201.07 224.19C200.167 223.486 199.477 222.466 198.999 221.131C198.522 219.79 198.283 218.17 198.283 216.273C198.283 214.386 198.522 212.776 198.999 211.44C199.482 210.099 200.175 209.077 201.079 208.372C201.988 207.662 203.079 207.307 204.352 207.307C205.624 207.307 206.712 207.662 207.616 208.372C208.525 209.077 209.218 210.099 209.695 211.44C210.178 212.776 210.42 214.386 210.42 216.273C210.42 218.17 210.181 219.79 209.704 221.131C209.227 222.466 208.536 223.486 207.633 224.19C206.729 224.889 205.636 225.239 204.352 225.239ZM204.352 223.364C205.624 223.364 206.613 222.75 207.317 221.523C208.022 220.295 208.374 218.545 208.374 216.273C208.374 214.761 208.212 213.474 207.888 212.412C207.57 211.349 207.11 210.54 206.508 209.983C205.911 209.426 205.192 209.148 204.352 209.148C203.09 209.148 202.104 209.77 201.394 211.014C200.684 212.253 200.329 214.006 200.329 216.273C200.329 217.784 200.488 219.068 200.806 220.125C201.124 221.182 201.582 221.986 202.178 222.537C202.781 223.088 203.505 223.364 204.352 223.364ZM222.556 221.727V220.807C222.556 220.17 222.687 219.588 222.948 219.06C223.215 218.526 223.602 218.099 224.107 217.781C224.619 217.457 225.238 217.295 225.965 217.295C226.704 217.295 227.323 217.457 227.823 217.781C228.323 218.099 228.701 218.526 228.957 219.06C229.212 219.588 229.34 220.17 229.34 220.807V221.727C229.34 222.364 229.21 222.949 228.948 223.483C228.692 224.011 228.312 224.437 227.806 224.761C227.306 225.08 226.692 225.239 225.965 225.239C225.227 225.239 224.604 225.08 224.099 224.761C223.593 224.437 223.21 224.011 222.948 223.483C222.687 222.949 222.556 222.364 222.556 221.727ZM224.295 220.807V221.727C224.295 222.256 224.42 222.73 224.67 223.151C224.92 223.565 225.352 223.773 225.965 223.773C226.562 223.773 226.982 223.565 227.227 223.151C227.477 222.73 227.602 222.256 227.602 221.727V220.807C227.602 220.278 227.482 219.807 227.244 219.392C227.005 218.972 226.579 218.761 225.965 218.761C225.369 218.761 224.94 218.972 224.678 219.392C224.423 219.807 224.295 220.278 224.295 220.807ZM213.863 211.739V210.818C213.863 210.182 213.994 209.599 214.255 209.071C214.522 208.537 214.908 208.111 215.414 207.793C215.925 207.469 216.545 207.307 217.272 207.307C218.011 207.307 218.63 207.469 219.13 207.793C219.63 208.111 220.008 208.537 220.263 209.071C220.519 209.599 220.647 210.182 220.647 210.818V211.739C220.647 212.375 220.516 212.96 220.255 213.494C219.999 214.023 219.619 214.449 219.113 214.773C218.613 215.091 217.999 215.25 217.272 215.25C216.533 215.25 215.911 215.091 215.406 214.773C214.9 214.449 214.516 214.023 214.255 213.494C213.994 212.96 213.863 212.375 213.863 211.739ZM215.602 210.818V211.739C215.602 212.267 215.727 212.741 215.977 213.162C216.227 213.577 216.658 213.784 217.272 213.784C217.869 213.784 218.289 213.577 218.533 213.162C218.783 212.741 218.908 212.267 218.908 211.739V210.818C218.908 210.29 218.789 209.818 218.55 209.403C218.312 208.983 217.886 208.773 217.272 208.773C216.675 208.773 216.246 208.983 215.985 209.403C215.729 209.818 215.602 210.29 215.602 210.818ZM214.511 225L226.511 207.545H228.454L216.454 225H214.511ZM240.215 225V207.545H242.227V213.989H242.397C242.545 213.761 242.749 213.472 243.011 213.119C243.278 212.761 243.658 212.443 244.153 212.165C244.653 211.881 245.329 211.739 246.181 211.739C247.283 211.739 248.255 212.014 249.096 212.565C249.937 213.116 250.593 213.898 251.065 214.909C251.536 215.92 251.772 217.114 251.772 218.489C251.772 219.875 251.536 221.077 251.065 222.094C250.593 223.105 249.94 223.889 249.104 224.446C248.269 224.997 247.306 225.273 246.215 225.273C245.374 225.273 244.701 225.134 244.195 224.855C243.69 224.571 243.3 224.25 243.028 223.892C242.755 223.528 242.545 223.227 242.397 222.989H242.158V225H240.215ZM242.192 218.455C242.192 219.443 242.337 220.315 242.627 221.071C242.917 221.821 243.34 222.409 243.897 222.835C244.454 223.256 245.136 223.466 245.942 223.466C246.783 223.466 247.485 223.244 248.048 222.801C248.616 222.352 249.042 221.75 249.326 220.994C249.616 220.233 249.761 219.386 249.761 218.455C249.761 217.534 249.619 216.705 249.335 215.966C249.056 215.222 248.633 214.634 248.065 214.202C247.502 213.764 246.795 213.545 245.942 213.545C245.124 213.545 244.437 213.753 243.88 214.168C243.323 214.577 242.903 215.151 242.619 215.889C242.335 216.622 242.192 217.477 242.192 218.455ZM260.167 225.273C258.985 225.273 257.948 224.991 257.056 224.429C256.17 223.866 255.477 223.08 254.977 222.068C254.482 221.057 254.235 219.875 254.235 218.523C254.235 217.159 254.482 215.969 254.977 214.952C255.477 213.935 256.17 213.145 257.056 212.582C257.948 212.02 258.985 211.739 260.167 211.739C261.349 211.739 262.383 212.02 263.269 212.582C264.161 213.145 264.854 213.935 265.349 214.952C265.849 215.969 266.099 217.159 266.099 218.523C266.099 219.875 265.849 221.057 265.349 222.068C264.854 223.08 264.161 223.866 263.269 224.429C262.383 224.991 261.349 225.273 260.167 225.273ZM260.167 223.466C261.065 223.466 261.803 223.236 262.383 222.776C262.962 222.315 263.391 221.71 263.67 220.96C263.948 220.21 264.087 219.398 264.087 218.523C264.087 217.648 263.948 216.832 263.67 216.077C263.391 215.321 262.962 214.71 262.383 214.244C261.803 213.778 261.065 213.545 260.167 213.545C259.269 213.545 258.531 213.778 257.951 214.244C257.371 214.71 256.942 215.321 256.664 216.077C256.386 216.832 256.246 217.648 256.246 218.523C256.246 219.398 256.386 220.21 256.664 220.96C256.942 221.71 257.371 222.315 257.951 222.776C258.531 223.236 259.269 223.466 260.167 223.466ZM270.13 211.909L273.266 217.261L276.403 211.909H278.721L274.494 218.455L278.721 225H276.403L273.266 219.92L270.13 225H267.812L271.971 218.455L267.812 211.909H270.13Z" fill="#059BFF"/>
<circle cx="119" cy="174" r="9" fill="#059BFF"/>
<circle cx="181" cy="256" r="9" fill="#059BFF"/>
<path d="M71.4034 166.909L74.5398 172.261L77.6761 166.909H79.9943L75.767 173.455L79.9943 180H77.6761L74.5398 174.92L71.4034 180H69.0852L73.2443 173.455L69.0852 166.909H71.4034ZM89.0348 161.727L83.4098 182.625H81.5689L87.1939 161.727H89.0348ZM92.7145 184.909C92.3736 184.909 92.0696 184.881 91.8026 184.824C91.5355 184.773 91.3509 184.722 91.2486 184.67L91.7599 182.898C92.2486 183.023 92.6804 183.068 93.0554 183.034C93.4304 183 93.7628 182.832 94.0526 182.531C94.348 182.236 94.6179 181.756 94.8622 181.091L95.2372 180.068L90.3963 166.909H92.5781L96.1918 177.341H96.3281L99.9418 166.909H102.124L96.5668 181.909C96.3168 182.585 96.0071 183.145 95.6378 183.588C95.2685 184.037 94.8395 184.369 94.3509 184.585C93.8679 184.801 93.3224 184.909 92.7145 184.909Z" fill="#059BFF"/>
<path d="M131.403 250.909L134.54 256.261L137.676 250.909H139.994L135.767 257.455L139.994 264H137.676L134.54 258.92L131.403 264H129.085L133.244 257.455L129.085 250.909H131.403ZM149.035 245.727L143.41 266.625H141.569L147.194 245.727H149.035ZM152.714 268.909C152.374 268.909 152.07 268.881 151.803 268.824C151.536 268.773 151.351 268.722 151.249 268.67L151.76 266.898C152.249 267.023 152.68 267.068 153.055 267.034C153.43 267 153.763 266.832 154.053 266.531C154.348 266.236 154.618 265.756 154.862 265.091L155.237 264.068L150.396 250.909H152.578L156.192 261.341H156.328L159.942 250.909H162.124L156.567 265.909C156.317 266.585 156.007 267.145 155.638 267.588C155.268 268.037 154.839 268.369 154.351 268.585C153.868 268.801 153.322 268.909 152.714 268.909Z" fill="#059BFF"/>
</svg>
