<svg width="378" height="137" viewBox="0 0 378 137" fill="none" xmlns="http://www.w3.org/2000/svg">
<line x1="183.5" y1="53" x2="183.5" y2="126" stroke="black" stroke-width="3"/>
<path d="M305.024 124L332.977 57.9059L360.005 124H305.024Z" fill="#C4C4C4" stroke="black" stroke-width="3"/>
<circle cx="29.5" cy="54.5" r="11.5" fill="#059BFF"/>
<circle cx="183.5" cy="54.5" r="11.5" fill="#059BFF"/>
<circle cx="332.5" cy="54.5" r="11.5" fill="#059BFF"/>
<circle cx="183.5" cy="125.5" r="11.5" fill="#059BFF"/>
<circle cx="302.5" cy="125.5" r="11.5" fill="#059BFF"/>
<circle cx="362.5" cy="125.5" r="11.5" fill="#059BFF"/>
<path d="M2.18004 23V5.54545H8.07777C9.44709 5.54545 10.5664 5.79261 11.4357 6.28693C12.3107 6.77557 12.9585 7.4375 13.3789 8.27273C13.7994 9.10795 14.0096 10.0398 14.0096 11.0682C14.0096 12.0966 13.7994 13.0312 13.3789 13.8722C12.9641 14.7131 12.3221 15.3835 11.4528 15.8835C10.5835 16.3778 9.46982 16.625 8.11186 16.625H3.88459V14.75H8.04368C8.98118 14.75 9.73402 14.5881 10.3022 14.2642C10.8704 13.9403 11.2823 13.5028 11.538 12.9517C11.7994 12.3949 11.93 11.767 11.93 11.0682C11.93 10.3693 11.7994 9.74432 11.538 9.19318C11.2823 8.64205 10.8675 8.21023 10.2937 7.89773C9.71982 7.57955 8.95845 7.42045 8.00959 7.42045H4.29368V23H2.18004ZM22.3192 23.2727C21.1374 23.2727 20.1005 22.9915 19.2085 22.429C18.3221 21.8665 17.6289 21.0795 17.1289 20.0682C16.6346 19.0568 16.3874 17.875 16.3874 16.5227C16.3874 15.1591 16.6346 13.9687 17.1289 12.9517C17.6289 11.9347 18.3221 11.1449 19.2085 10.5824C20.1005 10.0199 21.1374 9.73864 22.3192 9.73864C23.5011 9.73864 24.5352 10.0199 25.4215 10.5824C26.3136 11.1449 27.0067 11.9347 27.5011 12.9517C28.0011 13.9687 28.2511 15.1591 28.2511 16.5227C28.2511 17.875 28.0011 19.0568 27.5011 20.0682C27.0067 21.0795 26.3136 21.8665 25.4215 22.429C24.5352 22.9915 23.5011 23.2727 22.3192 23.2727ZM22.3192 21.4659C23.217 21.4659 23.9556 21.2358 24.5352 20.7756C25.1147 20.3153 25.5437 19.7102 25.8221 18.9602C26.1005 18.2102 26.2397 17.3977 26.2397 16.5227C26.2397 15.6477 26.1005 14.8324 25.8221 14.0767C25.5437 13.321 25.1147 12.7102 24.5352 12.2443C23.9556 11.7784 23.217 11.5455 22.3192 11.5455C21.4215 11.5455 20.6829 11.7784 20.1033 12.2443C19.5238 12.7102 19.0948 13.321 18.8164 14.0767C18.538 14.8324 18.3988 15.6477 18.3988 16.5227C18.3988 17.3977 18.538 18.2102 18.8164 18.9602C19.0948 19.7102 19.5238 20.3153 20.1033 20.7756C20.6829 21.2358 21.4215 21.4659 22.3192 21.4659ZM31.3214 23V9.90909H33.3327V23H31.3214ZM32.3441 7.72727C31.9521 7.72727 31.614 7.59375 31.3299 7.3267C31.0515 7.05966 30.9123 6.73864 30.9123 6.36364C30.9123 5.98864 31.0515 5.66761 31.3299 5.40057C31.614 5.13352 31.9521 5 32.3441 5C32.7362 5 33.0714 5.13352 33.3498 5.40057C33.6339 5.66761 33.7759 5.98864 33.7759 6.36364C33.7759 6.73864 33.6339 7.05966 33.3498 7.3267C33.0714 7.59375 32.7362 7.72727 32.3441 7.72727ZM39.0281 15.125V23H37.0167V9.90909H38.9599V11.9545H39.1303C39.4371 11.2898 39.9031 10.7557 40.5281 10.3523C41.1531 9.94318 41.9599 9.73864 42.9485 9.73864C43.8349 9.73864 44.6104 9.92045 45.2752 10.2841C45.94 10.642 46.457 11.1875 46.8263 11.9205C47.1957 12.6477 47.3803 13.5682 47.3803 14.6818V23H45.369V14.8182C45.369 13.7898 45.1019 12.9886 44.5678 12.4148C44.0337 11.8352 43.3008 11.5455 42.369 11.5455C41.7269 11.5455 41.1531 11.6847 40.6474 11.9631C40.1474 12.2415 39.7525 12.6477 39.4627 13.1818C39.1729 13.7159 39.0281 14.3636 39.0281 15.125ZM56.7489 9.90909V11.6136H49.9648V9.90909H56.7489ZM51.9421 6.77273H53.9535V19.25C53.9535 19.8182 54.0359 20.2443 54.2006 20.5284C54.3711 20.8068 54.587 20.9943 54.8484 21.0909C55.1154 21.1818 55.3967 21.2273 55.6921 21.2273C55.9137 21.2273 56.0955 21.2159 56.2376 21.1932C56.3796 21.1648 56.4933 21.142 56.5785 21.125L56.9876 22.9318C56.8512 22.983 56.6609 23.0341 56.4165 23.0852C56.1722 23.142 55.8626 23.1705 55.4876 23.1705C54.9194 23.1705 54.3626 23.0483 53.8171 22.804C53.2773 22.5597 52.8285 22.1875 52.4705 21.6875C52.1183 21.1875 51.9421 20.5568 51.9421 19.7955V6.77273Z" fill="black"/>
<path d="M161.512 23V5.54545H163.626V21.125H171.739V23H161.512ZM174.739 23V9.90909H176.751V23H174.739ZM175.762 7.72727C175.37 7.72727 175.032 7.59375 174.748 7.3267C174.469 7.05966 174.33 6.73864 174.33 6.36364C174.33 5.98864 174.469 5.66761 174.748 5.40057C175.032 5.13352 175.37 5 175.762 5C176.154 5 176.489 5.13352 176.768 5.40057C177.052 5.66761 177.194 5.98864 177.194 6.36364C177.194 6.73864 177.052 7.05966 176.768 7.3267C176.489 7.59375 176.154 7.72727 175.762 7.72727ZM182.446 15.125V23H180.435V9.90909H182.378V11.9545H182.548C182.855 11.2898 183.321 10.7557 183.946 10.3523C184.571 9.94318 185.378 9.73864 186.366 9.73864C187.253 9.73864 188.028 9.92045 188.693 10.2841C189.358 10.642 189.875 11.1875 190.244 11.9205C190.614 12.6477 190.798 13.5682 190.798 14.6818V23H188.787V14.8182C188.787 13.7898 188.52 12.9886 187.986 12.4148C187.452 11.8352 186.719 11.5455 185.787 11.5455C185.145 11.5455 184.571 11.6847 184.065 11.9631C183.565 12.2415 183.17 12.6477 182.881 13.1818C182.591 13.7159 182.446 14.3636 182.446 15.125ZM199.962 23.2727C198.701 23.2727 197.613 22.9943 196.698 22.4375C195.789 21.875 195.087 21.0909 194.593 20.0852C194.104 19.0739 193.86 17.8977 193.86 16.5568C193.86 15.2159 194.104 14.0341 194.593 13.0114C195.087 11.983 195.775 11.1818 196.656 10.608C197.542 10.0284 198.576 9.73864 199.758 9.73864C200.44 9.73864 201.113 9.85227 201.778 10.0795C202.442 10.3068 203.048 10.6761 203.593 11.1875C204.138 11.6932 204.573 12.3636 204.897 13.1989C205.221 14.0341 205.383 15.0625 205.383 16.2841V17.1364H195.292V15.3977H203.337C203.337 14.6591 203.19 14 202.894 13.4205C202.604 12.8409 202.19 12.3835 201.65 12.0483C201.116 11.7131 200.485 11.5455 199.758 11.5455C198.957 11.5455 198.263 11.7443 197.678 12.142C197.099 12.5341 196.653 13.0455 196.34 13.6761C196.028 14.3068 195.871 14.983 195.871 15.7045V16.8636C195.871 17.8523 196.042 18.6903 196.383 19.3778C196.729 20.0597 197.21 20.5795 197.823 20.9375C198.437 21.2898 199.15 21.4659 199.962 21.4659C200.491 21.4659 200.968 21.392 201.394 21.2443C201.826 21.0909 202.198 20.8636 202.511 20.5625C202.823 20.2557 203.065 19.875 203.235 19.4205L205.178 19.9659C204.974 20.625 204.63 21.2045 204.147 21.7045C203.664 22.1989 203.067 22.5852 202.357 22.8636C201.647 23.1364 200.849 23.2727 199.962 23.2727Z" fill="black"/>
<path d="M289.121 23V5.54545H295.019C296.388 5.54545 297.508 5.79261 298.377 6.28693C299.252 6.77557 299.9 7.4375 300.32 8.27273C300.741 9.10795 300.951 10.0398 300.951 11.0682C300.951 12.0966 300.741 13.0312 300.32 13.8722C299.906 14.7131 299.263 15.3835 298.394 15.8835C297.525 16.3778 296.411 16.625 295.053 16.625H290.826V14.75H294.985C295.923 14.75 296.675 14.5881 297.244 14.2642C297.812 13.9403 298.224 13.5028 298.479 12.9517C298.741 12.3949 298.871 11.767 298.871 11.0682C298.871 10.3693 298.741 9.74432 298.479 9.19318C298.224 8.64205 297.809 8.21023 297.235 7.89773C296.661 7.57955 295.9 7.42045 294.951 7.42045H291.235V23H289.121ZM309.261 23.2727C308.079 23.2727 307.042 22.9915 306.15 22.429C305.263 21.8665 304.57 21.0795 304.07 20.0682C303.576 19.0568 303.329 17.875 303.329 16.5227C303.329 15.1591 303.576 13.9687 304.07 12.9517C304.57 11.9347 305.263 11.1449 306.15 10.5824C307.042 10.0199 308.079 9.73864 309.261 9.73864C310.442 9.73864 311.477 10.0199 312.363 10.5824C313.255 11.1449 313.948 11.9347 314.442 12.9517C314.942 13.9687 315.192 15.1591 315.192 16.5227C315.192 17.875 314.942 19.0568 314.442 20.0682C313.948 21.0795 313.255 21.8665 312.363 22.429C311.477 22.9915 310.442 23.2727 309.261 23.2727ZM309.261 21.4659C310.158 21.4659 310.897 21.2358 311.477 20.7756C312.056 20.3153 312.485 19.7102 312.763 18.9602C313.042 18.2102 313.181 17.3977 313.181 16.5227C313.181 15.6477 313.042 14.8324 312.763 14.0767C312.485 13.321 312.056 12.7102 311.477 12.2443C310.897 11.7784 310.158 11.5455 309.261 11.5455C308.363 11.5455 307.624 11.7784 307.045 12.2443C306.465 12.7102 306.036 13.321 305.758 14.0767C305.479 14.8324 305.34 15.6477 305.34 16.5227C305.34 17.3977 305.479 18.2102 305.758 18.9602C306.036 19.7102 306.465 20.3153 307.045 20.7756C307.624 21.2358 308.363 21.4659 309.261 21.4659ZM320.274 5.54545V23H318.263V5.54545H320.274ZM325.254 27.9091C324.913 27.9091 324.609 27.8807 324.342 27.8239C324.075 27.7727 323.89 27.7216 323.788 27.6705L324.299 25.8977C324.788 26.0227 325.219 26.0682 325.594 26.0341C325.969 26 326.302 25.8324 326.592 25.5312C326.887 25.2358 327.157 24.7557 327.401 24.0909L327.776 23.0682L322.935 9.90909H325.117L328.731 20.3409H328.867L332.481 9.90909H334.663L329.106 24.9091C328.856 25.5852 328.546 26.1449 328.177 26.5881C327.808 27.0369 327.379 27.3693 326.89 27.5852C326.407 27.8011 325.862 27.9091 325.254 27.9091ZM342.133 28.1818C341.161 28.1818 340.326 28.0568 339.627 27.8068C338.928 27.5625 338.346 27.2386 337.88 26.8352C337.42 26.4375 337.053 26.0114 336.781 25.5568L338.383 24.4318C338.565 24.6705 338.795 24.9432 339.073 25.25C339.352 25.5625 339.732 25.8324 340.215 26.0597C340.704 26.2926 341.343 26.4091 342.133 26.4091C343.19 26.4091 344.062 26.1534 344.749 25.642C345.437 25.1307 345.781 24.3295 345.781 23.2386V20.5795H345.61C345.462 20.8182 345.252 21.1136 344.979 21.4659C344.712 21.8125 344.326 22.1222 343.82 22.3949C343.32 22.6619 342.644 22.7955 341.792 22.7955C340.735 22.7955 339.786 22.5455 338.945 22.0455C338.11 21.5455 337.448 20.8182 336.96 19.8636C336.477 18.9091 336.235 17.75 336.235 16.3864C336.235 15.0455 336.471 13.8778 336.942 12.8835C337.414 11.8835 338.07 11.1108 338.911 10.5653C339.752 10.0142 340.724 9.73864 341.826 9.73864C342.678 9.73864 343.354 9.88068 343.854 10.1648C344.36 10.4432 344.746 10.7614 345.013 11.1193C345.286 11.4716 345.496 11.7614 345.644 11.9886H345.849V9.90909H347.792V23.375C347.792 24.5 347.536 25.4148 347.025 26.1193C346.519 26.8295 345.837 27.3494 344.979 27.679C344.127 28.0142 343.178 28.1818 342.133 28.1818ZM342.065 20.9886C342.871 20.9886 343.553 20.804 344.11 20.4347C344.667 20.0653 345.09 19.5341 345.38 18.8409C345.67 18.1477 345.815 17.3182 345.815 16.3523C345.815 15.4091 345.673 14.5767 345.388 13.8551C345.104 13.1335 344.684 12.5682 344.127 12.1591C343.57 11.75 342.883 11.5455 342.065 11.5455C341.212 11.5455 340.502 11.7614 339.934 12.1932C339.371 12.625 338.948 13.2045 338.664 13.9318C338.386 14.6591 338.246 15.4659 338.246 16.3523C338.246 17.2614 338.388 18.0653 338.673 18.7642C338.962 19.4574 339.388 20.0028 339.951 20.4006C340.519 20.7926 341.224 20.9886 342.065 20.9886ZM356.792 23.2727C355.61 23.2727 354.573 22.9915 353.681 22.429C352.795 21.8665 352.102 21.0795 351.602 20.0682C351.107 19.0568 350.86 17.875 350.86 16.5227C350.86 15.1591 351.107 13.9687 351.602 12.9517C352.102 11.9347 352.795 11.1449 353.681 10.5824C354.573 10.0199 355.61 9.73864 356.792 9.73864C357.974 9.73864 359.008 10.0199 359.894 10.5824C360.786 11.1449 361.479 11.9347 361.974 12.9517C362.474 13.9687 362.724 15.1591 362.724 16.5227C362.724 17.875 362.474 19.0568 361.974 20.0682C361.479 21.0795 360.786 21.8665 359.894 22.429C359.008 22.9915 357.974 23.2727 356.792 23.2727ZM356.792 21.4659C357.69 21.4659 358.428 21.2358 359.008 20.7756C359.587 20.3153 360.016 19.7102 360.295 18.9602C360.573 18.2102 360.712 17.3977 360.712 16.5227C360.712 15.6477 360.573 14.8324 360.295 14.0767C360.016 13.321 359.587 12.7102 359.008 12.2443C358.428 11.7784 357.69 11.5455 356.792 11.5455C355.894 11.5455 355.156 11.7784 354.576 12.2443C353.996 12.7102 353.567 13.321 353.289 14.0767C353.011 14.8324 352.871 15.6477 352.871 16.5227C352.871 17.3977 353.011 18.2102 353.289 18.9602C353.567 19.7102 353.996 20.3153 354.576 20.7756C355.156 21.2358 355.894 21.4659 356.792 21.4659ZM367.805 15.125V23H365.794V9.90909H367.737V11.9545H367.908C368.214 11.2898 368.68 10.7557 369.305 10.3523C369.93 9.94318 370.737 9.73864 371.726 9.73864C372.612 9.73864 373.388 9.92045 374.053 10.2841C374.717 10.642 375.234 11.1875 375.604 11.9205C375.973 12.6477 376.158 13.5682 376.158 14.6818V23H374.146V14.8182C374.146 13.7898 373.879 12.9886 373.345 12.4148C372.811 11.8352 372.078 11.5455 371.146 11.5455C370.504 11.5455 369.93 11.6847 369.425 11.9631C368.925 12.2415 368.53 12.6477 368.24 13.1818C367.95 13.7159 367.805 14.3636 367.805 15.125Z" fill="black"/>
</svg>
