<svg width="471" height="477" viewBox="0 0 471 477" fill="none" xmlns="http://www.w3.org/2000/svg">
<rect width="1920" height="1080" transform="translate(-503 -471)" fill="white"/>
<path d="M348.5 110C348.5 109.172 347.828 108.5 347 108.5H333.5C332.672 108.5 332 109.172 332 110C332 110.828 332.672 111.5 333.5 111.5L345.5 111.5V123.5C345.5 124.328 346.172 125 347 125C347.828 125 348.5 124.328 348.5 123.5V110ZM242.061 217.061L348.061 111.061L345.939 108.939L239.939 214.939L242.061 217.061Z" fill="black"/>
<path d="M390.061 217.061C390.646 216.475 390.646 215.525 390.061 214.939L380.515 205.393C379.929 204.808 378.979 204.808 378.393 205.393C377.808 205.979 377.808 206.929 378.393 207.515L386.879 216L378.393 224.485C377.808 225.071 377.808 226.021 378.393 226.607C378.979 227.192 379.929 227.192 380.515 226.607L390.061 217.061ZM241 217.5H389V214.5H241V217.5Z" fill="black"/>
<path d="M55.6332 59.5455H58.0536L62.8945 67.6932H63.0991L67.94 59.5455H70.3604L64.0536 69.8068V77H61.94V69.8068L55.6332 59.5455Z" fill="black"/>
<path d="M404.437 395.545L408.937 402.807H409.074L413.574 395.545H416.062L410.574 404.273L416.062 413H413.574L409.074 405.875H408.937L404.437 413H401.949L407.574 404.273L401.949 395.545H404.437Z" fill="black"/>
<path d="M442.061 436.561C442.646 435.975 442.646 435.025 442.061 434.439L432.515 424.893C431.929 424.308 430.979 424.308 430.393 424.893C429.808 425.479 429.808 426.429 430.393 427.015L438.879 435.5L430.393 443.985C429.808 444.571 429.808 445.521 430.393 446.107C430.979 446.692 431.929 446.692 432.515 446.107L442.061 436.561ZM41 437H441V434H41V437Z" fill="black"/>
<path d="M42.0607 34.9393C41.4749 34.3536 40.5251 34.3536 39.9393 34.9393L30.3934 44.4853C29.8076 45.0711 29.8076 46.0208 30.3934 46.6066C30.9792 47.1924 31.9289 47.1924 32.5147 46.6066L41 38.1213L49.4853 46.6066C50.0711 47.1924 51.0208 47.1924 51.6066 46.6066C52.1924 46.0208 52.1924 45.0711 51.6066 44.4853L42.0607 34.9393ZM42.5 436L42.5 36H39.5L39.5 436H42.5Z" fill="black"/>
<path d="M291.133 244V226.545H297.031C298.395 226.545 299.514 226.778 300.389 227.244C301.264 227.705 301.912 228.338 302.332 229.145C302.752 229.952 302.963 230.869 302.963 231.898C302.963 232.926 302.752 233.838 302.332 234.634C301.912 235.429 301.267 236.054 300.397 236.509C299.528 236.957 298.417 237.182 297.065 237.182H292.292V235.273H296.997C297.929 235.273 298.679 235.136 299.247 234.864C299.821 234.591 300.235 234.205 300.491 233.705C300.752 233.199 300.883 232.597 300.883 231.898C300.883 231.199 300.752 230.588 300.491 230.065C300.23 229.543 299.812 229.139 299.238 228.855C298.664 228.565 297.906 228.42 296.963 228.42H293.247V244H291.133ZM299.349 236.159L303.645 244H301.19L296.963 236.159H299.349ZM310.064 244.307C309.235 244.307 308.482 244.151 307.806 243.838C307.13 243.52 306.593 243.062 306.195 242.466C305.797 241.864 305.598 241.136 305.598 240.284C305.598 239.534 305.746 238.926 306.042 238.46C306.337 237.989 306.732 237.619 307.226 237.352C307.721 237.085 308.266 236.886 308.863 236.756C309.465 236.619 310.07 236.511 310.678 236.432C311.473 236.33 312.118 236.253 312.613 236.202C313.113 236.145 313.476 236.051 313.703 235.92C313.936 235.79 314.053 235.562 314.053 235.239V235.17C314.053 234.33 313.823 233.676 313.363 233.21C312.908 232.744 312.218 232.511 311.292 232.511C310.331 232.511 309.578 232.722 309.033 233.142C308.488 233.562 308.104 234.011 307.882 234.489L305.973 233.807C306.314 233.011 306.769 232.392 307.337 231.949C307.911 231.5 308.536 231.187 309.212 231.011C309.894 230.83 310.564 230.739 311.223 230.739C311.644 230.739 312.127 230.79 312.672 230.892C313.223 230.989 313.755 231.19 314.266 231.497C314.783 231.804 315.212 232.267 315.553 232.886C315.894 233.506 316.064 234.335 316.064 235.375V244H314.053V242.227H313.951C313.814 242.511 313.587 242.815 313.269 243.139C312.951 243.463 312.527 243.739 311.999 243.966C311.471 244.193 310.826 244.307 310.064 244.307ZM310.371 242.5C311.167 242.5 311.837 242.344 312.382 242.031C312.934 241.719 313.348 241.315 313.627 240.821C313.911 240.327 314.053 239.807 314.053 239.261V237.42C313.968 237.523 313.78 237.616 313.49 237.702C313.206 237.781 312.877 237.852 312.502 237.915C312.132 237.972 311.772 238.023 311.419 238.068C311.073 238.108 310.792 238.142 310.576 238.17C310.053 238.239 309.564 238.349 309.11 238.503C308.661 238.651 308.297 238.875 308.019 239.176C307.746 239.472 307.61 239.875 307.61 240.386C307.61 241.085 307.868 241.614 308.385 241.972C308.908 242.324 309.57 242.5 310.371 242.5ZM324.679 244.273C323.588 244.273 322.625 243.997 321.789 243.446C320.954 242.889 320.301 242.105 319.829 241.094C319.358 240.077 319.122 238.875 319.122 237.489C319.122 236.114 319.358 234.92 319.829 233.909C320.301 232.898 320.957 232.116 321.798 231.565C322.639 231.014 323.61 230.739 324.713 230.739C325.565 230.739 326.238 230.881 326.733 231.165C327.233 231.443 327.613 231.761 327.875 232.119C328.142 232.472 328.349 232.761 328.497 232.989H328.667V226.545H330.679V244H328.735V241.989H328.497C328.349 242.227 328.139 242.528 327.866 242.892C327.593 243.25 327.204 243.571 326.699 243.855C326.193 244.134 325.52 244.273 324.679 244.273ZM324.951 242.466C325.758 242.466 326.44 242.256 326.997 241.835C327.554 241.409 327.977 240.821 328.267 240.071C328.556 239.315 328.701 238.443 328.701 237.455C328.701 236.477 328.559 235.622 328.275 234.889C327.991 234.151 327.571 233.577 327.014 233.168C326.457 232.753 325.77 232.545 324.951 232.545C324.099 232.545 323.389 232.764 322.821 233.202C322.258 233.634 321.835 234.222 321.551 234.966C321.272 235.705 321.133 236.534 321.133 237.455C321.133 238.386 321.275 239.233 321.559 239.994C321.849 240.75 322.275 241.352 322.838 241.801C323.406 242.244 324.11 242.466 324.951 242.466ZM334.642 244V230.909H336.653V244H334.642ZM335.664 228.727C335.272 228.727 334.934 228.594 334.65 228.327C334.372 228.06 334.233 227.739 334.233 227.364C334.233 226.989 334.372 226.668 334.65 226.401C334.934 226.134 335.272 226 335.664 226C336.056 226 336.392 226.134 336.67 226.401C336.954 226.668 337.096 226.989 337.096 227.364C337.096 227.739 336.954 228.06 336.67 228.327C336.392 228.594 336.056 228.727 335.664 228.727ZM348.587 238.648V230.909H350.598V244H348.587V241.784H348.451C348.144 242.449 347.667 243.014 347.019 243.48C346.371 243.94 345.553 244.17 344.564 244.17C343.746 244.17 343.019 243.991 342.382 243.634C341.746 243.27 341.246 242.724 340.882 241.997C340.519 241.264 340.337 240.341 340.337 239.227V230.909H342.348V239.091C342.348 240.045 342.615 240.807 343.15 241.375C343.689 241.943 344.377 242.227 345.212 242.227C345.712 242.227 346.221 242.099 346.738 241.844C347.26 241.588 347.698 241.196 348.05 240.668C348.408 240.139 348.587 239.466 348.587 238.648ZM363.555 233.841L361.748 234.352C361.635 234.051 361.467 233.759 361.245 233.474C361.029 233.185 360.734 232.946 360.359 232.759C359.984 232.571 359.504 232.477 358.919 232.477C358.118 232.477 357.45 232.662 356.916 233.031C356.387 233.395 356.123 233.858 356.123 234.42C356.123 234.92 356.305 235.315 356.669 235.605C357.032 235.895 357.6 236.136 358.373 236.33L360.316 236.807C361.487 237.091 362.359 237.526 362.933 238.111C363.507 238.69 363.794 239.437 363.794 240.352C363.794 241.102 363.578 241.773 363.146 242.364C362.72 242.955 362.123 243.42 361.356 243.761C360.589 244.102 359.697 244.273 358.68 244.273C357.345 244.273 356.24 243.983 355.365 243.403C354.49 242.824 353.936 241.977 353.703 240.864L355.612 240.386C355.794 241.091 356.137 241.619 356.643 241.972C357.154 242.324 357.822 242.5 358.646 242.5C359.583 242.5 360.328 242.301 360.879 241.903C361.436 241.5 361.714 241.017 361.714 240.455C361.714 240 361.555 239.619 361.237 239.312C360.919 239 360.43 238.767 359.771 238.614L357.589 238.102C356.39 237.818 355.51 237.378 354.947 236.781C354.39 236.179 354.112 235.426 354.112 234.523C354.112 233.784 354.319 233.131 354.734 232.562C355.154 231.994 355.725 231.548 356.447 231.224C357.174 230.901 357.998 230.739 358.919 230.739C360.214 230.739 361.231 231.023 361.97 231.591C362.714 232.159 363.243 232.909 363.555 233.841Z" fill="black"/>
<path d="M300.056 197H297.84L304.249 179.545H306.431L312.84 197H310.624L305.408 182.307H305.272L300.056 197ZM300.874 190.182H309.806V192.057H300.874V190.182ZM317.298 189.125V197H315.286V183.909H317.229V185.955H317.4C317.707 185.29 318.173 184.756 318.798 184.352C319.423 183.943 320.229 183.739 321.218 183.739C322.104 183.739 322.88 183.92 323.545 184.284C324.21 184.642 324.727 185.188 325.096 185.92C325.465 186.648 325.65 187.568 325.65 188.682V197H323.638V188.818C323.638 187.79 323.371 186.989 322.837 186.415C322.303 185.835 321.57 185.545 320.638 185.545C319.996 185.545 319.423 185.685 318.917 185.963C318.417 186.241 318.022 186.648 317.732 187.182C317.442 187.716 317.298 188.364 317.298 189.125ZM334.609 202.182C333.638 202.182 332.803 202.057 332.104 201.807C331.405 201.562 330.822 201.239 330.357 200.835C329.896 200.438 329.53 200.011 329.257 199.557L330.859 198.432C331.041 198.67 331.271 198.943 331.55 199.25C331.828 199.562 332.209 199.832 332.692 200.06C333.18 200.293 333.82 200.409 334.609 200.409C335.666 200.409 336.538 200.153 337.226 199.642C337.913 199.131 338.257 198.33 338.257 197.239V194.58H338.087C337.939 194.818 337.729 195.114 337.456 195.466C337.189 195.812 336.803 196.122 336.297 196.395C335.797 196.662 335.121 196.795 334.268 196.795C333.212 196.795 332.263 196.545 331.422 196.045C330.587 195.545 329.925 194.818 329.436 193.864C328.953 192.909 328.712 191.75 328.712 190.386C328.712 189.045 328.947 187.878 329.419 186.884C329.891 185.884 330.547 185.111 331.388 184.565C332.229 184.014 333.2 183.739 334.303 183.739C335.155 183.739 335.831 183.881 336.331 184.165C336.837 184.443 337.223 184.761 337.49 185.119C337.763 185.472 337.973 185.761 338.121 185.989H338.325V183.909H340.268V197.375C340.268 198.5 340.013 199.415 339.501 200.119C338.996 200.83 338.314 201.349 337.456 201.679C336.604 202.014 335.655 202.182 334.609 202.182ZM334.541 194.989C335.348 194.989 336.03 194.804 336.587 194.435C337.143 194.065 337.567 193.534 337.857 192.841C338.146 192.148 338.291 191.318 338.291 190.352C338.291 189.409 338.149 188.577 337.865 187.855C337.581 187.134 337.161 186.568 336.604 186.159C336.047 185.75 335.359 185.545 334.541 185.545C333.689 185.545 332.979 185.761 332.411 186.193C331.848 186.625 331.425 187.205 331.141 187.932C330.862 188.659 330.723 189.466 330.723 190.352C330.723 191.261 330.865 192.065 331.149 192.764C331.439 193.457 331.865 194.003 332.428 194.401C332.996 194.793 333.7 194.989 334.541 194.989ZM345.962 179.545V197H343.95V179.545H345.962ZM355.134 197.273C353.873 197.273 352.785 196.994 351.87 196.438C350.961 195.875 350.259 195.091 349.765 194.085C349.276 193.074 349.032 191.898 349.032 190.557C349.032 189.216 349.276 188.034 349.765 187.011C350.259 185.983 350.947 185.182 351.827 184.608C352.714 184.028 353.748 183.739 354.93 183.739C355.612 183.739 356.285 183.852 356.95 184.08C357.614 184.307 358.219 184.676 358.765 185.188C359.31 185.693 359.745 186.364 360.069 187.199C360.393 188.034 360.555 189.062 360.555 190.284V191.136H350.464V189.398H358.509C358.509 188.659 358.362 188 358.066 187.42C357.776 186.841 357.362 186.384 356.822 186.048C356.288 185.713 355.657 185.545 354.93 185.545C354.129 185.545 353.435 185.744 352.85 186.142C352.271 186.534 351.825 187.045 351.512 187.676C351.2 188.307 351.043 188.983 351.043 189.705V190.864C351.043 191.852 351.214 192.69 351.555 193.378C351.901 194.06 352.381 194.58 352.995 194.938C353.609 195.29 354.322 195.466 355.134 195.466C355.663 195.466 356.14 195.392 356.566 195.244C356.998 195.091 357.37 194.864 357.683 194.562C357.995 194.256 358.237 193.875 358.407 193.42L360.35 193.966C360.146 194.625 359.802 195.205 359.319 195.705C358.836 196.199 358.239 196.585 357.529 196.864C356.819 197.136 356.021 197.273 355.134 197.273Z" fill="black"/>
<circle cx="244" cy="211" r="148.5" stroke="black" stroke-width="3" stroke-dasharray="6 6"/>
<path d="M279.5 177.5C285.333 183.333 296.3 199.3 293.5 216.5" stroke="black"/>
</svg>
