<svg width="646" height="558" viewBox="0 0 646 558" fill="none" xmlns="http://www.w3.org/2000/svg">
<g opacity="0.75">
<circle cx="185.86" cy="186.07" r="185.86" fill="#14A873" fill-opacity="0.5"/>
<circle cx="460.14" cy="186.07" r="185.86" fill="#108BD0" fill-opacity="0.5"/>
<circle cx="323" cy="371.93" r="185.86" fill="#10D0D0" fill-opacity="0.5"/>
</g>
<path d="M408.276 123V96.8182H418.605C420.591 96.8182 422.283 97.1974 423.68 97.956C425.078 98.706 426.143 99.75 426.876 101.088C427.618 102.418 427.989 103.952 427.989 105.69C427.989 107.429 427.614 108.963 426.864 110.293C426.114 111.622 425.027 112.658 423.604 113.399C422.189 114.141 420.476 114.511 418.464 114.511H411.881V110.075H417.57C418.635 110.075 419.513 109.892 420.203 109.526C420.902 109.151 421.422 108.635 421.763 107.979C422.112 107.314 422.287 106.551 422.287 105.69C422.287 104.821 422.112 104.062 421.763 103.415C421.422 102.759 420.902 102.251 420.203 101.893C419.504 101.527 418.618 101.344 417.544 101.344H413.811V123H408.276ZM431.482 123V103.364H436.762V106.79H436.966C437.324 105.571 437.925 104.651 438.769 104.028C439.613 103.398 440.584 103.082 441.684 103.082C441.956 103.082 442.25 103.099 442.566 103.134C442.881 103.168 443.158 103.214 443.397 103.274V108.107C443.141 108.03 442.787 107.962 442.336 107.902C441.884 107.842 441.471 107.812 441.096 107.812C440.294 107.812 439.578 107.987 438.948 108.337C438.326 108.678 437.831 109.155 437.465 109.768C437.107 110.382 436.928 111.089 436.928 111.891V123H431.482ZM454.17 123.384C452.185 123.384 450.467 122.962 449.018 122.118C447.578 121.266 446.466 120.081 445.682 118.564C444.898 117.038 444.506 115.27 444.506 113.259C444.506 111.23 444.898 109.457 445.682 107.94C446.466 106.415 447.578 105.23 449.018 104.386C450.467 103.534 452.185 103.108 454.17 103.108C456.156 103.108 457.869 103.534 459.31 104.386C460.759 105.23 461.875 106.415 462.659 107.94C463.443 109.457 463.835 111.23 463.835 113.259C463.835 115.27 463.443 117.038 462.659 118.564C461.875 120.081 460.759 121.266 459.31 122.118C457.869 122.962 456.156 123.384 454.17 123.384ZM454.196 119.165C455.099 119.165 455.854 118.909 456.459 118.398C457.064 117.878 457.52 117.17 457.827 116.276C458.142 115.381 458.3 114.362 458.3 113.22C458.3 112.078 458.142 111.06 457.827 110.165C457.52 109.27 457.064 108.562 456.459 108.043C455.854 107.523 455.099 107.263 454.196 107.263C453.284 107.263 452.517 107.523 451.895 108.043C451.281 108.562 450.817 109.27 450.501 110.165C450.195 111.06 450.041 112.078 450.041 113.22C450.041 114.362 450.195 115.381 450.501 116.276C450.817 117.17 451.281 117.878 451.895 118.398C452.517 118.909 453.284 119.165 454.196 119.165ZM474.612 123.32C473.121 123.32 471.77 122.936 470.56 122.169C469.358 121.393 468.403 120.256 467.696 118.756C466.997 117.247 466.648 115.398 466.648 113.207C466.648 110.957 467.01 109.087 467.734 107.595C468.459 106.095 469.422 104.974 470.624 104.233C471.834 103.483 473.159 103.108 474.599 103.108C475.699 103.108 476.615 103.295 477.348 103.67C478.089 104.037 478.686 104.497 479.138 105.051C479.598 105.597 479.947 106.134 480.186 106.662H480.352V96.8182H485.786V123H480.416V119.855H480.186C479.93 120.401 479.568 120.942 479.099 121.479C478.639 122.007 478.038 122.446 477.297 122.795C476.564 123.145 475.669 123.32 474.612 123.32ZM476.338 118.986C477.216 118.986 477.957 118.747 478.562 118.27C479.176 117.784 479.645 117.107 479.969 116.237C480.301 115.368 480.467 114.349 480.467 113.182C480.467 112.014 480.305 111 479.982 110.139C479.658 109.278 479.189 108.614 478.575 108.145C477.962 107.676 477.216 107.442 476.338 107.442C475.443 107.442 474.689 107.685 474.075 108.17C473.462 108.656 472.997 109.33 472.682 110.19C472.366 111.051 472.209 112.048 472.209 113.182C472.209 114.324 472.366 115.334 472.682 116.212C473.006 117.081 473.47 117.763 474.075 118.257C474.689 118.743 475.443 118.986 476.338 118.986ZM502.855 114.639V103.364H508.301V123H503.073V119.433H502.868C502.425 120.584 501.688 121.509 500.657 122.207C499.634 122.906 498.385 123.256 496.911 123.256C495.598 123.256 494.444 122.957 493.446 122.361C492.449 121.764 491.669 120.916 491.107 119.817C490.553 118.717 490.272 117.401 490.263 115.866V103.364H495.709V114.895C495.718 116.054 496.029 116.97 496.642 117.643C497.256 118.317 498.078 118.653 499.11 118.653C499.766 118.653 500.38 118.504 500.951 118.206C501.522 117.899 501.982 117.447 502.331 116.851C502.689 116.254 502.864 115.517 502.855 114.639ZM521.53 123.384C519.518 123.384 517.788 122.957 516.339 122.105C514.899 121.244 513.791 120.051 513.016 118.526C512.249 117 511.865 115.244 511.865 113.259C511.865 111.247 512.253 109.483 513.028 107.966C513.813 106.44 514.925 105.251 516.365 104.399C517.805 103.538 519.518 103.108 521.504 103.108C523.217 103.108 524.717 103.419 526.004 104.041C527.291 104.663 528.31 105.537 529.06 106.662C529.81 107.787 530.223 109.108 530.3 110.625H525.161C525.016 109.645 524.632 108.857 524.01 108.26C523.396 107.655 522.591 107.352 521.594 107.352C520.75 107.352 520.013 107.582 519.382 108.043C518.76 108.494 518.274 109.155 517.925 110.024C517.575 110.893 517.401 111.946 517.401 113.182C517.401 114.435 517.571 115.5 517.912 116.378C518.261 117.256 518.751 117.925 519.382 118.385C520.013 118.845 520.75 119.075 521.594 119.075C522.216 119.075 522.774 118.947 523.268 118.692C523.771 118.436 524.185 118.065 524.509 117.58C524.841 117.085 525.058 116.493 525.161 115.803H530.3C530.214 117.303 529.805 118.624 529.072 119.766C528.348 120.899 527.347 121.786 526.068 122.425C524.79 123.064 523.277 123.384 521.53 123.384ZM544.231 103.364V107.455H532.406V103.364H544.231ZM535.091 98.6591H540.537V116.966C540.537 117.469 540.613 117.861 540.767 118.142C540.92 118.415 541.133 118.607 541.406 118.717C541.687 118.828 542.011 118.884 542.377 118.884C542.633 118.884 542.889 118.862 543.145 118.82C543.4 118.768 543.596 118.73 543.733 118.705L544.589 122.757C544.316 122.842 543.933 122.94 543.439 123.051C542.944 123.17 542.343 123.243 541.636 123.268C540.324 123.32 539.173 123.145 538.184 122.744C537.204 122.344 536.441 121.722 535.896 120.878C535.35 120.034 535.082 118.969 535.091 117.682V98.6591ZM417.557 167H408.276V140.818H417.634C420.267 140.818 422.534 141.342 424.435 142.391C426.335 143.43 427.797 144.926 428.82 146.878C429.851 148.83 430.366 151.165 430.366 153.884C430.366 156.611 429.851 158.955 428.82 160.915C427.797 162.875 426.327 164.379 424.409 165.428C422.5 166.476 420.216 167 417.557 167ZM413.811 162.257H417.327C418.963 162.257 420.339 161.967 421.456 161.388C422.581 160.8 423.425 159.892 423.987 158.665C424.558 157.429 424.844 155.835 424.844 153.884C424.844 151.949 424.558 150.368 423.987 149.141C423.425 147.913 422.585 147.01 421.469 146.43C420.352 145.851 418.976 145.561 417.339 145.561H413.811V162.257ZM443.314 167.384C441.294 167.384 439.555 166.974 438.098 166.156C436.649 165.33 435.532 164.162 434.748 162.653C433.964 161.136 433.572 159.342 433.572 157.271C433.572 155.251 433.964 153.479 434.748 151.953C435.532 150.428 436.636 149.239 438.059 148.386C439.491 147.534 441.17 147.108 443.096 147.108C444.392 147.108 445.598 147.317 446.714 147.734C447.839 148.143 448.819 148.761 449.654 149.588C450.498 150.415 451.154 151.455 451.623 152.707C452.092 153.952 452.326 155.409 452.326 157.08V158.575H435.745V155.2H447.2C447.2 154.416 447.029 153.722 446.689 153.116C446.348 152.511 445.875 152.038 445.27 151.697C444.673 151.348 443.978 151.173 443.186 151.173C442.359 151.173 441.626 151.365 440.987 151.749C440.356 152.124 439.862 152.631 439.504 153.27C439.146 153.901 438.963 154.604 438.954 155.379V158.588C438.954 159.56 439.133 160.399 439.491 161.107C439.858 161.814 440.373 162.359 441.038 162.743C441.703 163.126 442.491 163.318 443.403 163.318C444.008 163.318 444.562 163.233 445.065 163.062C445.568 162.892 445.998 162.636 446.356 162.295C446.714 161.955 446.987 161.537 447.174 161.043L452.211 161.375C451.956 162.585 451.431 163.642 450.639 164.545C449.855 165.44 448.841 166.139 447.596 166.642C446.36 167.136 444.933 167.384 443.314 167.384ZM472.218 152.963L467.233 153.27C467.147 152.844 466.964 152.46 466.683 152.119C466.402 151.77 466.031 151.493 465.571 151.288C465.119 151.075 464.578 150.969 463.947 150.969C463.103 150.969 462.392 151.148 461.812 151.506C461.233 151.855 460.943 152.324 460.943 152.912C460.943 153.381 461.13 153.777 461.505 154.101C461.88 154.425 462.524 154.685 463.436 154.881L466.99 155.597C468.899 155.989 470.322 156.619 471.26 157.489C472.197 158.358 472.666 159.5 472.666 160.915C472.666 162.202 472.287 163.331 471.528 164.303C470.778 165.274 469.747 166.033 468.434 166.578C467.13 167.115 465.626 167.384 463.922 167.384C461.322 167.384 459.251 166.842 457.708 165.76C456.174 164.669 455.275 163.186 455.011 161.311L460.368 161.03C460.529 161.822 460.922 162.428 461.544 162.845C462.166 163.254 462.963 163.459 463.934 163.459C464.889 163.459 465.656 163.276 466.235 162.909C466.824 162.534 467.122 162.053 467.13 161.464C467.122 160.97 466.913 160.565 466.504 160.25C466.095 159.926 465.464 159.679 464.612 159.509L461.211 158.831C459.294 158.447 457.866 157.783 456.929 156.837C456 155.891 455.535 154.685 455.535 153.219C455.535 151.957 455.876 150.871 456.558 149.959C457.248 149.047 458.216 148.344 459.46 147.849C460.713 147.355 462.179 147.108 463.858 147.108C466.338 147.108 468.289 147.632 469.713 148.68C471.145 149.729 471.98 151.156 472.218 152.963ZM476.095 167V147.364H481.541V167H476.095ZM478.831 144.832C478.021 144.832 477.327 144.564 476.747 144.027C476.176 143.482 475.891 142.83 475.891 142.071C475.891 141.321 476.176 140.678 476.747 140.141C477.327 139.595 478.021 139.322 478.831 139.322C479.641 139.322 480.331 139.595 480.902 140.141C481.482 140.678 481.771 141.321 481.771 142.071C481.771 142.83 481.482 143.482 480.902 144.027C480.331 144.564 479.641 144.832 478.831 144.832ZM494.75 174.773C492.986 174.773 491.473 174.53 490.212 174.044C488.959 173.567 487.962 172.915 487.221 172.088C486.479 171.261 485.998 170.332 485.776 169.301L490.813 168.624C490.966 169.016 491.209 169.382 491.542 169.723C491.874 170.064 492.313 170.337 492.858 170.541C493.412 170.754 494.086 170.861 494.878 170.861C496.063 170.861 497.039 170.571 497.806 169.991C498.581 169.42 498.969 168.462 498.969 167.115V163.523H498.739C498.5 164.068 498.142 164.584 497.665 165.07C497.188 165.555 496.574 165.952 495.824 166.259C495.074 166.565 494.179 166.719 493.14 166.719C491.665 166.719 490.323 166.378 489.113 165.696C487.911 165.006 486.952 163.953 486.236 162.538C485.529 161.115 485.175 159.317 485.175 157.143C485.175 154.919 485.537 153.061 486.262 151.57C486.986 150.078 487.949 148.962 489.151 148.22C490.361 147.479 491.686 147.108 493.127 147.108C494.226 147.108 495.147 147.295 495.888 147.67C496.63 148.037 497.226 148.497 497.678 149.051C498.138 149.597 498.492 150.134 498.739 150.662H498.944V147.364H504.351V167.192C504.351 168.862 503.942 170.26 503.124 171.385C502.306 172.51 501.172 173.354 499.723 173.916C498.283 174.487 496.625 174.773 494.75 174.773ZM494.865 162.628C495.743 162.628 496.485 162.411 497.09 161.976C497.703 161.533 498.172 160.902 498.496 160.084C498.828 159.257 498.995 158.268 498.995 157.118C498.995 155.967 498.833 154.97 498.509 154.126C498.185 153.274 497.716 152.614 497.103 152.145C496.489 151.676 495.743 151.442 494.865 151.442C493.971 151.442 493.216 151.685 492.603 152.17C491.989 152.648 491.525 153.312 491.209 154.165C490.894 155.017 490.736 156.001 490.736 157.118C490.736 158.251 490.894 159.232 491.209 160.058C491.533 160.876 491.998 161.511 492.603 161.963C493.216 162.406 493.971 162.628 494.865 162.628ZM514.131 155.648V167H508.685V147.364H513.875V150.828H514.105C514.54 149.686 515.269 148.783 516.292 148.118C517.314 147.445 518.554 147.108 520.012 147.108C521.375 147.108 522.564 147.406 523.578 148.003C524.593 148.599 525.381 149.452 525.944 150.56C526.506 151.659 526.787 152.972 526.787 154.497V167H521.341V155.469C521.35 154.267 521.043 153.33 520.421 152.656C519.799 151.974 518.942 151.634 517.851 151.634C517.118 151.634 516.471 151.791 515.908 152.107C515.354 152.422 514.919 152.882 514.604 153.487C514.297 154.084 514.14 154.804 514.131 155.648Z" fill="#141414"/>
<path d="M88.604 96.8182V123H83.0685V96.8182H88.604ZM98.5021 111.648V123H93.0561V103.364H98.2464V106.828H98.4766C98.9112 105.686 99.6399 104.783 100.663 104.118C101.685 103.445 102.925 103.108 104.383 103.108C105.746 103.108 106.935 103.406 107.95 104.003C108.964 104.599 109.752 105.452 110.315 106.56C110.877 107.659 111.158 108.972 111.158 110.497V123H105.712V111.469C105.721 110.267 105.414 109.33 104.792 108.656C104.17 107.974 103.313 107.634 102.222 107.634C101.489 107.634 100.842 107.791 100.279 108.107C99.7251 108.422 99.2905 108.882 98.9751 109.487C98.6683 110.084 98.5107 110.804 98.5021 111.648ZM125.895 103.364V107.455H114.07V103.364H125.895ZM116.755 98.6591H122.201V116.966C122.201 117.469 122.277 117.861 122.431 118.142C122.584 118.415 122.797 118.607 123.07 118.717C123.351 118.828 123.675 118.884 124.042 118.884C124.297 118.884 124.553 118.862 124.809 118.82C125.064 118.768 125.26 118.73 125.397 118.705L126.253 122.757C125.98 122.842 125.597 122.94 125.103 123.051C124.608 123.17 124.007 123.243 123.3 123.268C121.988 123.32 120.837 123.145 119.848 122.744C118.868 122.344 118.105 121.722 117.56 120.878C117.015 120.034 116.746 118.969 116.755 117.682V98.6591ZM138.181 123.384C136.161 123.384 134.422 122.974 132.965 122.156C131.516 121.33 130.4 120.162 129.615 118.653C128.831 117.136 128.439 115.342 128.439 113.271C128.439 111.251 128.831 109.479 129.615 107.953C130.4 106.428 131.503 105.239 132.926 104.386C134.358 103.534 136.037 103.108 137.963 103.108C139.259 103.108 140.465 103.317 141.581 103.734C142.706 104.143 143.686 104.761 144.522 105.588C145.365 106.415 146.022 107.455 146.49 108.707C146.959 109.952 147.194 111.409 147.194 113.08V114.575H130.613V111.2H142.067C142.067 110.416 141.897 109.722 141.556 109.116C141.215 108.511 140.742 108.038 140.137 107.697C139.54 107.348 138.846 107.173 138.053 107.173C137.226 107.173 136.493 107.365 135.854 107.749C135.223 108.124 134.729 108.631 134.371 109.27C134.013 109.901 133.83 110.604 133.821 111.379V114.588C133.821 115.56 134 116.399 134.358 117.107C134.725 117.814 135.24 118.359 135.905 118.743C136.57 119.126 137.358 119.318 138.27 119.318C138.875 119.318 139.429 119.233 139.932 119.062C140.435 118.892 140.865 118.636 141.223 118.295C141.581 117.955 141.854 117.537 142.042 117.043L147.078 117.375C146.823 118.585 146.299 119.642 145.506 120.545C144.722 121.44 143.708 122.139 142.463 122.642C141.228 123.136 139.8 123.384 138.181 123.384ZM150.748 123V103.364H156.027V106.79H156.232C156.59 105.571 157.191 104.651 158.034 104.028C158.878 103.398 159.85 103.082 160.949 103.082C161.222 103.082 161.516 103.099 161.831 103.134C162.147 103.168 162.424 103.214 162.662 103.274V108.107C162.407 108.03 162.053 107.962 161.601 107.902C161.15 107.842 160.736 107.812 160.361 107.812C159.56 107.812 158.844 107.987 158.213 108.337C157.591 108.678 157.097 109.155 156.73 109.768C156.373 110.382 156.194 111.089 156.194 111.891V123H150.748ZM177.022 103.364V107.455H164.903V103.364H177.022ZM167.677 123V101.945C167.677 100.521 167.954 99.3409 168.508 98.4034C169.07 97.4659 169.837 96.7628 170.809 96.294C171.781 95.8253 172.884 95.5909 174.12 95.5909C174.955 95.5909 175.718 95.6548 176.408 95.7827C177.107 95.9105 177.627 96.0256 177.968 96.1278L176.996 100.219C176.783 100.151 176.519 100.087 176.204 100.027C175.897 99.9673 175.582 99.9375 175.258 99.9375C174.457 99.9375 173.898 100.125 173.583 100.5C173.268 100.866 173.11 101.382 173.11 102.047V123H167.677ZM185.245 123.371C183.993 123.371 182.876 123.153 181.896 122.719C180.916 122.276 180.14 121.624 179.569 120.763C179.007 119.893 178.725 118.811 178.725 117.516C178.725 116.425 178.926 115.509 179.326 114.767C179.727 114.026 180.272 113.429 180.963 112.977C181.653 112.526 182.437 112.185 183.315 111.955C184.201 111.724 185.13 111.562 186.102 111.469C187.244 111.349 188.164 111.239 188.863 111.136C189.562 111.026 190.069 110.864 190.385 110.651C190.7 110.437 190.858 110.122 190.858 109.705V109.628C190.858 108.818 190.602 108.192 190.091 107.749C189.588 107.305 188.872 107.084 187.943 107.084C186.963 107.084 186.183 107.301 185.603 107.736C185.024 108.162 184.64 108.699 184.453 109.347L179.416 108.938C179.672 107.744 180.174 106.713 180.924 105.844C181.674 104.966 182.642 104.293 183.826 103.824C185.02 103.347 186.4 103.108 187.968 103.108C189.059 103.108 190.103 103.236 191.1 103.491C192.106 103.747 192.997 104.143 193.772 104.68C194.556 105.217 195.174 105.908 195.626 106.751C196.078 107.587 196.304 108.588 196.304 109.756V123H191.139V120.277H190.985C190.67 120.891 190.248 121.432 189.72 121.901C189.191 122.361 188.556 122.723 187.815 122.987C187.074 123.243 186.217 123.371 185.245 123.371ZM186.805 119.612C187.606 119.612 188.314 119.455 188.927 119.139C189.541 118.815 190.022 118.381 190.372 117.835C190.721 117.29 190.896 116.672 190.896 115.982V113.898C190.725 114.009 190.491 114.111 190.193 114.205C189.903 114.29 189.575 114.371 189.208 114.447C188.842 114.516 188.475 114.58 188.109 114.639C187.743 114.69 187.41 114.737 187.112 114.78C186.473 114.874 185.914 115.023 185.437 115.227C184.96 115.432 184.589 115.709 184.325 116.058C184.061 116.399 183.929 116.825 183.929 117.337C183.929 118.078 184.197 118.645 184.734 119.037C185.279 119.42 185.97 119.612 186.805 119.612ZM209.401 123.384C207.39 123.384 205.659 122.957 204.211 122.105C202.77 121.244 201.662 120.051 200.887 118.526C200.12 117 199.736 115.244 199.736 113.259C199.736 111.247 200.124 109.483 200.9 107.966C201.684 106.44 202.796 105.251 204.236 104.399C205.676 103.538 207.39 103.108 209.375 103.108C211.088 103.108 212.588 103.419 213.875 104.041C215.162 104.663 216.181 105.537 216.931 106.662C217.681 107.787 218.094 109.108 218.171 110.625H213.032C212.887 109.645 212.503 108.857 211.881 108.26C211.267 107.655 210.462 107.352 209.465 107.352C208.621 107.352 207.884 107.582 207.253 108.043C206.631 108.494 206.145 109.155 205.796 110.024C205.446 110.893 205.272 111.946 205.272 113.182C205.272 114.435 205.442 115.5 205.783 116.378C206.132 117.256 206.623 117.925 207.253 118.385C207.884 118.845 208.621 119.075 209.465 119.075C210.087 119.075 210.645 118.947 211.14 118.692C211.642 118.436 212.056 118.065 212.38 117.58C212.712 117.085 212.929 116.493 213.032 115.803H218.171C218.086 117.303 217.676 118.624 216.944 119.766C216.219 120.899 215.218 121.786 213.939 122.425C212.661 123.064 211.148 123.384 209.401 123.384ZM230.607 123.384C228.587 123.384 226.848 122.974 225.391 122.156C223.942 121.33 222.825 120.162 222.041 118.653C221.257 117.136 220.865 115.342 220.865 113.271C220.865 111.251 221.257 109.479 222.041 107.953C222.825 106.428 223.929 105.239 225.352 104.386C226.784 103.534 228.463 103.108 230.389 103.108C231.685 103.108 232.891 103.317 234.007 103.734C235.132 104.143 236.112 104.761 236.947 105.588C237.791 106.415 238.447 107.455 238.916 108.707C239.385 109.952 239.619 111.409 239.619 113.08V114.575H223.038V111.2H234.493C234.493 110.416 234.322 109.722 233.982 109.116C233.641 108.511 233.168 108.038 232.562 107.697C231.966 107.348 231.271 107.173 230.479 107.173C229.652 107.173 228.919 107.365 228.28 107.749C227.649 108.124 227.155 108.631 226.797 109.27C226.439 109.901 226.256 110.604 226.247 111.379V114.588C226.247 115.56 226.426 116.399 226.784 117.107C227.151 117.814 227.666 118.359 228.331 118.743C228.996 119.126 229.784 119.318 230.696 119.318C231.301 119.318 231.855 119.233 232.358 119.062C232.861 118.892 233.291 118.636 233.649 118.295C234.007 117.955 234.28 117.537 234.467 117.043L239.504 117.375C239.249 118.585 238.724 119.642 237.932 120.545C237.148 121.44 236.134 122.139 234.889 122.642C233.653 123.136 232.226 123.384 230.607 123.384ZM129.651 167H120.369V140.818H129.727C132.361 140.818 134.628 141.342 136.528 142.391C138.429 143.43 139.891 144.926 140.913 146.878C141.945 148.83 142.46 151.165 142.46 153.884C142.46 156.611 141.945 158.955 140.913 160.915C139.891 162.875 138.42 164.379 136.503 165.428C134.594 166.476 132.31 167 129.651 167ZM125.905 162.257H129.42C131.057 162.257 132.433 161.967 133.55 161.388C134.675 160.8 135.518 159.892 136.081 158.665C136.652 157.429 136.938 155.835 136.938 153.884C136.938 151.949 136.652 150.368 136.081 149.141C135.518 147.913 134.679 147.01 133.562 146.43C132.446 145.851 131.07 145.561 129.433 145.561H125.905V162.257ZM155.407 167.384C153.387 167.384 151.649 166.974 150.191 166.156C148.743 165.33 147.626 164.162 146.842 162.653C146.058 161.136 145.666 159.342 145.666 157.271C145.666 155.251 146.058 153.479 146.842 151.953C147.626 150.428 148.73 149.239 150.153 148.386C151.585 147.534 153.264 147.108 155.19 147.108C156.485 147.108 157.691 147.317 158.808 147.734C159.933 148.143 160.913 148.761 161.748 149.588C162.592 150.415 163.248 151.455 163.717 152.707C164.186 153.952 164.42 155.409 164.42 157.08V158.575H147.839V155.2H159.294C159.294 154.416 159.123 153.722 158.782 153.116C158.441 152.511 157.968 152.038 157.363 151.697C156.767 151.348 156.072 151.173 155.279 151.173C154.453 151.173 153.72 151.365 153.081 151.749C152.45 152.124 151.956 152.631 151.598 153.27C151.24 153.901 151.056 154.604 151.048 155.379V158.588C151.048 159.56 151.227 160.399 151.585 161.107C151.951 161.814 152.467 162.359 153.132 162.743C153.797 163.126 154.585 163.318 155.497 163.318C156.102 163.318 156.656 163.233 157.159 163.062C157.662 162.892 158.092 162.636 158.45 162.295C158.808 161.955 159.081 161.537 159.268 161.043L164.305 161.375C164.049 162.585 163.525 163.642 162.733 164.545C161.949 165.44 160.934 166.139 159.69 166.642C158.454 167.136 157.027 167.384 155.407 167.384ZM184.312 152.963L179.326 153.27C179.241 152.844 179.058 152.46 178.777 152.119C178.495 151.77 178.125 151.493 177.664 151.288C177.213 151.075 176.672 150.969 176.041 150.969C175.197 150.969 174.485 151.148 173.906 151.506C173.326 151.855 173.037 152.324 173.037 152.912C173.037 153.381 173.224 153.777 173.599 154.101C173.974 154.425 174.618 154.685 175.529 154.881L179.083 155.597C180.993 155.989 182.416 156.619 183.353 157.489C184.291 158.358 184.76 159.5 184.76 160.915C184.76 162.202 184.38 163.331 183.622 164.303C182.872 165.274 181.841 166.033 180.528 166.578C179.224 167.115 177.72 167.384 176.015 167.384C173.416 167.384 171.345 166.842 169.802 165.76C168.268 164.669 167.369 163.186 167.105 161.311L172.461 161.03C172.623 161.822 173.015 162.428 173.637 162.845C174.26 163.254 175.056 163.459 176.028 163.459C176.983 163.459 177.75 163.276 178.329 162.909C178.917 162.534 179.216 162.053 179.224 161.464C179.216 160.97 179.007 160.565 178.598 160.25C178.189 159.926 177.558 159.679 176.706 159.509L173.305 158.831C171.387 158.447 169.96 157.783 169.022 156.837C168.093 155.891 167.629 154.685 167.629 153.219C167.629 151.957 167.97 150.871 168.652 149.959C169.342 149.047 170.309 148.344 171.554 147.849C172.806 147.355 174.272 147.108 175.951 147.108C178.431 147.108 180.383 147.632 181.806 148.68C183.238 149.729 184.074 151.156 184.312 152.963ZM188.189 167V147.364H193.635V167H188.189ZM190.925 144.832C190.115 144.832 189.42 144.564 188.841 144.027C188.27 143.482 187.984 142.83 187.984 142.071C187.984 141.321 188.27 140.678 188.841 140.141C189.42 139.595 190.115 139.322 190.925 139.322C191.734 139.322 192.425 139.595 192.996 140.141C193.575 140.678 193.865 141.321 193.865 142.071C193.865 142.83 193.575 143.482 192.996 144.027C192.425 144.564 191.734 144.832 190.925 144.832ZM206.844 174.773C205.08 174.773 203.567 174.53 202.306 174.044C201.053 173.567 200.056 172.915 199.314 172.088C198.573 171.261 198.091 170.332 197.87 169.301L202.907 168.624C203.06 169.016 203.303 169.382 203.635 169.723C203.968 170.064 204.407 170.337 204.952 170.541C205.506 170.754 206.179 170.861 206.972 170.861C208.157 170.861 209.132 170.571 209.9 169.991C210.675 169.42 211.063 168.462 211.063 167.115V163.523H210.833C210.594 164.068 210.236 164.584 209.759 165.07C209.282 165.555 208.668 165.952 207.918 166.259C207.168 166.565 206.273 166.719 205.233 166.719C203.759 166.719 202.417 166.378 201.206 165.696C200.005 165.006 199.046 163.953 198.33 162.538C197.623 161.115 197.269 159.317 197.269 157.143C197.269 154.919 197.631 153.061 198.355 151.57C199.08 150.078 200.043 148.962 201.245 148.22C202.455 147.479 203.78 147.108 205.221 147.108C206.32 147.108 207.24 147.295 207.982 147.67C208.723 148.037 209.32 148.497 209.772 149.051C210.232 149.597 210.586 150.134 210.833 150.662H211.037V147.364H216.445V167.192C216.445 168.862 216.036 170.26 215.218 171.385C214.4 172.51 213.266 173.354 211.817 173.916C210.377 174.487 208.719 174.773 206.844 174.773ZM206.959 162.628C207.837 162.628 208.578 162.411 209.184 161.976C209.797 161.533 210.266 160.902 210.59 160.084C210.922 159.257 211.088 158.268 211.088 157.118C211.088 155.967 210.926 154.97 210.603 154.126C210.279 153.274 209.81 152.614 209.196 152.145C208.583 151.676 207.837 151.442 206.959 151.442C206.064 151.442 205.31 151.685 204.696 152.17C204.083 152.648 203.618 153.312 203.303 154.165C202.988 155.017 202.83 156.001 202.83 157.118C202.83 158.251 202.988 159.232 203.303 160.058C203.627 160.876 204.091 161.511 204.696 161.963C205.31 162.406 206.064 162.628 206.959 162.628ZM226.225 155.648V167H220.779V147.364H225.969V150.828H226.199C226.634 149.686 227.363 148.783 228.385 148.118C229.408 147.445 230.648 147.108 232.105 147.108C233.469 147.108 234.658 147.406 235.672 148.003C236.686 148.599 237.475 149.452 238.037 150.56C238.6 151.659 238.881 152.972 238.881 154.497V167H233.435V155.469C233.444 154.267 233.137 153.33 232.515 152.656C231.892 151.974 231.036 151.634 229.945 151.634C229.212 151.634 228.564 151.791 228.002 152.107C227.448 152.422 227.013 152.882 226.698 153.487C226.391 154.084 226.233 154.804 226.225 155.648Z" fill="#141414"/>
<path d="M209.525 413.984H203.925C203.823 413.26 203.614 412.616 203.299 412.054C202.984 411.483 202.579 410.997 202.085 410.597C201.59 410.196 201.019 409.889 200.371 409.676C199.732 409.463 199.038 409.357 198.288 409.357C196.933 409.357 195.752 409.693 194.746 410.366C193.741 411.031 192.961 412.003 192.407 413.281C191.853 414.551 191.576 416.094 191.576 417.909C191.576 419.776 191.853 421.344 192.407 422.614C192.969 423.884 193.754 424.842 194.759 425.49C195.765 426.138 196.928 426.462 198.249 426.462C198.991 426.462 199.677 426.364 200.308 426.168C200.947 425.972 201.513 425.686 202.008 425.311C202.502 424.928 202.911 424.463 203.235 423.918C203.567 423.372 203.798 422.75 203.925 422.051L209.525 422.077C209.38 423.278 209.018 424.438 208.438 425.554C207.867 426.662 207.096 427.655 206.124 428.533C205.161 429.402 204.011 430.092 202.673 430.604C201.343 431.107 199.839 431.358 198.16 431.358C195.825 431.358 193.737 430.83 191.896 429.773C190.063 428.716 188.614 427.186 187.549 425.183C186.492 423.18 185.964 420.756 185.964 417.909C185.964 415.054 186.501 412.625 187.575 410.622C188.648 408.619 190.106 407.094 191.947 406.045C193.788 404.989 195.859 404.46 198.16 404.46C199.677 404.46 201.083 404.673 202.379 405.099C203.683 405.526 204.837 406.148 205.843 406.966C206.849 407.776 207.667 408.768 208.298 409.945C208.937 411.121 209.346 412.467 209.525 413.984ZM222.264 431.384C220.278 431.384 218.561 430.962 217.112 430.118C215.672 429.266 214.56 428.081 213.776 426.564C212.991 425.038 212.599 423.27 212.599 421.259C212.599 419.23 212.991 417.457 213.776 415.94C214.56 414.415 215.672 413.23 217.112 412.386C218.561 411.534 220.278 411.108 222.264 411.108C224.25 411.108 225.963 411.534 227.403 412.386C228.852 413.23 229.969 414.415 230.753 415.94C231.537 417.457 231.929 419.23 231.929 421.259C231.929 423.27 231.537 425.038 230.753 426.564C229.969 428.081 228.852 429.266 227.403 430.118C225.963 430.962 224.25 431.384 222.264 431.384ZM222.29 427.165C223.193 427.165 223.947 426.909 224.553 426.398C225.158 425.878 225.614 425.17 225.92 424.276C226.236 423.381 226.393 422.362 226.393 421.22C226.393 420.078 226.236 419.06 225.92 418.165C225.614 417.27 225.158 416.562 224.553 416.043C223.947 415.523 223.193 415.263 222.29 415.263C221.378 415.263 220.611 415.523 219.989 416.043C219.375 416.562 218.911 417.27 218.595 418.165C218.288 419.06 218.135 420.078 218.135 421.22C218.135 422.362 218.288 423.381 218.595 424.276C218.911 425.17 219.375 425.878 219.989 426.398C220.611 426.909 221.378 427.165 222.29 427.165ZM235.47 431V411.364H240.661V414.828H240.891C241.3 413.678 241.982 412.77 242.936 412.105C243.891 411.44 245.033 411.108 246.362 411.108C247.709 411.108 248.855 411.445 249.801 412.118C250.747 412.783 251.378 413.686 251.693 414.828H251.898C252.298 413.703 253.023 412.804 254.071 412.131C255.128 411.449 256.376 411.108 257.817 411.108C259.649 411.108 261.136 411.692 262.278 412.859C263.429 414.018 264.004 415.663 264.004 417.794V431H258.571V418.868C258.571 417.777 258.281 416.959 257.702 416.413C257.122 415.868 256.398 415.595 255.528 415.595C254.54 415.595 253.768 415.911 253.214 416.541C252.661 417.163 252.384 417.986 252.384 419.009V431H247.104V418.753C247.104 417.79 246.827 417.023 246.273 416.452C245.727 415.881 245.007 415.595 244.112 415.595C243.507 415.595 242.962 415.749 242.476 416.055C241.999 416.354 241.619 416.776 241.338 417.321C241.057 417.858 240.916 418.489 240.916 419.213V431H235.47ZM268.306 431V411.364H273.496V414.828H273.727C274.136 413.678 274.817 412.77 275.772 412.105C276.727 411.44 277.869 411.108 279.198 411.108C280.545 411.108 281.691 411.445 282.637 412.118C283.583 412.783 284.214 413.686 284.529 414.828H284.734C285.134 413.703 285.859 412.804 286.907 412.131C287.964 411.449 289.212 411.108 290.653 411.108C292.485 411.108 293.972 411.692 295.114 412.859C296.265 414.018 296.84 415.663 296.84 417.794V431H291.407V418.868C291.407 417.777 291.117 416.959 290.538 416.413C289.958 415.868 289.234 415.595 288.364 415.595C287.376 415.595 286.604 415.911 286.05 416.541C285.496 417.163 285.219 417.986 285.219 419.009V431H279.94V418.753C279.94 417.79 279.663 417.023 279.109 416.452C278.563 415.881 277.843 415.595 276.948 415.595C276.343 415.595 275.798 415.749 275.312 416.055C274.835 416.354 274.455 416.776 274.174 417.321C273.893 417.858 273.752 418.489 273.752 419.213V431H268.306ZM313.734 422.639V411.364H319.18V431H313.952V427.433H313.747C313.304 428.584 312.567 429.509 311.536 430.207C310.513 430.906 309.264 431.256 307.79 431.256C306.477 431.256 305.322 430.957 304.325 430.361C303.328 429.764 302.548 428.916 301.986 427.817C301.432 426.717 301.151 425.401 301.142 423.866V411.364H306.588V422.895C306.597 424.054 306.908 424.97 307.521 425.643C308.135 426.317 308.957 426.653 309.989 426.653C310.645 426.653 311.259 426.504 311.83 426.206C312.401 425.899 312.861 425.447 313.21 424.851C313.568 424.254 313.743 423.517 313.734 422.639ZM328.983 419.648V431H323.537V411.364H328.727V414.828H328.957C329.392 413.686 330.12 412.783 331.143 412.118C332.166 411.445 333.406 411.108 334.863 411.108C336.227 411.108 337.416 411.406 338.43 412.003C339.444 412.599 340.233 413.452 340.795 414.56C341.358 415.659 341.639 416.972 341.639 418.497V431H336.193V419.469C336.201 418.267 335.895 417.33 335.272 416.656C334.65 415.974 333.794 415.634 332.703 415.634C331.97 415.634 331.322 415.791 330.76 416.107C330.206 416.422 329.771 416.882 329.456 417.487C329.149 418.084 328.991 418.804 328.983 419.648ZM345.931 431V411.364H351.377V431H345.931ZM348.667 408.832C347.857 408.832 347.163 408.564 346.583 408.027C346.012 407.482 345.727 406.83 345.727 406.071C345.727 405.321 346.012 404.678 346.583 404.141C347.163 403.595 347.857 403.322 348.667 403.322C349.477 403.322 350.167 403.595 350.738 404.141C351.317 404.678 351.607 405.321 351.607 406.071C351.607 406.83 351.317 407.482 350.738 408.027C350.167 408.564 349.477 408.832 348.667 408.832ZM364.612 431.384C362.6 431.384 360.87 430.957 359.422 430.105C357.981 429.244 356.873 428.051 356.098 426.526C355.331 425 354.947 423.244 354.947 421.259C354.947 419.247 355.335 417.483 356.11 415.966C356.895 414.44 358.007 413.251 359.447 412.399C360.887 411.538 362.6 411.108 364.586 411.108C366.299 411.108 367.799 411.419 369.086 412.041C370.373 412.663 371.392 413.537 372.142 414.662C372.892 415.787 373.305 417.108 373.382 418.625H368.243C368.098 417.645 367.714 416.857 367.092 416.26C366.478 415.655 365.673 415.352 364.676 415.352C363.832 415.352 363.095 415.582 362.464 416.043C361.842 416.494 361.356 417.155 361.007 418.024C360.657 418.893 360.483 419.946 360.483 421.182C360.483 422.435 360.653 423.5 360.994 424.378C361.343 425.256 361.833 425.925 362.464 426.385C363.095 426.845 363.832 427.075 364.676 427.075C365.298 427.075 365.856 426.947 366.35 426.692C366.853 426.436 367.267 426.065 367.591 425.58C367.923 425.085 368.14 424.493 368.243 423.803H373.382C373.297 425.303 372.887 426.624 372.154 427.766C371.43 428.899 370.429 429.786 369.15 430.425C367.872 431.064 366.359 431.384 364.612 431.384ZM382.468 431.371C381.215 431.371 380.099 431.153 379.119 430.719C378.138 430.276 377.363 429.624 376.792 428.763C376.229 427.893 375.948 426.811 375.948 425.516C375.948 424.425 376.148 423.509 376.549 422.767C376.95 422.026 377.495 421.429 378.185 420.977C378.876 420.526 379.66 420.185 380.538 419.955C381.424 419.724 382.353 419.562 383.325 419.469C384.467 419.349 385.387 419.239 386.086 419.136C386.785 419.026 387.292 418.864 387.607 418.651C387.923 418.437 388.08 418.122 388.08 417.705V417.628C388.08 416.818 387.825 416.192 387.313 415.749C386.81 415.305 386.094 415.084 385.165 415.084C384.185 415.084 383.406 415.301 382.826 415.736C382.246 416.162 381.863 416.699 381.675 417.347L376.638 416.938C376.894 415.744 377.397 414.713 378.147 413.844C378.897 412.966 379.864 412.293 381.049 411.824C382.242 411.347 383.623 411.108 385.191 411.108C386.282 411.108 387.326 411.236 388.323 411.491C389.329 411.747 390.219 412.143 390.995 412.68C391.779 413.217 392.397 413.908 392.849 414.751C393.3 415.587 393.526 416.588 393.526 417.756V431H388.362V428.277H388.208C387.893 428.891 387.471 429.432 386.942 429.901C386.414 430.361 385.779 430.723 385.038 430.987C384.296 431.243 383.44 431.371 382.468 431.371ZM384.028 427.612C384.829 427.612 385.536 427.455 386.15 427.139C386.763 426.815 387.245 426.381 387.594 425.835C387.944 425.29 388.119 424.672 388.119 423.982V421.898C387.948 422.009 387.714 422.111 387.415 422.205C387.126 422.29 386.798 422.371 386.431 422.447C386.065 422.516 385.698 422.58 385.332 422.639C384.965 422.69 384.633 422.737 384.335 422.78C383.695 422.874 383.137 423.023 382.66 423.227C382.183 423.432 381.812 423.709 381.548 424.058C381.283 424.399 381.151 424.825 381.151 425.337C381.151 426.078 381.42 426.645 381.957 427.037C382.502 427.42 383.192 427.612 384.028 427.612ZM408.196 411.364V415.455H396.371V411.364H408.196ZM399.055 406.659H404.501V424.966C404.501 425.469 404.578 425.861 404.732 426.142C404.885 426.415 405.098 426.607 405.371 426.717C405.652 426.828 405.976 426.884 406.342 426.884C406.598 426.884 406.854 426.862 407.109 426.82C407.365 426.768 407.561 426.73 407.697 426.705L408.554 430.757C408.281 430.842 407.898 430.94 407.403 431.051C406.909 431.17 406.308 431.243 405.601 431.268C404.288 431.32 403.138 431.145 402.149 430.744C401.169 430.344 400.406 429.722 399.861 428.878C399.315 428.034 399.047 426.969 399.055 425.682V406.659ZM411.744 431V411.364H417.19V431H411.744ZM414.479 408.832C413.67 408.832 412.975 408.564 412.396 408.027C411.825 407.482 411.539 406.83 411.539 406.071C411.539 405.321 411.825 404.678 412.396 404.141C412.975 403.595 413.67 403.322 414.479 403.322C415.289 403.322 415.979 403.595 416.55 404.141C417.13 404.678 417.42 405.321 417.42 406.071C417.42 406.83 417.13 407.482 416.55 408.027C415.979 408.564 415.289 408.832 414.479 408.832ZM430.424 431.384C428.439 431.384 426.721 430.962 425.272 430.118C423.832 429.266 422.72 428.081 421.936 426.564C421.152 425.038 420.76 423.27 420.76 421.259C420.76 419.23 421.152 417.457 421.936 415.94C422.72 414.415 423.832 413.23 425.272 412.386C426.721 411.534 428.439 411.108 430.424 411.108C432.41 411.108 434.123 411.534 435.564 412.386C437.012 413.23 438.129 414.415 438.913 415.94C439.697 417.457 440.089 419.23 440.089 421.259C440.089 423.27 439.697 425.038 438.913 426.564C438.129 428.081 437.012 429.266 435.564 430.118C434.123 430.962 432.41 431.384 430.424 431.384ZM430.45 427.165C431.353 427.165 432.108 426.909 432.713 426.398C433.318 425.878 433.774 425.17 434.081 424.276C434.396 423.381 434.554 422.362 434.554 421.22C434.554 420.078 434.396 419.06 434.081 418.165C433.774 417.27 433.318 416.562 432.713 416.043C432.108 415.523 431.353 415.263 430.45 415.263C429.538 415.263 428.771 415.523 428.149 416.043C427.535 416.562 427.071 417.27 426.755 418.165C426.449 419.06 426.295 420.078 426.295 421.22C426.295 422.362 426.449 423.381 426.755 424.276C427.071 425.17 427.535 425.878 428.149 426.398C428.771 426.909 429.538 427.165 430.45 427.165ZM449.076 419.648V431H443.63V411.364H448.821V414.828H449.051C449.485 413.686 450.214 412.783 451.237 412.118C452.26 411.445 453.5 411.108 454.957 411.108C456.321 411.108 457.51 411.406 458.524 412.003C459.538 412.599 460.326 413.452 460.889 414.56C461.451 415.659 461.733 416.972 461.733 418.497V431H456.287V419.469C456.295 418.267 455.988 417.33 455.366 416.656C454.744 415.974 453.887 415.634 452.797 415.634C452.064 415.634 451.416 415.791 450.853 416.107C450.299 416.422 449.865 416.882 449.549 417.487C449.243 418.084 449.085 418.804 449.076 419.648ZM274.104 475H264.822V448.818H274.18C276.814 448.818 279.081 449.342 280.982 450.391C282.882 451.43 284.344 452.926 285.366 454.878C286.398 456.83 286.913 459.165 286.913 461.884C286.913 464.611 286.398 466.955 285.366 468.915C284.344 470.875 282.874 472.379 280.956 473.428C279.047 474.476 276.763 475 274.104 475ZM270.358 470.257H273.874C275.51 470.257 276.886 469.967 278.003 469.388C279.128 468.8 279.972 467.892 280.534 466.665C281.105 465.429 281.391 463.835 281.391 461.884C281.391 459.949 281.105 458.368 280.534 457.141C279.972 455.913 279.132 455.01 278.016 454.43C276.899 453.851 275.523 453.561 273.886 453.561H270.358V470.257ZM299.86 475.384C297.841 475.384 296.102 474.974 294.645 474.156C293.196 473.33 292.079 472.162 291.295 470.653C290.511 469.136 290.119 467.342 290.119 465.271C290.119 463.251 290.511 461.479 291.295 459.953C292.079 458.428 293.183 457.239 294.606 456.386C296.038 455.534 297.717 455.108 299.643 455.108C300.939 455.108 302.145 455.317 303.261 455.734C304.386 456.143 305.366 456.761 306.201 457.588C307.045 458.415 307.701 459.455 308.17 460.707C308.639 461.952 308.873 463.409 308.873 465.08V466.575H292.292V463.2H303.747C303.747 462.416 303.576 461.722 303.235 461.116C302.895 460.511 302.422 460.038 301.816 459.697C301.22 459.348 300.525 459.173 299.733 459.173C298.906 459.173 298.173 459.365 297.534 459.749C296.903 460.124 296.409 460.631 296.051 461.27C295.693 461.901 295.51 462.604 295.501 463.379V466.588C295.501 467.56 295.68 468.399 296.038 469.107C296.404 469.814 296.92 470.359 297.585 470.743C298.25 471.126 299.038 471.318 299.95 471.318C300.555 471.318 301.109 471.233 301.612 471.062C302.115 470.892 302.545 470.636 302.903 470.295C303.261 469.955 303.534 469.537 303.721 469.043L308.758 469.375C308.502 470.585 307.978 471.642 307.186 472.545C306.402 473.44 305.387 474.139 304.143 474.642C302.907 475.136 301.48 475.384 299.86 475.384ZM328.765 460.963L323.779 461.27C323.694 460.844 323.511 460.46 323.23 460.119C322.949 459.77 322.578 459.493 322.118 459.288C321.666 459.075 321.125 458.969 320.494 458.969C319.65 458.969 318.939 459.148 318.359 459.506C317.779 459.855 317.49 460.324 317.49 460.912C317.49 461.381 317.677 461.777 318.052 462.101C318.427 462.425 319.071 462.685 319.983 462.881L323.537 463.597C325.446 463.989 326.869 464.619 327.806 465.489C328.744 466.358 329.213 467.5 329.213 468.915C329.213 470.202 328.833 471.331 328.075 472.303C327.325 473.274 326.294 474.033 324.981 474.578C323.677 475.115 322.173 475.384 320.468 475.384C317.869 475.384 315.798 474.842 314.255 473.76C312.721 472.669 311.822 471.186 311.558 469.311L316.914 469.03C317.076 469.822 317.468 470.428 318.091 470.845C318.713 471.254 319.51 471.459 320.481 471.459C321.436 471.459 322.203 471.276 322.782 470.909C323.37 470.534 323.669 470.053 323.677 469.464C323.669 468.97 323.46 468.565 323.051 468.25C322.642 467.926 322.011 467.679 321.159 467.509L317.758 466.831C315.841 466.447 314.413 465.783 313.475 464.837C312.547 463.891 312.082 462.685 312.082 461.219C312.082 459.957 312.423 458.871 313.105 457.959C313.795 457.047 314.762 456.344 316.007 455.849C317.26 455.355 318.725 455.108 320.404 455.108C322.885 455.108 324.836 455.632 326.26 456.68C327.691 457.729 328.527 459.156 328.765 460.963ZM332.642 475V455.364H338.088V475H332.642ZM335.378 452.832C334.568 452.832 333.874 452.564 333.294 452.027C332.723 451.482 332.438 450.83 332.438 450.071C332.438 449.321 332.723 448.678 333.294 448.141C333.874 447.595 334.568 447.322 335.378 447.322C336.188 447.322 336.878 447.595 337.449 448.141C338.028 448.678 338.318 449.321 338.318 450.071C338.318 450.83 338.028 451.482 337.449 452.027C336.878 452.564 336.188 452.832 335.378 452.832ZM351.297 482.773C349.533 482.773 348.02 482.53 346.759 482.044C345.506 481.567 344.509 480.915 343.767 480.088C343.026 479.261 342.544 478.332 342.323 477.301L347.36 476.624C347.513 477.016 347.756 477.382 348.088 477.723C348.421 478.064 348.86 478.337 349.405 478.541C349.959 478.754 350.632 478.861 351.425 478.861C352.61 478.861 353.586 478.571 354.353 477.991C355.128 477.42 355.516 476.462 355.516 475.115V471.523H355.286C355.047 472.068 354.689 472.584 354.212 473.07C353.735 473.555 353.121 473.952 352.371 474.259C351.621 474.565 350.726 474.719 349.686 474.719C348.212 474.719 346.87 474.378 345.659 473.696C344.458 473.006 343.499 471.953 342.783 470.538C342.076 469.115 341.722 467.317 341.722 465.143C341.722 462.919 342.084 461.061 342.809 459.57C343.533 458.078 344.496 456.962 345.698 456.22C346.908 455.479 348.233 455.108 349.674 455.108C350.773 455.108 351.694 455.295 352.435 455.67C353.176 456.037 353.773 456.497 354.225 457.051C354.685 457.597 355.039 458.134 355.286 458.662H355.49V455.364H360.898V475.192C360.898 476.862 360.489 478.26 359.671 479.385C358.853 480.51 357.719 481.354 356.27 481.916C354.83 482.487 353.172 482.773 351.297 482.773ZM351.412 470.628C352.29 470.628 353.032 470.411 353.637 469.976C354.25 469.533 354.719 468.902 355.043 468.084C355.375 467.257 355.542 466.268 355.542 465.118C355.542 463.967 355.38 462.97 355.056 462.126C354.732 461.274 354.263 460.614 353.65 460.145C353.036 459.676 352.29 459.442 351.412 459.442C350.517 459.442 349.763 459.685 349.15 460.17C348.536 460.648 348.071 461.312 347.756 462.165C347.441 463.017 347.283 464.001 347.283 465.118C347.283 466.251 347.441 467.232 347.756 468.058C348.08 468.876 348.544 469.511 349.15 469.963C349.763 470.406 350.517 470.628 351.412 470.628ZM370.678 463.648V475H365.232V455.364H370.422V458.828H370.652C371.087 457.686 371.816 456.783 372.838 456.118C373.861 455.445 375.101 455.108 376.559 455.108C377.922 455.108 379.111 455.406 380.125 456.003C381.14 456.599 381.928 457.452 382.49 458.56C383.053 459.659 383.334 460.972 383.334 462.497V475H377.888V463.469C377.897 462.267 377.59 461.33 376.968 460.656C376.346 459.974 375.489 459.634 374.398 459.634C373.665 459.634 373.017 459.791 372.455 460.107C371.901 460.422 371.466 460.882 371.151 461.487C370.844 462.084 370.686 462.804 370.678 463.648Z" fill="#141414"/>
</svg>
