<svg width="44" height="52" viewBox="0 0 44 52" fill="none" xmlns="http://www.w3.org/2000/svg">
  <g clip-path="url(#clip0_205_2)">
  <path d="M39.8602 20.22L36.1502 21.3C35.6464 21.4096 35.1349 21.4798 34.6202 21.51C33.9307 21.7199 33.2614 21.991 32.6202 22.32C31.6202 22.8 31.4502 22.59 31.2502 22.5C31.0502 22.41 30.8602 21.71 30.8602 21.71C30.7841 21.5216 30.7856 21.3108 30.8642 21.1235C30.9429 20.9362 31.0924 20.7876 31.2802 20.71C31.9902 20.32 33.4602 19.39 34.5602 18.82C35.6602 18.25 37.0002 17.2 37.8302 16.67C38.6602 16.14 40.1402 15.21 40.7802 14.75C41.2976 14.3572 41.8386 13.9965 42.4002 13.67C42.8426 13.446 43.1818 13.0604 43.3475 12.5931C43.5132 12.1258 43.4926 11.6126 43.2902 11.16C42.5802 9.84999 40.9402 10.76 40.5202 11.26C39.6807 11.9346 38.7519 12.4899 37.7602 12.91C37.1246 13.2473 36.5132 13.6282 35.9302 14.05C35.3786 14.3826 34.7958 14.6606 34.1902 14.88C33.6284 15.0351 33.0974 15.2854 32.6202 15.62L30.7502 17.11L29.7002 17.94C29.7002 17.94 29.4302 17.02 29.7002 16.76C30.2415 16.1544 30.8485 15.6111 31.5102 15.14C31.9202 14.97 32.5102 14.24 33.1902 13.87C33.8495 13.3919 34.4473 12.8344 34.9702 12.21C35.1602 12.02 36.8702 10.57 37.3602 10.21C38.1441 9.46179 38.9687 8.75737 39.8302 8.09999C40.2384 7.87299 40.6178 7.5977 40.9602 7.28001C41.1385 7.16842 41.2917 7.02103 41.4101 6.84718C41.5285 6.67333 41.6096 6.47679 41.6481 6.27C41.6866 6.06321 41.6818 5.85066 41.634 5.64583C41.5862 5.44099 41.4963 5.24833 41.3702 5.08C40.5402 3.95 39.2602 4.44 38.5002 5.08C37.8154 5.68321 37.0867 6.23472 36.3202 6.72999C36.0002 6.91999 34.3802 8.28999 33.9202 8.50999C33.4602 8.72999 32.4702 9.50999 32.1502 9.69999C31.8377 9.82702 31.555 10.0177 31.3202 10.26C30.9902 10.61 30.2102 11.36 29.9202 11.7C29.6302 12.04 28.3302 13.36 28.0302 13.6C27.7302 13.84 27.2002 14.39 27.2002 14.39C27.0483 14.0768 26.9735 13.7319 26.9822 13.3839C26.9909 13.036 27.0828 12.6952 27.2502 12.39C27.8202 11.25 29.8302 9.38999 30.3802 8.19999C30.9435 7.23397 31.6144 6.33491 32.3802 5.52C32.3802 5.52 34.4702 2.99001 34.8302 2.59001C34.9803 2.46157 35.1035 2.30472 35.1928 2.12852C35.2821 1.95232 35.3358 1.76023 35.3506 1.56324C35.3655 1.36626 35.3413 1.16827 35.2795 0.980664C35.2176 0.793054 35.1193 0.619497 34.9902 0.469983C34.2402 -0.470017 32.9902 0.340009 32.9902 0.340009C32.9902 0.340009 31.7402 1.42 31.2202 1.96C30.7002 2.5 30.0002 3.07 29.2202 3.96C28.6663 4.65768 28.0468 5.30061 27.3702 5.87999C26.9809 6.27091 26.6446 6.71135 26.3702 7.18998C26.2002 7.42998 25.3702 8.69 25.3002 8.77C25.2302 8.85 23.8002 10.96 23.6602 11.11L21.7602 13.01C21.4507 13.3663 21.1165 13.7005 20.7602 14.01C19.9748 14.5261 19.1283 14.9426 18.2402 15.25C17.9302 15.17 17.7902 14.7 17.7702 14.59C17.7468 14.5015 17.7096 14.4171 17.6602 14.34C17.6933 13.581 17.7835 12.8255 17.9302 12.08C18.1202 11.5 18.3202 10.44 18.3202 10.44C18.4306 9.62468 18.4507 8.79971 18.3802 7.97999C18.3876 6.95144 18.1904 5.93167 17.8002 4.97999C17.6529 4.69253 17.425 4.45428 17.1444 4.29442C16.8637 4.13456 16.5425 4.06004 16.2202 4.08C15.7802 4.08 15.5902 4.28001 15.5202 4.75001C15.4498 5.29107 15.4498 5.83893 15.5202 6.37999C15.5929 6.70936 15.5929 7.05062 15.5202 7.37999C15.5202 7.49999 14.7602 9.33 14.7702 9.46C14.7802 9.59 14.5602 10.34 14.5702 10.74C14.3393 11.888 14.0251 13.0176 13.6302 14.12C13.1782 14.9381 12.8832 15.8335 12.7602 16.76C12.6302 18.11 12.1302 22.76 11.9702 22.81C11.8102 22.86 10.4902 25.27 9.97017 25.48C9.45017 25.69 12.1702 27.13 14.8302 33.43C15.4179 33.474 16.0023 33.5542 16.5802 33.67C17.7723 33.5839 18.9502 33.3591 20.0902 33C21.182 32.7665 22.2266 32.3506 23.1802 31.77C23.9802 31.07 27.0802 29.5 28.2302 28.6C29.1942 27.9681 30.095 27.2448 30.9202 26.44C31.1002 26.04 33.9202 25.22 33.9202 25.22C33.9202 25.22 36.6202 24.43 36.9202 24.22C37.2202 24.01 39.6902 23.34 39.6902 23.34C40.7396 23.0355 41.7473 22.6022 42.6902 22.05C42.9083 21.8359 43.0559 21.5603 43.1131 21.2601C43.1702 20.9598 43.1344 20.6493 43.0102 20.37C42.9337 20.1705 42.7954 20.0007 42.6154 19.8855C42.4355 19.7704 42.2234 19.7158 42.0102 19.73C41.6347 19.7671 41.2633 19.8374 40.9002 19.94C40.4502 20.04 39.8602 20.22 39.8602 20.22Z" fill="rgb(230,230,230)"/>
  <path d="M23.65 48.5302L20.9099 45.8602C20.5669 45.4763 20.2559 45.0649 19.9799 44.6302C19.4696 44.1316 18.9101 43.686 18.31 43.3002C17.4 42.6302 17.5099 42.4002 17.4799 42.1802C17.4499 41.9602 17.99 41.4602 17.99 41.4602C18.0523 41.3805 18.13 41.314 18.2184 41.2647C18.3067 41.2153 18.4041 41.1842 18.5047 41.173C18.6053 41.1618 18.7071 41.1709 18.8042 41.1996C18.9013 41.2283 18.9916 41.2761 19.0699 41.3402C19.7599 41.7702 21.28 42.6002 22.31 43.2902C23.34 43.9802 24.91 44.6302 25.78 45.0902C26.65 45.5502 28.18 46.4002 28.9 46.7402C29.4926 47.0018 30.0672 47.3024 30.62 47.6402C31.0327 47.9158 31.5354 48.0228 32.0246 47.9391C32.5138 47.8554 32.9524 47.5874 33.25 47.1902C34.05 45.9402 32.46 44.9502 31.81 44.8202C30.8162 44.4087 29.8814 43.8673 29.03 43.2102C28.4242 42.824 27.7965 42.4734 27.15 42.1602C26.5924 41.8412 26.0666 41.4695 25.58 41.0502C25.1668 40.6432 24.6907 40.3055 24.17 40.0502C23.88 39.9202 21.96 39.1402 21.96 39.1402L20.7199 38.6302C20.7199 38.6302 21.3999 37.9402 21.7199 38.0202C22.5139 38.2009 23.2853 38.4692 24.02 38.8202C24.36 39.0902 25.3 39.2702 25.95 39.6702C26.686 40.0123 27.4621 40.2609 28.2599 40.4102C28.5199 40.4802 30.62 41.2902 31.17 41.5302C32.1896 41.8564 33.191 42.2369 34.17 42.6702C34.5697 42.9115 34.9958 43.1061 35.4399 43.2502C35.6233 43.3546 35.8266 43.4192 36.0366 43.4397C36.2466 43.4602 36.4586 43.4361 36.6587 43.3691C36.8588 43.3021 37.0425 43.1936 37.1978 43.0508C37.3531 42.908 37.4765 42.734 37.56 42.5402C38.14 41.2702 37.1 40.3802 36.15 40.0502C35.2879 39.7404 34.4491 39.3694 33.64 38.9402C33.33 38.7602 31.34 38.0002 30.93 37.7202C30.52 37.4402 29.33 36.9302 29.03 36.7202C28.7657 36.5133 28.4633 36.3604 28.14 36.2702C27.67 36.1402 26.6299 35.8302 26.1899 35.7402C25.7499 35.6502 23.97 35.1602 23.62 35.0202C23.2599 34.8866 22.8926 34.7731 22.52 34.6802C22.7191 34.3888 22.9861 34.15 23.2979 33.9845C23.6096 33.8191 23.957 33.7318 24.31 33.7302C25.59 33.6802 28.22 34.5102 29.5 34.4402C30.6121 34.4484 31.7196 34.586 32.8 34.8502C32.8 34.8502 36.03 35.4402 36.55 35.5702C36.9254 35.7065 37.3394 35.6895 37.7025 35.523C38.0655 35.3564 38.3484 35.0537 38.49 34.6802C38.95 33.5602 37.6299 32.8702 37.6299 32.8702C37.6299 32.8702 36.08 32.3102 35.36 32.1102C34.64 31.9102 33.79 31.5902 32.64 31.3602C31.7638 31.2101 30.9035 30.9791 30.0699 30.6702C29.536 30.5167 28.9852 30.4294 28.43 30.4102C28.14 30.4102 26.64 30.2902 26.53 30.2502C26.42 30.2102 23.89 30.0102 23.68 29.9502L21.0999 29.2102C20.6453 29.1134 20.1977 28.9865 19.7599 28.8302C18.9298 28.3854 18.1546 27.845 17.45 27.2202C17.37 26.9102 17.7099 26.5602 17.7899 26.4902C17.8566 26.4251 17.9138 26.3511 17.96 26.2702C18.6395 25.9284 19.3451 25.6408 20.0699 25.4102C20.6599 25.2902 21.6899 24.9502 21.6899 24.9502C22.4566 24.6521 23.1877 24.2697 23.87 23.8102C24.68 23.1902 25.7199 22.7402 26.2199 21.8102C26.4005 21.5448 26.4971 21.2312 26.4971 20.9102C26.4971 20.5892 26.4005 20.2756 26.2199 20.0102C26.0199 19.6102 25.74 19.5502 25.3 19.7202C24.7901 19.9184 24.3092 20.1841 23.87 20.5102C23.6286 20.7294 23.3466 20.8992 23.0399 21.0102C22.9099 21.0102 20.97 21.2902 20.86 21.3602C20.4451 21.4868 20.0377 21.6371 19.64 21.8102C18.5281 22.1635 17.3917 22.4343 16.24 22.6202C15.3026 22.635 14.3752 22.8144 13.5 23.1502C12.26 23.6902 7.95996 25.5202 7.82996 25.4102C7.69996 25.3002 4.95996 25.3002 4.51996 24.9402C4.07996 24.5802 4.14994 27.6602 -0.0600586 33.0502C0.186309 33.5868 0.400046 34.1378 0.579956 34.7002C1.2323 35.7008 2.00101 36.6206 2.86996 37.4402C3.60414 38.2819 4.47667 38.9922 5.44995 39.5402C6.44995 39.9002 9.32995 41.8502 10.67 42.4102C11.6899 42.9532 12.762 43.3921 13.87 43.7202C14.3 43.7202 16.37 45.7202 16.37 45.7202C16.37 45.7202 18.37 47.7202 18.65 47.8402C18.93 47.9602 20.77 49.8402 20.77 49.8402C21.542 50.609 22.4051 51.2807 23.34 51.8402C23.6334 51.9275 23.9463 51.9235 24.2374 51.8289C24.5285 51.7342 24.784 51.5533 24.9699 51.3102C25.1086 51.1437 25.1894 50.9366 25.2003 50.7202C25.2111 50.5038 25.1513 50.2897 25.03 50.1102C24.8206 49.7989 24.5829 49.5077 24.3199 49.2402L23.65 48.5302Z" fill="rgb(230,230,230)"/>
  <mask id="mask0_205_2" style="mask-type:alpha" maskUnits="userSpaceOnUse" x="9" y="0" width="35" height="34">
  <path d="M39.8602 20.22L36.1502 21.3C35.6464 21.4096 35.1349 21.4798 34.6202 21.51C33.9307 21.7199 33.2614 21.991 32.6202 22.32C31.6202 22.8 31.4502 22.59 31.2502 22.5C31.0502 22.41 30.8602 21.71 30.8602 21.71C30.7841 21.5216 30.7856 21.3108 30.8642 21.1235C30.9429 20.9362 31.0924 20.7876 31.2802 20.71C31.9902 20.32 33.4602 19.39 34.5602 18.82C35.6602 18.25 37.0002 17.2 37.8302 16.67C38.6602 16.14 40.1402 15.21 40.7802 14.75C41.2976 14.3572 41.8386 13.9965 42.4002 13.67C42.8426 13.446 43.1818 13.0604 43.3475 12.5931C43.5132 12.1258 43.4926 11.6126 43.2902 11.16C42.5802 9.84999 40.9402 10.76 40.5202 11.26C39.6807 11.9346 38.7519 12.4899 37.7602 12.91C37.1246 13.2473 36.5132 13.6282 35.9302 14.05C35.3786 14.3826 34.7958 14.6606 34.1902 14.88C33.6284 15.0351 33.0974 15.2854 32.6202 15.62L30.7502 17.11L29.7002 17.94C29.7002 17.94 29.4302 17.02 29.7002 16.76C30.2415 16.1544 30.8485 15.6111 31.5102 15.14C31.9202 14.97 32.5102 14.24 33.1902 13.87C33.8495 13.3919 34.4473 12.8344 34.9702 12.21C35.1602 12.02 36.8702 10.57 37.3602 10.21C38.1441 9.46179 38.9687 8.75737 39.8302 8.09999C40.2384 7.87299 40.6178 7.5977 40.9602 7.28001C41.1385 7.16842 41.2917 7.02103 41.4101 6.84718C41.5285 6.67333 41.6096 6.47679 41.6481 6.27C41.6866 6.06321 41.6818 5.85066 41.634 5.64583C41.5862 5.44099 41.4963 5.24833 41.3702 5.08C40.5402 3.95 39.2602 4.44 38.5002 5.08C37.8154 5.68321 37.0867 6.23472 36.3202 6.72999C36.0002 6.91999 34.3802 8.28999 33.9202 8.50999C33.4602 8.72999 32.4702 9.50999 32.1502 9.69999C31.8377 9.82702 31.555 10.0177 31.3202 10.26C30.9902 10.61 30.2102 11.36 29.9202 11.7C29.6302 12.04 28.3302 13.36 28.0302 13.6C27.7302 13.84 27.2002 14.39 27.2002 14.39C27.0483 14.0768 26.9735 13.7319 26.9822 13.3839C26.9909 13.036 27.0828 12.6952 27.2502 12.39C27.8202 11.25 29.8302 9.38999 30.3802 8.19999C30.9435 7.23397 31.6144 6.33491 32.3802 5.52C32.3802 5.52 34.4702 2.99001 34.8302 2.59001C34.9803 2.46157 35.1035 2.30472 35.1928 2.12852C35.2821 1.95232 35.3358 1.76023 35.3506 1.56324C35.3655 1.36626 35.3413 1.16827 35.2795 0.980664C35.2176 0.793054 35.1193 0.619497 34.9902 0.469983C34.2402 -0.470017 32.9902 0.340009 32.9902 0.340009C32.9902 0.340009 31.7402 1.42 31.2202 1.96C30.7002 2.5 30.0002 3.07 29.2202 3.96C28.6663 4.65768 28.0468 5.30061 27.3702 5.87999C26.9809 6.27091 26.6446 6.71135 26.3702 7.18998C26.2002 7.42998 25.3702 8.69 25.3002 8.77C25.2302 8.85 23.8002 10.96 23.6602 11.11L21.7602 13.01C21.4507 13.3663 21.1165 13.7005 20.7602 14.01C19.9748 14.5261 19.1283 14.9426 18.2402 15.25C17.9302 15.17 17.7902 14.7 17.7702 14.59C17.7468 14.5015 17.7096 14.4171 17.6602 14.34C17.6933 13.581 17.7835 12.8255 17.9302 12.08C18.1202 11.5 18.3202 10.44 18.3202 10.44C18.4306 9.62468 18.4507 8.79971 18.3802 7.97999C18.3876 6.95144 18.1904 5.93167 17.8002 4.97999C17.6529 4.69253 17.425 4.45428 17.1444 4.29442C16.8637 4.13456 16.5425 4.06004 16.2202 4.08C15.7802 4.08 15.5902 4.28001 15.5202 4.75001C15.4498 5.29107 15.4498 5.83893 15.5202 6.37999C15.5929 6.70936 15.5929 7.05062 15.5202 7.37999C15.5202 7.49999 14.7602 9.33 14.7702 9.46C14.7802 9.59 14.5602 10.34 14.5702 10.74C14.3393 11.888 14.0251 13.0176 13.6302 14.12C13.1782 14.9381 12.8832 15.8335 12.7602 16.76C12.6302 18.11 12.1302 22.76 11.9702 22.81C11.8102 22.86 10.4902 25.27 9.97017 25.48C9.45017 25.69 12.1702 27.13 14.8302 33.43C15.4179 33.474 16.0023 33.5542 16.5802 33.67C17.7723 33.5839 18.9502 33.3591 20.0902 33C21.182 32.7665 22.2266 32.3506 23.1802 31.77C23.9802 31.07 27.0802 29.5 28.2302 28.6C29.1942 27.9681 30.095 27.2448 30.9202 26.44C31.1002 26.04 33.9202 25.22 33.9202 25.22C33.9202 25.22 36.6202 24.43 36.9202 24.22C37.2202 24.01 39.6902 23.34 39.6902 23.34C40.7396 23.0355 41.7473 22.6022 42.6902 22.05C42.9083 21.8359 43.0559 21.5603 43.1131 21.2601C43.1702 20.9598 43.1344 20.6493 43.0102 20.37C42.9337 20.1705 42.7954 20.0007 42.6154 19.8855C42.4355 19.7704 42.2234 19.7158 42.0102 19.73C41.6347 19.7671 41.2633 19.8374 40.9002 19.94C40.4502 20.04 39.8602 20.22 39.8602 20.22Z" fill="rgb(230,230,230)"/>
  </mask>
  <g mask="url(#mask0_205_2)">
  <path d="M37.6299 32.8702L37.8848 32.1648L37.8847 32.1648L37.8844 32.1647L37.8835 32.1643L37.8799 32.1631L37.8664 32.1582L37.8151 32.1398C37.7707 32.1238 37.7067 32.1009 37.6276 32.0729C37.4696 32.0167 37.2512 31.9397 37.0099 31.8563C36.5343 31.692 35.9461 31.4946 35.5607 31.3875C35.3771 31.3365 35.1677 31.2715 34.9346 31.199C34.3551 31.0189 33.629 30.7931 32.787 30.6248L32.7769 30.6227L32.7666 30.621C31.9361 30.4787 31.1206 30.2597 30.3306 29.9669L30.3041 29.9571L30.2771 29.9494C29.6841 29.779 29.0725 29.682 28.4559 29.6606L28.443 29.6602H28.43C28.3224 29.6602 27.9089 29.6335 27.474 29.5977C27.2646 29.5805 27.0638 29.5622 26.9108 29.5462C26.8337 29.5381 26.7737 29.531 26.7327 29.5254C26.7235 29.5242 26.7164 29.5232 26.7111 29.5224C26.6495 29.5066 26.5985 29.4999 26.5933 29.4992L26.5929 29.4991C26.5569 29.4937 26.5151 29.4885 26.4721 29.4834C26.3849 29.4732 26.2706 29.4613 26.1416 29.4485C25.9226 29.4269 25.6481 29.4014 25.3661 29.3752C25.3148 29.3705 25.2633 29.3657 25.2119 29.3609C24.8751 29.3296 24.5396 29.2981 24.2757 29.2707C24.1434 29.257 24.0333 29.2448 23.9521 29.2346C23.8954 29.2274 23.8687 29.223 23.8619 29.2221L21.3067 28.4893L21.2816 28.4821L21.2561 28.4766C20.8523 28.3907 20.4544 28.279 20.0648 28.1425C19.4575 27.8132 18.8819 27.4293 18.3451 26.9956C18.3883 26.9512 18.4291 26.9046 18.4673 26.856C19.0474 26.5742 19.6468 26.3338 20.261 26.1365C20.5871 26.0674 20.9992 25.9494 21.3179 25.8532C21.4882 25.8018 21.6392 25.7543 21.7478 25.7197C21.8021 25.7024 21.8459 25.6882 21.8764 25.6783L21.9118 25.6667L21.9213 25.6636L21.9239 25.6628L21.9247 25.6625L21.9249 25.6624L21.925 25.6624L21.6899 24.9502L21.925 25.6624L21.9436 25.6563L21.9618 25.6492C22.7801 25.3309 23.5607 24.9228 24.289 24.4322L24.3078 24.4196L24.3258 24.4058C24.5044 24.2691 24.7007 24.138 24.9201 23.9939C24.944 23.9782 24.9682 23.9624 24.9927 23.9463C25.1862 23.8195 25.3973 23.6812 25.6005 23.5343C26.0512 23.2086 26.5335 22.793 26.8623 22.1987C27.1132 21.8161 27.2471 21.3683 27.2471 20.9102C27.2471 20.455 27.1149 20.0101 26.8672 19.6292C26.7105 19.3351 26.4598 19.0481 26.06 18.9314C25.674 18.8188 25.3046 18.9144 25.0297 19.0206L25.0282 19.0212C24.4558 19.2437 23.916 19.542 23.4229 19.908L23.3932 19.93L23.3658 19.9549C23.2187 20.0884 23.0502 20.1958 22.8674 20.2726C22.8536 20.2742 22.8411 20.2757 22.8307 20.2769L22.8251 20.2776C22.7537 20.286 22.6622 20.2979 22.5593 20.3118C22.3527 20.3398 22.0904 20.3776 21.8291 20.4176C21.5687 20.4574 21.3042 20.5001 21.0951 20.538C20.9916 20.5567 20.8943 20.5756 20.8153 20.5933C20.7766 20.602 20.7332 20.6125 20.6918 20.6245C20.6914 20.6247 20.6907 20.6248 20.6897 20.6251C20.6803 20.6277 20.6461 20.6373 20.6007 20.6552C20.1849 20.7837 19.7764 20.9345 19.3769 21.1068C18.3284 21.4381 17.2574 21.6936 16.1723 21.8713C15.1661 21.8936 14.1712 22.0893 13.2313 22.45L13.2158 22.4559L13.2005 22.4626C12.5844 22.7309 11.2044 23.3212 9.96406 23.8301C9.34288 24.0849 8.76335 24.3165 8.33409 24.4767C8.1303 24.5528 7.97079 24.6089 7.86065 24.6434C7.82638 24.6376 7.79314 24.633 7.76316 24.6292C7.65416 24.6153 7.5181 24.6037 7.37574 24.593C7.23629 24.5826 7.09888 24.5735 6.95529 24.564C6.76957 24.5516 6.5735 24.5386 6.3493 24.5212C5.97565 24.4921 5.61363 24.4569 5.32527 24.4098C5.18053 24.3862 5.07098 24.3622 4.99578 24.34C4.97444 24.3337 4.95928 24.3285 4.94931 24.3248C4.81886 24.2314 4.59973 24.1263 4.3194 24.1728C4.02969 24.221 3.85777 24.4037 3.78473 24.4946C3.64862 24.6641 3.56167 24.8926 3.50864 25.0338C3.45972 25.164 3.41183 25.3012 3.35873 25.4534C3.25626 25.7471 3.13435 26.0964 2.94807 26.5586C2.40828 27.8979 1.40717 29.9533 -0.651127 32.5885L-0.93212 32.9483L-0.741654 33.3631C-0.507886 33.8723 -0.305084 34.3951 -0.134382 34.9287L-0.103562 35.025L-0.0483221 35.1098C0.629794 36.1499 1.4277 37.1068 2.32896 37.9608C3.1142 38.8548 4.04496 39.6098 5.08198 40.1937L5.13676 40.2245L5.19591 40.2458C5.3799 40.3121 5.69742 40.4719 6.13197 40.7158C6.55312 40.9521 7.03933 41.2415 7.54745 41.5438L7.54892 41.5447L7.59228 41.5705C8.55533 42.1436 9.62679 42.7812 10.3476 43.0882C11.403 43.6475 12.5116 44.1002 13.657 44.4393L13.7408 44.4641C13.7995 44.4975 13.8852 44.554 13.9972 44.6365C14.2265 44.8054 14.5071 45.0393 14.7872 45.2845C15.0648 45.5275 15.3307 45.7716 15.5279 45.9558C15.6263 46.0477 15.7071 46.1242 15.763 46.1774L15.8273 46.2389L15.8438 46.2547L15.8457 46.2566L15.8629 46.2737L15.9276 46.3382C15.9834 46.3937 16.0633 46.4729 16.16 46.5683C16.3532 46.759 16.6143 47.0151 16.8848 47.2755C17.1543 47.5349 17.4375 47.8029 17.6736 48.0156C17.791 48.1213 17.9029 48.219 17.9988 48.2969C18.0465 48.3356 18.0964 48.3745 18.1451 48.4089C18.175 48.4301 18.2298 48.468 18.2978 48.5028C18.3074 48.51 18.3236 48.5224 18.3474 48.5418C18.4092 48.5921 18.4925 48.665 18.5941 48.7576C18.796 48.9417 19.0447 49.1805 19.2901 49.4209C19.5343 49.6602 19.7705 49.8964 19.9459 50.073C20.0335 50.1613 20.1057 50.2344 20.156 50.2855L20.214 50.3444L20.229 50.3598L20.2328 50.3636L20.2337 50.3645L20.2339 50.3648L20.234 50.3648L20.2339 50.3648L20.2407 50.3716C21.0561 51.1835 21.9675 51.8928 22.9548 52.4837L23.0357 52.5322L23.1261 52.5591C23.5652 52.6897 24.0337 52.6838 24.4693 52.5421C24.9003 52.402 25.279 52.1356 25.5566 51.7777C25.7929 51.4884 25.9307 51.131 25.9493 50.7577C25.9682 50.3796 25.8641 50.0056 25.6523 49.6917C25.4187 49.3442 25.1535 49.0189 24.8603 48.7201L24.1954 48.0155L24.1846 48.004L24.1734 47.9931L21.4523 45.3415C21.1432 44.9935 20.8626 44.6213 20.6132 44.2283L20.5665 44.1547L20.5041 44.0937C19.9635 43.5655 19.3713 43.0928 18.7364 42.6827C18.4421 42.4645 18.3132 42.3306 18.2601 42.2652C18.2698 42.2533 18.2805 42.2405 18.2922 42.2269C18.3421 42.1689 18.3952 42.1134 18.4372 42.0713C18.4578 42.0506 18.4747 42.0342 18.4859 42.0235L18.4979 42.012L18.4995 42.0105L18.4996 42.0104L18.4998 42.0103L18.4999 42.0101L18.5001 42.0099L18.5002 42.0099L18.5437 41.9696L18.5808 41.9222C18.5816 41.9211 18.5826 41.9203 18.5838 41.9196C18.585 41.9189 18.5863 41.9185 18.5875 41.9184C18.5888 41.9183 18.5901 41.9184 18.5915 41.9188C18.5927 41.9191 18.5939 41.9198 18.595 41.9206L18.6323 41.9512L18.6733 41.9767C18.9638 42.1577 19.3436 42.3778 19.7597 42.6189C20.4521 43.0201 21.2447 43.4793 21.8925 43.9133C22.4537 44.2892 23.1438 44.6431 23.7771 44.951C24.0146 45.0664 24.2409 45.174 24.4529 45.2747C24.8289 45.4534 25.16 45.6108 25.4294 45.7532C25.6868 45.8893 26.0139 46.0662 26.3651 46.256C27.1555 46.6834 28.0677 47.1766 28.5797 47.4184L28.5884 47.4225L28.5971 47.4263C29.1552 47.6726 29.6964 47.9555 30.2172 48.273C30.7869 48.6485 31.4782 48.7935 32.1511 48.6784C32.8294 48.5623 33.4375 48.1907 33.8502 47.6399L33.8668 47.6178L33.8817 47.5945C34.1743 47.1372 34.274 46.6529 34.1929 46.1832C34.1151 45.7323 33.8829 45.3625 33.6307 45.0829C33.1729 44.5752 32.5203 44.2226 32.0394 44.1032C31.1283 43.7202 30.2708 43.2204 29.4882 42.6165L29.4615 42.5959L29.4331 42.5778C28.8102 42.1807 28.1651 41.8198 27.5008 41.4968C27.0431 41.2334 26.6088 40.9315 26.2026 40.5945C26.8102 40.8344 27.4394 41.017 28.082 41.1398C28.0855 41.141 28.0896 41.1423 28.0943 41.1438C28.118 41.1516 28.1492 41.1624 28.1883 41.1761C28.2663 41.2035 28.3676 41.2403 28.4868 41.2844C28.7246 41.3724 29.0254 41.4864 29.3366 41.6063C29.9651 41.8484 30.6124 42.1052 30.87 42.2176L30.905 42.2329L30.9414 42.2445C31.921 42.5579 32.8834 42.9228 33.8245 43.3375C34.2408 43.5847 34.682 43.7871 35.1409 43.9413C35.3968 44.0749 35.6761 44.1581 35.9638 44.1861C36.2788 44.2169 36.5967 44.1808 36.8969 44.0803C37.197 43.9798 37.4725 43.817 37.7055 43.6028C37.9364 43.3904 38.1204 43.1321 38.2455 42.8444C38.6508 41.9505 38.489 41.1275 38.036 40.5025C37.6145 39.9211 36.9705 39.542 36.4001 39.3431C35.5763 39.0469 34.7745 38.6925 34.0008 38.2826C33.871 38.2098 33.6475 38.1126 33.4377 38.0232C33.2893 37.9598 33.1174 37.8878 32.9393 37.8132C32.8318 37.7681 32.7219 37.7221 32.6136 37.6765C32.3207 37.5531 32.0322 37.4297 31.7936 37.3211C31.6743 37.2667 31.5724 37.2183 31.4914 37.1771C31.451 37.1565 31.4185 37.1392 31.3933 37.125C31.3809 37.1179 31.3712 37.1122 31.364 37.1078L31.3558 37.1027L31.3537 37.1013L31.3529 37.1008C31.0926 36.923 30.6335 36.6987 30.2716 36.5218L30.268 36.5201C30.2457 36.5092 30.2236 36.4984 30.2018 36.4877C30.0306 36.4041 29.8721 36.3267 29.7366 36.2576C29.5888 36.1822 29.505 36.1348 29.4703 36.1126C29.1338 35.8537 28.7506 35.6619 28.3415 35.5478L28.3399 35.5473C28.2347 35.5182 28.0894 35.4767 27.9229 35.429C27.4103 35.2824 26.6974 35.0785 26.3402 35.0054C26.1501 34.9665 25.6201 34.8288 25.0722 34.6764C24.8179 34.6056 24.5789 34.537 24.3818 34.4784C24.9148 34.4678 25.7657 34.6327 26.7601 34.8285L26.8069 34.8378C27.7212 35.0179 28.7729 35.2251 29.5158 35.1903C30.5626 35.1997 31.6049 35.33 32.6218 35.5787L34.1951 35.9634L34.1442 35.8616C34.2094 35.8738 34.2753 35.8861 34.3416 35.8986C35.1935 36.0584 36.0633 36.2258 36.337 36.2903C36.8862 36.4773 37.4868 36.4471 38.0152 36.2047C38.5542 35.9574 38.975 35.509 39.1876 34.9556C39.5585 34.041 39.1757 33.2957 38.7977 32.8623C38.6105 32.6475 38.4098 32.4874 38.2612 32.3826C38.1855 32.3292 38.1198 32.2877 38.0708 32.2584C38.0462 32.2437 38.0256 32.2319 38.0098 32.2231L37.9898 32.2121L37.9826 32.2083L37.9797 32.2068L37.9785 32.2061L37.9779 32.2058C37.9776 32.2057 37.9774 32.2055 37.6299 32.8702ZM37.6299 32.8702L37.8848 32.1648L37.9325 32.182L37.9774 32.2055L37.6299 32.8702ZM26.699 29.5204C26.692 29.5192 26.6937 29.5192 26.7018 29.5209C26.7005 29.5207 26.6996 29.5205 26.699 29.5204Z" fill="rgb(230,230,230)" stroke="rgb(20,20,20)" stroke-width="1.5"/>
  </g>
  </g>
  <defs>
  <clipPath id="clip0_205_2">
  <rect width="43.54" height="51.82" fill="rgb(20,20,20)"/>
  </clipPath>
  </defs>
  </svg>
  