<?xml version="1.0" standalone="no"?>
<!DOCTYPE svg PUBLIC "-//W3C//DTD SVG 20010904//EN"
 "http://www.w3.org/TR/2001/REC-SVG-20010904/DTD/svg10.dtd">
<svg version="1.0" xmlns="http://www.w3.org/2000/svg"
 width="496.000000pt" height="496.000000pt" viewBox="0 0 496.000000 496.000000"
 preserveAspectRatio="xMidYMid meet">
<metadata>
Created by potrace 1.14, written by Peter Selinger 2001-2017
</metadata>
<g transform="translate(0.000000,496.000000) scale(0.100000,-0.100000)"
fill="#000000" stroke="none">
<path d="M2475 4864 c-11 -3 -38 -9 -60 -14 -22 -5 -116 -26 -210 -45 -219
-46 -212 -44 -265 -55 -25 -5 -110 -23 -190 -40 -80 -18 -154 -34 -165 -36
-77 -14 -394 -82 -415 -89 -7 -2 -88 -14 -120 -18 -41 -5 -69 -25 -88 -65 -15
-29 -406 -673 -618 -1017 -24 -38 -53 -88 -65 -110 -12 -22 -24 -42 -28 -45
-3 -3 -12 -16 -20 -30 -8 -14 -63 -105 -123 -204 -59 -98 -108 -186 -108 -195
0 -9 11 -86 25 -171 13 -85 27 -173 30 -195 3 -22 10 -65 15 -95 5 -30 12 -69
15 -86 2 -17 7 -46 9 -65 6 -40 16 -104 22 -139 5 -29 42 -268 50 -320 3 -19
16 -100 29 -180 13 -80 27 -165 30 -190 4 -25 13 -85 21 -135 9 -49 17 -103
20 -119 8 -51 18 -62 129 -151 28 -21 52 -42 55 -45 3 -3 30 -25 60 -50 69
-57 100 -82 114 -95 6 -6 33 -28 61 -50 27 -22 56 -45 63 -52 7 -7 34 -29 60
-50 26 -21 49 -40 52 -43 5 -5 93 -78 133 -110 11 -8 24 -20 31 -25 6 -6 63
-53 126 -105 63 -51 117 -96 120 -100 3 -3 55 -46 115 -95 61 -49 121 -100
135 -112 38 -35 74 -36 230 -9 124 22 300 50 377 61 12 2 34 6 50 9 15 3 48 8
73 12 24 3 47 7 50 9 3 1 32 6 65 10 32 3 62 8 66 10 3 3 21 7 40 9 51 7 97
14 294 47 99 17 191 32 205 34 76 12 329 55 355 60 17 4 284 134 595 289 472
236 567 288 579 311 7 15 29 98 47 184 19 86 38 174 44 196 5 22 12 51 14 65
3 14 23 106 45 205 23 99 43 189 45 200 2 11 54 247 116 524 61 277 113 511
115 520 2 9 8 36 14 61 26 114 21 145 -31 182 -13 9 -131 98 -263 196 -132 99
-386 288 -565 421 -179 134 -336 251 -350 261 -14 11 -158 118 -320 239 -162
121 -299 224 -305 228 -5 5 -26 20 -45 33 -19 14 -37 27 -40 30 -3 3 -75 57
-160 120 -85 63 -157 117 -160 120 -3 3 -21 17 -40 30 -19 13 -37 27 -40 30
-3 3 -21 16 -41 28 -35 21 -60 25 -104 16z m-212 -362 c-43 -67 -89 -140 -103
-162 -83 -133 -262 -410 -265 -410 -2 0 -10 6 -17 13 -7 7 -56 46 -108 87 -52
41 -97 77 -100 80 -3 3 -25 21 -50 40 -25 19 -52 41 -60 47 -8 7 -55 45 -105
84 -49 39 -105 83 -122 97 -18 14 -31 27 -29 29 2 2 36 11 77 19 41 9 81 17
89 19 28 6 495 105 515 109 11 2 54 12 95 21 41 9 87 18 102 21 15 3 55 11 90
18 35 7 64 12 66 11 1 -1 -32 -57 -75 -123z m477 -23 c85 -63 162 -120 170
-126 8 -7 74 -55 145 -108 72 -52 137 -101 145 -108 8 -6 86 -65 173 -129 87
-65 155 -118 150 -119 -36 -4 -1397 -3 -1403 1 -5 3 34 70 86 150 51 80 107
168 124 195 17 28 53 84 80 125 27 41 73 114 102 161 31 50 57 84 63 80 6 -4
80 -59 165 -122z m-1628 -177 c2 -5 46 -42 98 -82 52 -41 97 -77 100 -80 3 -3
57 -46 120 -95 63 -50 120 -95 126 -100 6 -6 46 -37 88 -69 42 -33 73 -63 69
-67 -22 -21 -1308 -659 -1320 -655 -10 4 -4 21 25 68 91 148 158 258 307 503
87 143 168 276 180 295 13 19 57 92 100 163 69 113 96 144 107 119z m2518
-634 c0 -11 -7 -47 -15 -81 -8 -34 -35 -163 -61 -287 -37 -182 -52 -235 -76
-275 -36 -58 -499 -798 -504 -804 -3 -4 -111 21 -619 139 -44 10 -129 30 -190
45 -60 14 -150 35 -200 47 -189 44 -230 56 -228 64 0 5 4 27 7 48 6 37 100
489 131 626 15 68 51 238 59 280 2 14 14 68 25 120 12 52 21 95 21 95 0 1 371
1 825 1 796 0 825 -1 825 -18z m230 -32 c0 -6 -10 -22 -21 -36 l-21 -25 6 25
c3 14 6 33 6 42 0 11 5 15 15 12 8 -4 15 -11 15 -18z m-2209 -105 c-12 -16
-21 -31 -21 -34 0 -3 -46 -81 -103 -174 -56 -92 -131 -215 -165 -273 -82 -137
-233 -384 -236 -388 -2 -1 -96 29 -209 68 -183 61 -211 73 -238 104 -16 19
-54 61 -84 93 -29 32 -51 61 -47 65 6 6 1112 566 1120 568 2 0 -6 -13 -17 -29z
m2376 -269 c29 -86 134 -399 233 -695 99 -297 180 -541 180 -543 0 -4 -36 -1
-125 11 -16 2 -52 7 -80 10 -27 3 -79 10 -115 15 -67 9 -125 17 -195 25 -22 3
-74 10 -115 15 -122 17 -132 19 -195 25 -95 10 -98 11 -91 54 8 51 14 80 21
101 3 10 8 31 10 46 2 16 34 171 70 344 l67 315 135 218 c75 119 139 217 142
217 3 0 29 -71 58 -158z m368 -17 c72 -53 137 -101 145 -108 8 -7 57 -43 109
-81 101 -76 99 -70 78 -161 -13 -55 -89 -393 -93 -415 -10 -51 -46 -205 -51
-220 -4 -13 -383 1097 -383 1122 0 5 15 -2 33 -16 17 -13 91 -68 162 -121z
m-2739 -122 c-4 -16 -8 -37 -10 -48 -2 -11 -25 -119 -51 -240 -26 -121 -49
-231 -51 -244 -8 -39 -9 -39 -86 -20 -40 10 -80 19 -88 19 -8 0 -21 4 -29 9
-12 8 -10 16 12 50 15 22 27 45 27 51 0 5 5 10 10 10 6 0 10 4 10 9 0 5 50 91
112 192 61 101 118 196 127 211 20 35 24 35 17 1z m-1241 -434 c112 -38 187
-69 198 -81 10 -12 52 -59 95 -106 42 -47 82 -90 87 -96 6 -6 48 -54 95 -106
47 -52 90 -100 95 -106 6 -6 42 -46 80 -89 39 -43 76 -84 83 -92 13 -13 36
-104 48 -190 5 -38 3 -44 -18 -52 -13 -5 -184 -88 -381 -185 -197 -97 -360
-176 -361 -176 -2 0 -9 42 -16 93 -7 50 -14 101 -16 112 -22 134 -34 205 -37
230 -3 17 -8 46 -11 65 -5 32 -72 453 -83 525 -2 17 -10 68 -18 115 -8 47 -17
108 -21 135 -3 28 -8 53 -11 58 -8 13 9 8 192 -54z m632 -214 c22 -6 28 -17
37 -69 l5 -29 -21 24 c-12 13 -35 39 -52 58 -32 35 -33 35 31 16z m2328 -27
c-3 -18 -8 -40 -10 -48 -2 -8 -6 -26 -9 -40 -2 -14 -11 -59 -20 -100 -9 -41
-16 -79 -16 -84 0 -8 -118 -1 -127 8 -4 4 93 166 115 191 5 6 21 32 36 58 15
26 30 47 32 47 2 0 2 -15 -1 -32z m-1977 -69 c60 -14 92 -26 92 -35 0 -11 -62
-307 -69 -332 -1 -1 -17 15 -36 37 -35 38 -38 48 -72 231 -2 14 -8 43 -13 65
-12 49 -12 55 -2 55 4 0 49 -9 100 -21z m748 -174 c225 -53 454 -107 509 -120
55 -13 141 -33 191 -45 l92 -21 6 -42 c4 -23 9 -60 11 -81 3 -22 7 -51 10 -65
25 -150 46 -282 50 -306 3 -27 31 -200 39 -250 15 -85 17 -105 11 -105 -7 0
-18 5 -515 240 -201 95 -401 189 -445 210 -424 199 -505 239 -505 253 0 7 11
67 25 132 14 66 33 154 41 195 22 109 22 109 48 104 12 -2 206 -47 432 -99z
m1124 -249 c-1 -6 -16 -81 -34 -166 -37 -172 -34 -173 -66 25 -29 186 -32 173
40 162 33 -5 60 -15 60 -21z m300 -26 c36 -5 88 -12 115 -15 28 -2 61 -7 75
-9 14 -3 50 -7 81 -11 31 -3 65 -7 75 -9 11 -2 42 -7 69 -10 133 -17 212 -27
235 -31 14 -2 50 -7 80 -10 30 -3 64 -8 75 -10 11 -2 26 -4 33 -4 11 -1 -18
-34 -178 -201 -19 -21 -101 -106 -181 -191 -80 -85 -177 -186 -215 -226 l-69
-72 -155 -6 c-85 -3 -190 -8 -232 -10 -43 -3 -78 -3 -78 0 0 2 38 186 85 408
47 222 85 407 85 410 0 9 22 8 100 -3z m-1928 -314 c153 -72 436 -205 538
-253 52 -25 127 -60 165 -78 39 -18 111 -52 160 -75 50 -23 144 -68 210 -99
66 -32 144 -68 173 -81 29 -13 49 -27 45 -31 -5 -5 -148 -78 -318 -164 -171
-86 -449 -227 -618 -312 -176 -90 -311 -152 -316 -147 -4 5 -15 50 -24 99 -9
50 -19 104 -22 120 -48 253 -75 396 -80 425 -3 19 -10 53 -15 75 -18 77 -111
577 -108 580 27 21 45 22 80 4 20 -10 79 -39 130 -63z m-389 -83 c5 -36 42
-234 52 -278 9 -43 13 -62 20 -100 4 -22 9 -49 11 -60 5 -28 54 -284 60 -315
10 -50 54 -286 59 -312 2 -16 2 -28 0 -28 -4 0 -247 200 -345 284 -14 11 -47
39 -75 61 -27 22 -52 42 -55 45 -9 9 -76 65 -120 100 -50 40 -232 191 -270
224 -14 11 -38 31 -54 44 l-29 22 364 179 c200 98 367 177 370 175 4 -2 9 -20
12 -41z m3142 -130 c-33 -150 -31 -141 -40 -190 -4 -24 -11 -46 -17 -49 -5 -3
-64 -8 -131 -11 -67 -2 -128 -6 -134 -8 -19 -6 -16 3 10 29 89 91 314 331 320
343 20 34 17 -2 -8 -114z m-385 -463 c0 -4 -63 -39 -140 -77 -77 -39 -140 -67
-140 -64 0 4 30 37 68 73 66 66 68 67 127 70 33 2 66 3 73 4 6 0 12 -2 12 -6z
m-545 -126 c-56 -59 -106 -107 -111 -106 -12 0 -43 189 -33 199 5 4 62 9 127
11 l119 3 -102 -107z m-339 -1 c3 -27 14 -95 24 -153 10 -58 17 -106 16 -107
-1 -1 -15 -4 -31 -7 -55 -10 -449 -75 -515 -86 -74 -11 -110 -17 -160 -26 -19
-3 -48 -8 -65 -11 -16 -2 -68 -11 -114 -19 -46 -8 -88 -14 -93 -14 -11 0 912
469 924 470 4 0 10 -21 14 -47z"/>
</g>
</svg>
