<svg version="1.1" xmlns="http://www.w3.org/2000/svg" xmlns:xlink="http://www.w3.org/1999/xlink" width="400" height="400" viewBox="0 0 400 400"><defs/><g><rect fill="rgb(255,255,255)" stroke="none" x="0" y="0" width="400" height="400" transform="matrix(1 0 0 1 0 0)" fill-opacity="1"/><g><path fill="none" stroke="rgb(0,0,0)" paint-order="fill stroke markers" d=" M 153.8302222155949 156.7860619515673 L 155.61910827962723 157.37976677720766 L 157.28757737229034 158.7150034852647 L 158.567274403589 160.74953938762985 L 159.2089876837019 163.35179740459157 L 159.0106724871789 166.3093407998615 L 157.8420088381758 169.34574220605154 L 155.66308470732537 172.14452434629112 L 152.53526339393719 174.37819319397823 L 148.622939264587 175.73987622984959 L 144.18565756346362 175.97477455336045 L 139.56090885841095 174.90856720605964 L 135.13873780349184 172.47007962791886 L 131.330059587045 168.7059361918584 L 128.53119098433388 163.78553027313907 L 127.08752194388985 157.99541791680386 L 127.25943857698101 151.7231125315188 L 129.19353807505962 145.43115851668344 L 132.90184958233806 139.62321781303518 L 138.25121232360857 134.80464352038112 L 144.964202847659 131.44057516264596 L 152.63210343097927 129.9149201176293 L 160.739432500426 130.49365170732247 L 168.6985918250441 133.29564335617886 L 175.89230217742144 138.27377879259495 L 181.72077254628275 145.20836083907554 L 185.65004065904193 153.71393596845712 L 187.25768170863128 163.2596247787624 L 186.27213516233607 173.20197753237082 L 182.60225136270188 182.82834216677162 L 176.35429199714812 191.4078221678781 L 167.8344906454575 198.24618861294664 L 157.5363309107448 202.74065648072983 L 146.11285387345447 204.43028353489186 L 134.3354774356844 203.0379220319946 L 123.04190749150087 198.50014608158264 L 113.07665784166525 190.98236278689117 L 105.2283953203895 180.87734212999055 L 100.16872769758227 168.78659778994668 L 98.39711463884758 155.48533252567134 L 100.19629109834685 141.87293240373958 L 105.60195919953668 128.91215714977326 L 114.38956642336574 117.5611378512086 L 126.07980638547642 108.7029792537256 L 139.9631353308514 103.07811187589438 L 155.1421888221118 101.22451281258702 L 170.5896126282052 103.4305042286883" stroke-opacity="1" stroke-linecap="round" stroke-miterlimit="10" stroke-width="10" stroke-dasharray=""/></g><g><path fill="none" stroke="rgb(0,0,0)" paint-order="fill stroke markers" d=" M 195.30153689607044 248.28989928337165 L 194.92125732540825 246.44382609462352 L 195.2433716883196 244.33127112091955 L 196.36548294903 242.20575303148482 L 198.29824785886407 240.34888402048037 L 200.95871317022423 239.0418583209908 L 204.17264574857316 238.53575002641193 L 207.68592424710403 239.0233626065275 L 211.18424886953707 240.61530089857652 L 214.31966303517908 243.32263146449694 L 216.74173180120755 247.04798097966219 L 218.13074350526978 251.5862345180074 L 218.23003684324664 256.635190780518 L 216.87453211235322 261.81567458883154 L 214.01276989116656 266.6997688599937 L 209.7202200200361 270.84507910184294 L 204.2022858995397 273.83234762289544 L 197.78624413420948 275.30334533153035 L 190.9022641875372 274.9958237129052 L 184.05457506944092 272.772426831234 L 177.78471114954965 268.64084068090966 L 172.62950483149316 262.7630715045691 L 169.07703655541667 255.45255277874162 L 167.5240528422091 247.15872278642635 L 168.2383894174363 238.4397191555924 L 171.32967844988528 229.92482472771337 L 176.73108852934726 222.269191159093 L 184.19407701089784 216.1040887648293 L 193.2971803420565 211.98642073372878 L 203.46879856135678 210.35145101594853 L 214.02282587635244 211.47260254777777 L 224.20492561401414 215.43178373100454 L 233.24632883136363 222.10301773960418 L 240.4213273018346 231.1512255263648 L 245.1041950879591 242.04691346285458 L 246.82115081031205 254.0963199091399 L 245.29318432188077 266.4853709082972 L 240.4661109878762 278.33467595574166 L 232.5250530501389 288.7618488218203 L 221.89162595816822 296.94674336849846 L 209.2033534163473 302.194810909647 L 195.27615874307696 303.9937526365726 L 181.052084059758 302.05897119153934 L 167.53557370253083 296.364005706757 L 155.72263118772304 287.15312383988197 L 146.52784056483765 274.9344774427013 L 140.71457326866508 260.45362029554923" stroke-opacity="1" stroke-linecap="round" stroke-miterlimit="10" stroke-width="10" stroke-dasharray=""/></g><g><path fill="none" stroke="rgb(0,0,0)" paint-order="fill stroke markers" d=" M 250 165 L 248.39532192036438 165.98874012299223 L 246.3 166.40858798800485 L 243.91888168179568 166.08111831820432 L 241.5129510429125 164.9 L 239.37481591082025 162.84700949612773 L 237.8 160 L 237.05659392772648 156.53182479562622 L 237.3560291047472 152.7 L 238.82771285725255 148.82771285725255 L 241.5 145.27756813566455 L 245.28949337913411 142.42014996153895 L 250 140.6 L 255.3316723291119 140.1019279784452 L 260.9 141.12064619749924 L 266.2634559672906 143.7365440327094 L 270.9578147715834 147.89999999999998 L 274.53451598774234 153.42599625439598 L 276.6 160 L 276.8527379708361 167.19516945385007 L 275.11473670974874 174.5 L 271.3546247918337 181.35462479183371 L 265.7 187.19319767883138 L 258.43750087034215 191.48918193702363 L 250 193.8 L 240.9413334214118 193.8074039201174 L 231.90000000000003 191.3501196169967 L 223.55420638362313 186.44579361637687 L 216.57141941392067 179.29999999999998 L 211.55615211369508 170.30099799508034 L 209 160.00000000000003 L 209.2379301306013 149.07783629667364 L 212.41449747575535 138.30000000000004 L 218.46303755908 128.46303755907996 L 227.10000000000002 120.33603650667271 L 237.83550488018153 114.60148616441379 L 249.99999999999997 111.80000000000001 L 262.78566082806447 112.28326418132002 L 275.29999999999995 116.17911456850737 L 286.6281312654632 123.37186873453686 L 295.89934640057527 133.5 L 302.3531797848675 145.97200775544337 L 305.4 159.99999999999997 L 304.6714017679613 174.64915795280263 L 300.05626833874055 188.89999999999995 L 291.7193000900063 201.71930009000633 L 280.1 212.1347293078232" stroke-opacity="1" stroke-linecap="round" stroke-miterlimit="10" stroke-width="10" stroke-dasharray=""/></g></g></svg>